<?xml version="1.0" standalone="no"?>
<!DOCTYPE svg PUBLIC "-//W3C//DTD SVG 1.1//EN" "http://www.w3.org/Graphics/SVG/1.1/DTD/svg11.dtd" >
<svg xmlns="http://www.w3.org/2000/svg" xmlns:xlink="http://www.w3.org/1999/xlink" version="1.1">
<metadata>
Created by FontForge 20200427 at Wed Feb 22 23:30:21 2012
 By www
Copyright (c) 2011-2012 Durotype, www.durotype.com. All rights reserved.
</metadata>
<defs>
<font id="Flexo-Bold" horiz-adv-x="1970" >
  <font-face 
    font-family="Flexo"
    font-weight="700"
    font-stretch="normal"
    units-per-em="3333"
    panose-1="0 0 0 0 0 0 0 0 0 0"
    ascent="2633"
    descent="-700"
    x-height="1781"
    cap-height="2330"
    bbox="-567 -832 4237 3205"
    underline-thickness="167"
    underline-position="-562"
    unicode-range="U+0020-FB04"
  />
<missing-glyph horiz-adv-x="2081" 
d="M209 0v2400h1663v-2400h-1663zM941 1200l-565 874v-1748zM1606 171l-565 875l-566 -875h1131zM1606 2228h-1131l566 -874zM1706 2074l-565 -874l565 -874v1748z" />
    <glyph glyph-name="f_f" unicode="ff" horiz-adv-x="2415" 
d="M81 1781h294v155q0 269 144 413t430 144q127 0 272 -19l-33 -311h-137q-233 0 -233 -225v-157h713v155q0 269 144 413t430 144q127 0 272 -19l-33 -311h-138q-232 0 -232 -225v-157h366v-338h-366v-1443h-443v1443h-713v-1443h-443v1443h-294v338z" />
    <glyph glyph-name="fi" unicode="fi" horiz-adv-x="2189" 
d="M1956 0h-447v1443h-691v-1443h-443v1443h-294v338h294v155q0 269 144 413t430 144q127 0 272 -19l-33 -311h-137q-233 0 -233 -225v-157h1138v-1781zM1731 1991q-148 0 -204.5 55.5t-56.5 195.5t57 195.5t204 55.5q148 0 205 -55.5t57 -195.5t-56.5 -195.5t-205.5 -55.5z
" />
    <glyph glyph-name="fl" unicode="fl" horiz-adv-x="2171" 
d="M81 1781h294v155q0 269 144 413t430 144q482 0 980 -24v-1983q0 -119 28.5 -208.5t95.5 -181.5l-392 -184q-89 103 -133 231.5t-44 309.5v1710h-433q-233 0 -233 -225v-157h366v-338h-366v-1443h-443v1443h-294v338z" />
    <glyph glyph-name="f_f_i" unicode="ffi" horiz-adv-x="3345" 
d="M375 1781v155q0 269 144 413t430 144q127 0 272 -19l-33 -311h-137q-233 0 -233 -225v-157h713v155q0 269 144 413t430 144q127 0 272 -19l-33 -311h-138q-232 0 -232 -225v-157h1137v-1781h-446v1443h-691v-1443h-443v1443h-713v-1443h-443v1443h-294v338h294z
M2887 1991q-149 0 -205 55.5t-56 195.5t57 195.5t204 55.5q148 0 205 -55.5t57 -195.5t-56.5 -195.5t-205.5 -55.5z" />
    <glyph glyph-name="f_f_l" unicode="ffl" horiz-adv-x="3327" 
d="M2340 1781v-338h-366v-1443h-443v1443h-713v-1443h-443v1443h-294v338h294v155q0 269 144 413t430 144q127 0 272 -19l-33 -311h-137q-233 0 -233 -225v-157h713v155q0 269 144 413t430 144q482 0 980 -24v-1983q0 -119 28.5 -208.5t95.5 -181.5l-392 -184
q-89 103 -133 231.5t-44 309.5v1710h-434q-232 0 -232 -225v-157h366z" />
    <glyph glyph-name="f_b" unicode="fb" horiz-adv-x="3210" 
d="M375 1781v155q0 269 144 413t430 144q482 0 980 -24v-702q175 38 340 38q168 0 293 -29t222 -94t156.5 -171.5t90 -259.5t30.5 -360q0 -211 -31.5 -364.5t-94 -260t-165.5 -170.5t-236.5 -92t-316.5 -28q-194 0 -384 41t-333 124q-15 171 -15 338v1684h-434
q-233 0 -233 -225v-157h366v-338h-366v-1443h-443v1443h-294v338h294zM1940 371q102 -47 277 -47q62 0 113.5 10.5t90 27t68.5 45t50.5 57.5t34.5 71.5t22 79t12.5 88.5t5.5 91.5t1 96.5q0 85 -2 134.5t-10.5 117.5t-25.5 107t-48.5 83.5t-77.5 67.5t-114.5 38.5
t-158.5 15.5q-125 0 -249 -39v-806q0 -140 11 -239z" />
    <glyph glyph-name="f_f_b" unicode="ffb" horiz-adv-x="4365" 
d="M1974 1443v-1443h-443v1443h-713v-1443h-443v1443h-294v338h294v155q0 269 144 413t430 144q127 0 272 -19l-33 -311h-137q-233 0 -233 -225v-157h713v155q0 269 144 413t430 144q482 0 980 -24v-702q175 38 340 38q168 0 293 -29t221.5 -94t156.5 -171.5t90 -259.5
t30 -360q0 -176 -21 -311t-66 -237t-111.5 -172t-162.5 -113.5t-213 -62.5t-269 -19q-194 0 -384.5 41t-332.5 124q-15 171 -15 338v1684h-435q-232 0 -232 -225v-157h366v-338h-366zM3085 610q0 -140 11 -239q102 -47 277 -47q79 0 141.5 17t103.5 43.5t70.5 72t45 88
t24 108t10.5 114.5t2 124q0 85 -1.5 134.5t-10.5 118t-25.5 107t-48 83t-77.5 67.5t-114.5 38.5t-158.5 15.5q-125 0 -249 -39v-806z" />
    <glyph glyph-name="f_f_h" unicode="ffh" horiz-adv-x="4388" 
d="M818 1781h713v155q0 269 144 413t430 144q482 0 980 -24v-721q191 57 395 57q135 0 241 -18.5t179.5 -49.5t126.5 -82t83.5 -103.5t48 -127t22.5 -141t5 -156.5v-1127h-445v1084q0 68 -5 115t-19 90.5t-39 70t-66.5 47t-100.5 29t-140 8.5q-154 0 -286 -56v-1388h-445
v2163h-434q-232 0 -232 -225v-157h366v-338h-366v-1443h-443v1443h-713v-1443h-443v1443h-294v338h294v155q0 269 144 413t430 144q127 0 272 -19l-33 -311h-137q-233 0 -233 -225v-157z" />
    <glyph glyph-name="f_f_j" unicode="ffj" horiz-adv-x="3420" 
d="M818 1443v-1443h-443v1443h-294v338h294v155q0 269 144 413t430 144q127 0 272 -19l-33 -311h-137q-233 0 -233 -225v-157h713v155q0 269 144 413t430 144q127 0 272 -19l-33 -311h-138q-232 0 -232 -225v-157h1208v-1755q0 -382 -169 -544t-554 -162q-70 0 -120 5
l36 329q51 5 84.5 10.5t75 16t68 24t54 36.5t43 53t25.5 72.5t10 96.5v1480h-761v-1443h-443v1443h-713zM2696 2242q0 140 57 195.5t205 55.5t205 -55.5t57 -195.5t-56.5 -195.5t-205.5 -55.5t-205.5 55.5t-56.5 195.5z" />
    <glyph glyph-name="f_f_k" unicode="ffk" horiz-adv-x="4271" 
d="M3085 1002l607 779h509l-669 -820l705 -961h-538l-614 886v-886h-442v2163h-437q-232 0 -232 -225v-157h366v-338h-366v-1443h-443v1443h-713v-1443h-443v1443h-294v338h294v155q0 269 144 413t430 144q127 0 272 -19l-33 -311h-137q-233 0 -233 -225v-157h713v155
q0 269 144 413t430 144q482 0 980 -24v-1467z" />
    <glyph glyph-name="f_h" unicode="fh" horiz-adv-x="3232" 
d="M81 1443v338h294v155q0 269 144 413t430 144q482 0 980 -24v-721q191 57 395 57q135 0 241 -18.5t179.5 -49.5t126.5 -82t83.5 -103.5t48 -127t22.5 -141t5 -156.5v-1127h-444v1084q0 68 -5 115t-19 90.5t-39.5 70t-67 47t-100.5 29t-140 8.5q-154 0 -286 -56v-1388h-445
v2163h-433q-233 0 -233 -225v-157h366v-338h-366v-1443h-443v1443h-294z" />
    <glyph glyph-name="f_j" unicode="fj" horiz-adv-x="2264" 
d="M818 1781h1208v-1755q0 -194 -41 -327.5t-130.5 -218t-223.5 -122.5t-327 -38q-71 0 -120 5l35 329q51 5 84.5 10.5t75 16t68 24t54 36.5t43 53t25.5 72.5t10 96.5v1480h-761v-1443h-443v1443h-294v338h294v155q0 269 144 413t430 144q127 0 272 -19l-33 -311h-137
q-233 0 -233 -225v-157zM1541 2242q0 140 57 195.5t204 55.5q148 0 205 -55.5t57 -195.5t-56.5 -195.5t-205.5 -55.5t-205 55.5t-56 195.5z" />
    <glyph glyph-name="f_k" unicode="fk" horiz-adv-x="3115" 
d="M81 1781h294v155q0 269 144 413t430 144q482 0 980 -24v-1467l608 779h509l-669 -820l704 -961h-538l-614 886v-886h-442v2163h-436q-233 0 -233 -225v-157h366v-338h-366v-1443h-443v1443h-294v338z" />
    <glyph glyph-name=".notdef" horiz-adv-x="2081" 
d="M209 0v2400h1663v-2400h-1663zM941 1200l-565 874v-1748zM1606 171l-565 875l-566 -875h1131zM1606 2228h-1131l566 -874zM1706 2074l-565 -874l565 -874v1748z" />
    <glyph glyph-name=".null" horiz-adv-x="0" 
 />
    <glyph glyph-name="nonmarkingreturn" horiz-adv-x="1111" 
 />
    <glyph glyph-name="space" unicode=" " horiz-adv-x="850" 
 />
    <glyph glyph-name="exclam" unicode="!" horiz-adv-x="982" 
d="M490 -24q-148 0 -204.5 55.5t-56.5 195.5t57 195.5t204 55.5q148 0 205 -55.5t57 -195.5t-56.5 -195.5t-205.5 -55.5zM298 682l-69 1648h522l-70 -1648h-383z" />
    <glyph glyph-name="quotedbl" unicode="&#x22;" horiz-adv-x="1366" 
d="M216 1524l-32 945h390l-32 -945h-326zM824 1524l-32 945h390l-31 -945h-327z" />
    <glyph glyph-name="numbersign" unicode="#" horiz-adv-x="1959" 
d="M586 1671l97 659h314l-97 -659h333l98 659h313l-97 -659h291v-308h-335l-57 -393h298v-308h-344l-98 -662h-314l98 662h-334l-97 -662h-314l98 662h-318v308h364l57 393h-334v308h378zM799 970h334l57 393h-334z" />
    <glyph glyph-name="dollar" unicode="$" horiz-adv-x="1727" 
d="M161 408q339 -51 593 -51q95 0 161 12t118.5 42.5t78 86.5t25.5 140q0 74 -23.5 126t-86 89t-106.5 54t-147 49q-8 3 -12 4q-95 29 -164 54.5t-140.5 59.5t-120 70.5t-93 86t-70.5 107.5t-41 133t-15 166q0 155 38.5 269.5t116 190t185.5 118t256 58.5v313h316v-304
q275 -11 543 -69l-41 -352q-313 49 -498 49q-49 0 -83.5 -1t-86.5 -6t-88 -13.5t-77 -26t-66 -41.5t-41.5 -61t-16.5 -84q0 -64 20.5 -111.5t42 -75.5t86 -56.5t99 -39t135.5 -37.5q21 -6 32 -9q168 -46 280.5 -101t190.5 -136.5t113 -192.5t35 -264q0 -305 -150 -464
t-446 -199v-317h-316v303q-290 7 -580 69z" />
    <glyph glyph-name="percent" unicode="%" horiz-adv-x="2873" 
d="M640 957q-128 0 -219.5 28.5t-149.5 80.5t-91.5 140t-46 192t-12.5 251q0 104 6 185t21.5 155.5t41 128t65 98t94 71t127 41t164.5 14.5q128 0 219 -28.5t149 -80.5t91.5 -140t46 -192t12.5 -252q0 -147 -12.5 -251t-46 -192t-91.5 -140t-149 -80.5t-219 -28.5zM640 1201
q33 0 59.5 7t46.5 18t35.5 32t25.5 40.5t17 53.5t11 60.5t6 71.5t2.5 78t0.5 87t-0.5 87t-2.5 77.5t-6 72t-11 61t-17.5 53.5t-25.5 41t-35 32t-46.5 18t-59.5 7q-37 0 -66 -7.5t-50 -25.5t-36 -37t-24.5 -54t-15.5 -64t-8.5 -78.5t-3 -85.5t-0.5 -97q0 -55 0.5 -87
t2.5 -77.5t5.5 -72t10.5 -61t17.5 -53.5t26 -40.5t35.5 -32t46.5 -17.5t59.5 -7zM2219 -12q-128 0 -218.5 28.5t-149 80.5t-92 140t-46 192t-12.5 252q0 122 8.5 213t30.5 172.5t59.5 136t94.5 94.5t137.5 58.5t187.5 18.5t188 -18.5t138 -58.5t95 -94.5t59.5 -136
t30 -172.5t8.5 -213q0 -104 -6 -185t-21.5 -155.5t-41 -128t-65 -98t-94 -71t-127 -41t-164.5 -14.5zM2219 233q33 0 59.5 7t46.5 17.5t35.5 32t26 40.5t17.5 53.5t10.5 61t5.5 72t2.5 77.5t0.5 87t-0.5 87t-2.5 78t-5.5 72t-10.5 60.5t-17.5 54t-26 40.5t-35.5 32t-46.5 18
t-59.5 7t-59.5 -7t-46 -18t-35 -32t-25.5 -40.5t-17.5 -53.5t-11 -61t-5.5 -72t-2.5 -78t-0.5 -87q0 -71 1 -111t5 -95t11.5 -85t22.5 -64.5t36.5 -52t53 -29t73.5 -11.5zM592 -48l1367 2426h308l-1368 -2426h-307z" />
    <glyph glyph-name="ampersand" unicode="&#x26;" horiz-adv-x="2284" 
d="M2225 0h-542l-139 162q-114 -100 -264 -143t-368 -43q-398 0 -593 169.5t-195 514.5q0 227 114.5 373t335.5 243q-41 52 -55.5 71.5t-47.5 67t-47 79.5t-32.5 80.5t-25.5 100t-7 110.5q0 123 32.5 220t90 161.5t140 107.5t178 61.5t207.5 18.5q101 0 190 -17.5
t169.5 -58.5t138.5 -102t92 -153t34 -206q0 -420 -468 -627l369 -404q50 115 64 320l403 -17q-18 -194 -61.5 -343.5t-125.5 -286.5zM1217 1782q0 127 -58 180.5t-163 53.5q-99 0 -160.5 -58t-61.5 -181q0 -97 40.5 -169.5t121.5 -160.5q56 28 99 56.5t88 69.5t69.5 94.5
t24.5 114.5zM1295 451l-492 556q-84 -55 -131.5 -100.5t-76 -113t-28.5 -158.5q0 -79 33.5 -142t89 -100t122.5 -56.5t139 -19.5q203 0 344 134z" />
    <glyph glyph-name="quotesingle" unicode="'" horiz-adv-x="758" 
d="M216 1524l-32 945h390l-31 -945h-327z" />
    <glyph glyph-name="parenleft" unicode="(" horiz-adv-x="1080" 
d="M724 2430l253 -209q-91 -89 -160 -215t-108.5 -255.5t-64 -282t-32.5 -278.5t-8 -262q0 -938 372 -1293l-252 -210q-132 109 -232.5 246.5t-163.5 281.5t-103 311.5t-55.5 326.5t-15.5 337t15.5 337t55.5 326.5t103 311t163.5 281t232.5 246.5z" />
    <glyph glyph-name="parenright" unicode=")" horiz-adv-x="1080" 
d="M356 -575l-253 210q373 356 373 1293q0 136 -8 262t-32.5 278.5t-64 282t-108.5 255.5t-160 215l253 209q132 -109 232.5 -246.5t163.5 -281t103 -311t55.5 -326.5t15.5 -337t-15.5 -337t-55.5 -326.5t-103 -311.5t-163.5 -281.5t-232.5 -246.5z" />
    <glyph glyph-name="asterisk" unicode="*" horiz-adv-x="1510" 
d="M952 1134l-198 341l-198 -341l-250 140l200 347h-398v282h397l-200 347l251 142l198 -345l198 345l251 -142l-204 -347h403v-282h-402l200 -350z" />
    <glyph glyph-name="plus" unicode="+" horiz-adv-x="1917" 
d="M765 1169v637h385v-637h636v-377h-636v-641h-385v641h-634v377h634z" />
    <glyph glyph-name="comma" unicode="," horiz-adv-x="909" 
d="M81 -433l209 888h492l-339 -888h-362z" />
    <glyph glyph-name="hyphen" unicode="-" horiz-adv-x="1298" 
d="M209 708v356h880v-356h-880z" />
    <glyph glyph-name="period" unicode="." horiz-adv-x="883" 
d="M441 -24q-151 0 -206.5 55t-55.5 201t56 201t206 55t206.5 -55t56.5 -201t-55.5 -201t-207.5 -55z" />
    <glyph glyph-name="slash" unicode="/" horiz-adv-x="1505" 
d="M80 -268l945 2680h380l-945 -2680h-380z" />
    <glyph glyph-name="zero" unicode="0" horiz-adv-x="2074" 
d="M1037 -24q-131 0 -237.5 17.5t-190.5 54.5t-147.5 88.5t-110 126.5t-77 161t-49 199.5t-26 234t-7.5 272.5t7.5 272.5t26 234t49 199.5t77 161t110 126.5t147.5 88.5t190.5 54.5t237.5 17.5t237.5 -17.5t190 -54.5t147.5 -88.5t110 -126.5t77 -161t49 -199.5t25.5 -234
t7.5 -272.5t-7.5 -272.5t-25.5 -234t-49 -199.5t-77 -161t-110 -126.5t-147.5 -88.5t-190 -54.5t-237.5 -17.5zM1037 345q62 0 112 12.5t87.5 31t66 56t48 71.5t32.5 93.5t20 106t10.5 126t4.5 136t1 152.5q0 124 -1.5 194t-9 166t-22.5 149t-42.5 114t-68 91.5t-100 51
t-138.5 20.5t-139 -20.5t-100.5 -51t-68 -91.5t-42.5 -114t-22.5 -149t-9 -166t-1.5 -194q0 -108 1 -170.5t6 -149.5t15.5 -137t28.5 -111t46.5 -94.5t68 -65t94 -44.5t123.5 -13z" />
    <glyph glyph-name="one" unicode="1" horiz-adv-x="1277" 
d="M570 0v1802q-218 -55 -498 -86l-20 365q336 50 613 179h361v-2260h-456z" />
    <glyph glyph-name="two" unicode="2" horiz-adv-x="1903" 
d="M216 1853l-43 354q402 77 743 77q144 0 260 -15.5t220.5 -56t175 -104.5t111.5 -165.5t41 -235.5q0 -308 -162 -511.5t-498 -335.5q-80 -32 -139 -62t-102 -64t-71 -67.5t-47 -78t-29.5 -88t-19.5 -105.5h1067v-395h-1587q26 144 41 224t38.5 188.5t44 168t51 138.5
t64.5 125t80.5 102t103.5 95t128 79.5t159 78.5q112 48 184.5 89t127 91.5t78.5 110t24 137.5q0 58 -11 99t-37.5 72.5t-65.5 50.5t-102 31t-138.5 16.5t-183.5 4.5q-216 0 -506 -48z" />
    <glyph glyph-name="three" unicode="3" horiz-adv-x="1874" 
d="M847 2284q99 0 183 -6.5t171.5 -23.5t156 -45t130 -73t102.5 -105t64.5 -144.5t23.5 -187.5q0 -172 -78.5 -302.5t-235.5 -206.5q177 -69 263 -186t86 -307q0 -164 -39.5 -287.5t-111.5 -205.5t-182.5 -133.5t-242.5 -73t-302 -21.5q-184 0 -346 20t-356 57l50 357
q387 -50 568 -50q106 0 178 7.5t134 27.5t97.5 56t55 92t19.5 137q0 262 -243 292q-192 25 -469 25h-41v337q244 6 510 44q115 17 166.5 84.5t51.5 188.5q0 68 -20.5 115.5t-52.5 75t-87.5 42.5t-108.5 19t-131 4q-217 0 -607 -50l-47 351q390 76 691 76z" />
    <glyph glyph-name="four" unicode="4" horiz-adv-x="1994" 
d="M1150 0v509h-760q-165 0 -232.5 61.5t-67.5 176.5q0 41 8 78.5t46.5 111.5t107.5 163l756 973q95 122 174 166.5t182 44.5t168.5 -69.5t65.5 -199.5v-1150h277v-356h-277v-509h-448zM1152 1678l-608 -813h608v813z" />
    <glyph glyph-name="five" unicode="5" horiz-adv-x="1899" 
d="M683 1868l-31 -445q64 4 142 4q125 0 223 -7t199 -26t175.5 -52t141.5 -87t109 -127.5t66.5 -177t24.5 -233.5q0 -389 -214.5 -565t-640.5 -176q-372 0 -727 79l49 357q361 -51 572 -51q95 0 159.5 5.5t123 21t93 42t60 71t36 106.5t10.5 149q0 58 -16.5 104.5t-44.5 79
t-71.5 56t-89.5 37.5t-107.5 22t-116.5 10.5t-125 2.5q-229 0 -478 -12l83 1204h1391v-392h-996z" />
    <glyph glyph-name="six" unicode="6" horiz-adv-x="2021" 
d="M1052 1447q162 0 284 -19t228 -67.5t173 -129t105 -206.5t38 -297q0 -178 -41.5 -310t-114 -216t-185 -135t-239.5 -71t-293 -20q-198 0 -343.5 43.5t-237.5 120.5t-147.5 198.5t-76.5 259.5t-21 322q0 201 11.5 356.5t40 293.5t73.5 238t115.5 182.5t162.5 136t217.5 90
t278 52t346.5 15.5q82 0 279 -5l36 -357q-49 -2 -129 -3t-140 -1t-141.5 -4.5t-143.5 -12t-134 -24.5t-124.5 -41t-104 -62t-84 -87t-52.5 -117.5t-21 -151.5q209 29 385 29zM995 1100q-154 0 -352 -30q-7 -74 -7 -199q0 -63 3 -114t12.5 -107t25.5 -98.5t43.5 -82.5t65 -66
t91.5 -41.5t121 -15.5q166 0 257.5 38t129.5 120t38 230q0 88 -19.5 152.5t-53.5 105.5t-89 65t-118 33.5t-148 9.5z" />
    <glyph glyph-name="seven" unicode="7" horiz-adv-x="1748" 
d="M1658 1905l-858 -1905h-519l916 1866h-1100v394h1328q129 0 199 -56.5t70 -154.5q0 -65 -36 -144z" />
    <glyph glyph-name="eight" unicode="8" horiz-adv-x="2020" 
d="M1012 2284q86 0 163 -6t161 -23t154 -44t134 -71.5t108.5 -102.5t70.5 -140t26 -182q0 -101 -13.5 -172t-49 -137t-98.5 -120.5t-163 -108.5q87 -49 148 -98.5t109.5 -114.5t72.5 -147.5t24 -185.5q0 -157 -44.5 -274.5t-118.5 -189t-186 -115.5t-230.5 -60t-267.5 -16
q-156 0 -281 19.5t-233.5 66t-181 120.5t-113.5 187t-41 261q0 101 22.5 180.5t71.5 143.5t110 113.5t153 102.5q-166 89 -245 214t-79 331q0 99 25.5 181t69.5 140t107.5 102.5t133 71.5t154 44t162.5 23.5t165 6.5zM1012 336q71 0 127 7.5t108 28t87 54t55.5 87.5
t20.5 126q0 73 -11.5 122t-42 90.5t-87 67.5t-142 45t-212.5 32q-304 -62 -304 -357q0 -73 20 -127t54 -87t86.5 -53.5t109.5 -28t131 -7.5zM1110 1347q154 40 222.5 107t68.5 204q0 68 -20 118t-52.5 80t-84.5 47.5t-106 23.5t-126 6q-70 0 -122.5 -5.5t-104 -23t-84 -47
t-52.5 -80t-20 -119.5q0 -56 10 -96.5t40 -80t82 -65t139.5 -44t209.5 -25.5z" />
    <glyph glyph-name="nine" unicode="9" horiz-adv-x="2022" 
d="M967 813q-162 0 -284 19t-228 67.5t-173 129t-105 206.5t-38 297q0 178 41.5 310t114 216t185 135t239.5 71t293 20q198 0 343.5 -43.5t237.5 -120.5t147.5 -198.5t76.5 -259.5t21 -322q0 -201 -11.5 -356.5t-40 -293.5t-73.5 -238t-115.5 -182.5t-162.5 -136t-217.5 -90
t-278 -52t-346.5 -15.5q-82 0 -279 5l-36 357q49 2 129 3t140 1t141.5 4.5t143.5 12t134 24.5t124.5 41t104 62t84 87t52.5 117.5t21 151.5q-209 -29 -385 -29zM1024 1160q154 0 352 30q7 74 7 199q0 63 -3 114t-12.5 107t-25.5 98.5t-43.5 82.5t-65 66t-91.5 41.5
t-121 15.5q-125 0 -205.5 -19.5t-130.5 -67t-70 -119t-20 -182.5q0 -109 28.5 -182.5t87 -113t132.5 -55t181 -15.5z" />
    <glyph glyph-name="colon" unicode=":" horiz-adv-x="987" 
d="M493 -24q-152 0 -207 55t-55 201t56 201t206 55t206.5 -55t56.5 -201t-55.5 -201t-207.5 -55zM493 1143q-152 0 -207 54.5t-55 201.5q0 146 56 201t206 55t206.5 -55t56.5 -201t-55.5 -201t-207.5 -55z" />
    <glyph glyph-name="semicolon" unicode=";" horiz-adv-x="983" 
d="M577 1143q-152 0 -207 54.5t-55 201.5q0 146 56 201t206 55t206.5 -55t56.5 -201t-55.5 -201t-207.5 -55zM113 -433l209 888h493l-339 -888h-363z" />
    <glyph glyph-name="less" unicode="&#x3c;" horiz-adv-x="2053" 
d="M125 810v338l1698 705v-396l-1169 -478l1169 -479v-396z" />
    <glyph glyph-name="equal" unicode="=" horiz-adv-x="2097" 
d="M221 431v379h1655v-379h-1655zM221 1147v379h1655v-379h-1655z" />
    <glyph glyph-name="greater" unicode="&#x3e;" horiz-adv-x="2053" 
d="M230 500l1168 479l-1168 478v396l1698 -705v-338l-1698 -706v396z" />
    <glyph glyph-name="question" unicode="?" horiz-adv-x="1769" 
d="M926 682h-389l-8 219q-3 57 -3 81q0 93 22 158t59 99.5t85.5 55t101.5 30t106.5 18.5t102 27t85.5 48.5t59 89.5t22 144q0 121 -39 185.5t-132 93t-268 28.5q-298 0 -557 -51l-79 367q331 79 690 79q93 0 167.5 -4t152 -14t138 -27.5t119.5 -45.5t102.5 -66t81 -91
t61 -119t36.5 -151t13 -186q0 -120 -19 -214.5t-62.5 -157.5t-80.5 -104t-107.5 -71t-106 -41t-111.5 -30q-81 -20 -119.5 -33t-75.5 -47t-39 -86zM470 227q0 140 57 195.5t205 55.5t205 -55.5t57 -195.5t-56.5 -195.5t-205.5 -55.5t-205.5 55.5t-56.5 195.5z" />
    <glyph glyph-name="at" unicode="@" horiz-adv-x="2970" 
d="M2764 1353q61 -203 61 -462q0 -313 -87 -541t-259 -370.5t-416 -210t-571 -67.5q-329 0 -573.5 67.5t-416.5 210t-258.5 370t-86.5 541.5q0 258 59 456.5t170 336.5t280 227t380 129t479 40q112 0 206 -17t178.5 -58.5t143.5 -105t93.5 -162t34.5 -224.5v-693
q0 -172 -16 -331q-111 -72 -299.5 -115.5t-401.5 -43.5q-241 0 -392 64.5t-218 186.5t-67 310q0 242 114.5 379.5t371.5 184.5q139 26 513 46q0 147 -60 202t-218 55q-185 0 -327.5 -25.5t-261.5 -87t-196 -160t-119 -247.5t-42 -347q0 -195 41 -343t116.5 -247t191.5 -161
t257.5 -88.5t323.5 -26.5q183 0 324.5 26.5t258 88.5t192 161t116 246.5t40.5 343.5q0 197 -42 351zM1786 921v314q-246 -7 -363 -41q-71 -20 -111.5 -39t-71.5 -52t-42.5 -81t-11.5 -122q0 -154 80 -210t257 -56q51 0 132 16.5t121 40.5q10 99 10 230z" />
    <glyph glyph-name="A" unicode="A" horiz-adv-x="2239" 
d="M539 0h-488l693 2029q58 168 152 246.5t231 78.5q270 0 380 -325l681 -2029h-502l-178 577h-795zM822 940h575l-290 942z" />
    <glyph glyph-name="B" unicode="B" horiz-adv-x="2139" 
d="M1011 2354q103 0 191 -6t186 -23.5t176 -46t151.5 -77.5t122 -114t78 -158t29.5 -208q0 -181 -88.5 -323.5t-255.5 -205.5q379 -128 379 -569q0 -114 -26.5 -207t-71.5 -159.5t-114 -116.5t-145.5 -81t-174 -50t-192 -26t-206.5 -7q-444 0 -797 63v2250
q148 28 352.5 46.5t405.5 18.5zM1027 1019h-305v-648q148 -20 316 -20q91 0 156.5 6.5t128.5 27t101.5 56t62 95t23.5 142.5q0 86 -25 148.5t-65 99t-105 58t-131.5 28.5t-156.5 7zM723 1362h304q87 0 151 6.5t125 27t99 54.5t61 92t23 138q0 58 -11.5 103t-31.5 76.5
t-53.5 54t-70 36t-89 21t-102 10t-117.5 2.5q-139 0 -288 -19v-602z" />
    <glyph glyph-name="C" unicode="C" horiz-adv-x="1873" 
d="M1715 412l43 -366q-260 -70 -609 -70q-194 0 -340.5 30t-254 95.5t-178.5 158t-114 230.5t-60.5 299t-17.5 376q0 160 9.5 289t32.5 245.5t59.5 206t91 164.5t127.5 126.5t168 87.5t213.5 53t263.5 17q346 0 609 -71l-42 -365q-245 40 -480 40q-83 0 -152 -9
t-122.5 -30.5t-95.5 -44.5t-72.5 -64t-52.5 -75.5t-35.5 -93t-22 -102t-12 -117t-4.5 -123t-1 -134.5q0 -124 2 -191t13 -165.5t32.5 -151t62.5 -116t101 -94.5t150.5 -53t208.5 -22q239 0 479 40z" />
    <glyph glyph-name="D" unicode="D" horiz-adv-x="2230" 
d="M947 1967q-101 0 -221 -16v-1572q113 -17 221 -17q129 0 227.5 23t164 54.5t110 97.5t67.5 118.5t34.5 153.5t13.5 166t2 190t-2 190t-13.5 165.5t-34.5 153.5t-67.5 118.5t-110 97t-164 54.5t-227.5 23zM253 40v2248q344 66 759 66q145 0 265 -15t216.5 -43.5t173 -74.5
t133.5 -102t98.5 -133t69 -160.5t43.5 -191.5t22.5 -219t6.5 -250t-6.5 -250t-22.5 -219t-43.5 -191.5t-69 -160.5t-98.5 -133t-133.5 -102t-173 -74.5t-216.5 -43.5t-265 -15q-413 0 -759 64z" />
    <glyph glyph-name="E" unicode="E" horiz-adv-x="1896" 
d="M1683 2319v-367h-643q-108 0 -169.5 -12t-98.5 -50t-48 -94.5t-11 -158.5v-264h926v-376h-926v-302q0 -68 4.5 -113.5t18.5 -83t35.5 -59t59.5 -36.5t87.5 -20t121.5 -5h643v-366q-369 -18 -633 -18q-108 0 -178.5 2.5t-164.5 15t-154 34.5t-125 64t-102 101.5t-61 148.5
t-24 203v1205q0 114 24 203t61 148.5t102.5 101t125 64t153.5 34.5t164 14.5t179 2.5q291 0 633 -17z" />
    <glyph glyph-name="F" unicode="F" horiz-adv-x="1800" 
d="M721 0h-473v1768q0 114 24.5 203t61 148.5t102 101t125.5 64t154 34.5t164 14.5t179 2.5q242 0 633 -17v-367h-643q-108 0 -169.5 -12t-98.5 -50t-48 -94.5t-11 -158.5v-264h926v-376h-926v-997z" />
    <glyph glyph-name="G" unicode="G" horiz-adv-x="2150" 
d="M1121 939v365h828v-873q0 -71 -13 -129t-34 -101.5t-58 -78t-75.5 -58t-96 -40t-109 -26t-126.5 -14.5t-136.5 -6.5t-148.5 -1.5q-166 0 -297 23t-232.5 67.5t-175 117.5t-124 165.5t-81 219t-43.5 270t-13 326.5q0 185 13 329.5t43.5 271.5t81 219t124 164t175.5 116
t232.5 66.5t296.5 22.5q411 0 745 -69l-41 -365q-267 41 -617 41q-83 0 -152 -9t-122.5 -30.5t-96 -45t-72.5 -64.5t-52.5 -76t-36 -93.5t-22 -102.5t-12 -117t-4.5 -123.5t-1 -134.5q0 -85 1 -135.5t4.5 -124t12 -117.5t22 -102.5t35.5 -93t52.5 -76t72.5 -64.5t95.5 -44.5
t122 -30.5t151.5 -9q89 0 143.5 12.5t80.5 41.5t33.5 61t7.5 88v368h-381z" />
    <glyph glyph-name="H" unicode="H" horiz-adv-x="2297" 
d="M1568 1384v946h476v-2330h-476v997h-840v-997h-474v2330h474v-946h840z" />
    <glyph glyph-name="I" unicode="I" horiz-adv-x="974" 
d="M250 0v2330h474v-2330h-474z" />
    <glyph glyph-name="J" unicode="J" horiz-adv-x="1407" 
d="M693 707v1623h476v-1556q0 -176 -21.5 -303t-71 -224t-133 -155t-203 -87t-286.5 -29q-103 0 -218.5 20t-193.5 56l40 354q167 -55 325 -55q45 0 84 9t77 34t65 63.5t43.5 102.5t16.5 147z" />
    <glyph glyph-name="K" unicode="K" horiz-adv-x="2112" 
d="M728 2330v-1080l775 1080h550l-836 -1115l850 -1215h-575l-764 1144v-1144h-474v2330h474z" />
    <glyph glyph-name="L" unicode="L" horiz-adv-x="1690" 
d="M1653 378v-368q-377 -16 -596 -16q-108 0 -178.5 2.5t-164.5 15t-154 34.5t-125 64t-102 101.5t-61 148.5t-24 203v1767h474v-1635q0 -103 11 -160t48 -95t98 -50t169 -12h605z" />
    <glyph glyph-name="M" unicode="M" horiz-adv-x="2796" 
d="M936 2060l458 -1163l463 1156q59 147 149 224t194 77q156 0 223.5 -78.5t75.5 -267.5l90 -2008h-456l-57 1670h-2l-418 -1143q-79 -217 -259 -217q-92 0 -156.5 53.5t-105.5 163.5l-431 1139h-2l-56 -1666h-439l93 2010q8 181 77.5 262.5t221.5 81.5q221 0 337 -294z" />
    <glyph glyph-name="N" unicode="N" horiz-adv-x="2361" 
d="M942 2048l740 -1427v1709h425v-1999q0 -355 -286 -355q-132 0 -222.5 68t-179.5 239l-739 1432v-1715h-425v2000q0 354 286 354q125 0 220 -70.5t181 -235.5z" />
    <glyph glyph-name="O" unicode="O" horiz-adv-x="2240" 
d="M1121 -24q-182 0 -321 29t-243 92.5t-174 156t-113.5 229t-62 301t-18.5 381.5t18.5 381.5t62 301t113.5 229t174 156t243 92.5t321 29t320.5 -29t242.5 -92.5t174 -156t113.5 -228.5t62 -301t18.5 -382t-18.5 -382t-62 -301t-113.5 -228.5t-174 -156t-242.5 -92.5
t-320.5 -29zM1121 366q73 0 132 13t103 32t78 57.5t56.5 73.5t38.5 95.5t24.5 108t12.5 128t5 138t1 153.5t-1 153.5t-5 138t-12.5 128t-24.5 108.5t-38.5 96t-56.5 73t-78 57.5t-103 32.5t-132 13t-132 -13t-103.5 -32.5t-78 -57.5t-56.5 -73t-39 -96t-24.5 -108.5
t-12.5 -128t-5 -138t-1 -153.5t1 -153.5t5 -138t12.5 -128t24.5 -108t39 -95.5t56.5 -73.5t78 -57.5t103.5 -32t132 -13z" />
    <glyph glyph-name="P" unicode="P" horiz-adv-x="2055" 
d="M726 872v-872h-472v2290q349 64 758 64q120 0 216 -7.5t196 -28t175 -55t143 -91t111.5 -133t69 -184t25.5 -241.5q0 -131 -23 -236.5t-63.5 -183.5t-104 -136t-137 -95.5t-169.5 -60.5t-195 -32t-219 -9q-146 0 -311 11zM726 1964v-718q104 -13 288 -13q118 0 199.5 17
t143.5 59t92 117.5t30 187.5q0 202 -100.5 286t-354.5 84q-150 0 -298 -20z" />
    <glyph glyph-name="Q" unicode="Q" horiz-adv-x="2240" 
d="M1121 -24q-182 0 -321 29t-243 92.5t-174 156t-113.5 229t-62 301t-18.5 381.5t18.5 381.5t62 301t113.5 229t174 156t243 92.5t321 29t320.5 -29t242.5 -92.5t174 -156t113.5 -228.5t62 -301t18.5 -382q0 -244 -24 -423.5t-79 -321t-147 -233.5t-226 -143q30 -44 67 -82
t68.5 -64.5t84 -59t87 -51.5t104.5 -56l-308 -220q-171 83 -211 106q-210 118 -307 281q-22 37 -40 78zM1572 1165q0 96 -1 153.5t-5 138t-12.5 128t-24.5 108.5t-38.5 96t-56.5 73t-78 57.5t-103 32.5t-132 13t-132 -13t-103.5 -32.5t-78 -57.5t-56.5 -73t-39 -96
t-24.5 -108.5t-12.5 -128t-5 -138t-1 -153.5t1 -153.5t5 -138t12.5 -128t24.5 -108t39 -95.5t56.5 -73.5t78 -57.5t103.5 -32t132 -13t132 13t103 32t78 57.5t56.5 73.5t38.5 95.5t24.5 108t12.5 128t5 138t1 153.5z" />
    <glyph glyph-name="R" unicode="R" horiz-adv-x="2146" 
d="M726 889v-889h-472v2290q349 64 758 64q119 0 215 -7.5t195.5 -28t175 -54.5t143.5 -90t112 -131.5t69.5 -182t25.5 -238.5q0 -152 -31 -269.5t-90.5 -199t-139.5 -135t-186 -85.5l532 -933h-544l-478 879q-121 0 -285 10zM726 1965v-700q105 -12 288 -12
q116 0 197.5 16.5t144.5 57.5t93.5 114.5t30.5 182.5q0 196 -102 278.5t-354 82.5q-150 0 -298 -20z" />
    <glyph glyph-name="S" unicode="S" horiz-adv-x="1843" 
d="M1103 1969q-51 0 -86.5 -1t-89 -6t-90.5 -14.5t-79 -27t-68 -42.5t-43 -63.5t-17 -86.5q0 -55 11.5 -97t36 -73t56 -53.5t79 -41t95.5 -32.5t115 -32q23 -6 35 -9q173 -47 288.5 -103.5t196.5 -140.5t117 -198.5t36 -272.5q0 -190 -56.5 -325.5t-169.5 -217t-270 -119
t-369 -37.5q-339 0 -673 72l46 373q356 -52 610 -52q98 0 166 12.5t122 44t80.5 89t26.5 143.5q0 45 -12 83t-24 64t-48.5 52.5t-54 39.5t-74 34.5t-75.5 27.5t-90 28l-9 3q-98 30 -169 56t-144.5 61t-124 72.5t-96 88.5t-72.5 111t-42.5 137.5t-15.5 170.5q0 187 54 317
t163.5 206.5t259 110t357.5 33.5q330 0 667 -73l-43 -363q-321 51 -513 51z" />
    <glyph glyph-name="T" unicode="T" horiz-adv-x="1736" 
d="M1677 2330v-382h-573v-1948h-475v1948h-570v382h1618z" />
    <glyph glyph-name="U" unicode="U" horiz-adv-x="2229" 
d="M1986 2330v-1545q0 -189 -41 -330t-113.5 -232t-184 -146.5t-240.5 -78t-295 -22.5q-167 0 -295.5 22.5t-240.5 78t-184.5 146.5t-113.5 232t-41 330v1545h467v-1571q0 -209 91.5 -297.5t316.5 -88.5q223 0 315 88.5t92 297.5v1571h467z" />
    <glyph glyph-name="V" unicode="V" horiz-adv-x="2149" 
d="M2101 2330l-665 -2039q-54 -166 -141.5 -240.5t-217.5 -74.5q-133 0 -218.5 72.5t-141.5 242.5l-668 2039h504l528 -1798l534 1798h486z" />
    <glyph glyph-name="W" unicode="W" horiz-adv-x="2965" 
d="M94 2330h476l315 -1779h2l279 1181q43 180 123 259t201 79q122 0 201.5 -79t121.5 -260l273 -1177h2l320 1776h464l-433 -2021q-38 -175 -118.5 -254t-211.5 -79q-135 0 -219 77.5t-126 253.5l-285 1190l-277 -1190q-77 -331 -344 -331q-132 0 -212.5 78.5t-118.5 253.5z
" />
    <glyph glyph-name="X" unicode="X" horiz-adv-x="2185" 
d="M1096 1578l466 752h511l-723 -1131l767 -1199h-545l-497 799l-483 -799h-525l758 1186l-730 1144h541z" />
    <glyph glyph-name="Y" unicode="Y" horiz-adv-x="2024" 
d="M1247 898v-898h-473v898l-750 1432h509l481 -966l494 966h491z" />
    <glyph glyph-name="Z" unicode="Z" horiz-adv-x="1890" 
d="M1684 1975l-946 -1583h996v-392h-1343q-129 0 -197.5 46.5t-68.5 133.5q0 79 58 175l951 1586h-941v389h1286q131 0 197.5 -47t66.5 -132q0 -77 -59 -176z" />
    <glyph glyph-name="bracketleft" unicode="[" horiz-adv-x="1091" 
d="M665 2068v-2268h324v-344h-738v2952h740v-340h-326z" />
    <glyph glyph-name="backslash" unicode="\" horiz-adv-x="1505" 
d="M1046 -268l-946 2680h380l945 -2680h-379z" />
    <glyph glyph-name="bracketright" unicode="]" horiz-adv-x="1091" 
d="M100 2068v340h740v-2952h-738v344h324v2268h-326z" />
    <glyph glyph-name="asciicircum" unicode="^" horiz-adv-x="1723" 
d="M692 2330h339l577 -1333h-395l-351 822l-352 -822h-396z" />
    <glyph glyph-name="underscore" unicode="_" horiz-adv-x="1670" 
d="M-10 -470v167h1690v-167h-1690z" />
    <glyph glyph-name="grave" unicode="`" horiz-adv-x="878" 
d="M451 1876l-429 535h459l310 -535h-340z" />
    <glyph glyph-name="a" unicode="a" horiz-adv-x="1854" 
d="M828 -24q-362 0 -524 139.5t-162 428.5q0 243 117 384t376 182q180 29 570 45q0 155 -77 226.5t-250 71.5q-269 0 -629 -46l-36 330q397 68 699 68q127 0 229 -15t197.5 -54t159.5 -102t102.5 -165t38.5 -237v-753q0 -167 -15 -338q-283 -165 -796 -165zM1205 600v265
q-14 -1 -66 -3.5t-74 -3.5t-67.5 -4.5t-73.5 -7t-64 -9t-66 -12.5q-83 -20 -127 -47t-66.5 -81t-22.5 -147q0 -134 73.5 -185.5t228.5 -51.5q202 0 314 48q11 99 11 239z" />
    <glyph glyph-name="b" unicode="b" horiz-adv-x="1949" 
d="M225 479v1990h444v-702q175 38 340 38q168 0 293 -29t221.5 -94t156.5 -171.5t90 -259.5t30 -360q0 -176 -21 -311t-66 -237t-111.5 -172t-162.5 -113.5t-213 -62.5t-269 -19q-194 0 -384.5 41t-332.5 124q-15 171 -15 338zM669 1416v-806q0 -140 11 -239
q100 -47 277 -47q79 0 141.5 17t103.5 43.5t70.5 72t45 88t24 108t10.5 114.5t2 124q0 85 -2 134.5t-10.5 117.5t-25.5 107t-48.5 83.5t-77.5 67.5t-114.5 38.5t-157.5 15.5q-125 0 -249 -39z" />
    <glyph glyph-name="c" unicode="c" horiz-adv-x="1584" 
d="M1402 379l39 -335q-270 -68 -583 -68q-125 0 -226 27t-172 73.5t-123.5 116.5t-84.5 146.5t-51 175t-25.5 190t-6.5 202.5q0 131 9.5 234t33 198.5t63 166t100 129t143 95t193.5 56t250 19.5q255 0 477 -68l-36 -326q-211 41 -323 41q-79 0 -139 -5.5t-108.5 -20.5
t-81.5 -34.5t-57.5 -54t-38.5 -72t-22.5 -96t-11 -117.5t-2.5 -145q0 -100 2.5 -158.5t11.5 -128t28 -106.5t52 -77t83.5 -58t121 -30t166.5 -12q111 0 319 42z" />
    <glyph glyph-name="d" unicode="d" horiz-adv-x="1953" 
d="M1281 1767v702h444v-1990q0 -167 -15 -338q-143 -83 -333 -124t-384 -41q-152 0 -269 19t-213 62.5t-162.5 113.5t-111.5 172t-66 237t-21 311q0 207 30 360t90 259.5t156.5 171.5t221.5 94t293 29q165 0 340 -38zM1281 1416q-124 39 -249 39q-90 0 -158.5 -15.5
t-114.5 -38.5t-77.5 -67.5t-48 -83t-25.5 -107t-10.5 -118t-1.5 -134.5q0 -75 2 -124t10.5 -114.5t24 -108t45 -88t70.5 -72t103.5 -43.5t141.5 -17q175 0 277 47q11 99 11 239v806z" />
    <glyph glyph-name="e" unicode="e" horiz-adv-x="1906" 
d="M924 -24q-177 0 -311 45.5t-219 124t-137.5 196.5t-73.5 250t-21 299q0 247 41 416t135.5 282.5t246 164.5t376.5 51q138 0 248 -21t191.5 -58.5t142 -97.5t99 -130t62 -163.5t32.5 -190.5t9 -219q0 -71 -6 -143q-146 -27 -398 -53t-445 -36l-293 -15q6 -103 35.5 -171.5
t85.5 -106t127 -53t173 -15.5q268 0 642 47l37 -335q-412 -68 -779 -68zM590 982l306 15q227 12 400 35q4 27 4 71q0 182 -78 272t-261 90q-96 0 -164 -24.5t-108 -64t-62.5 -105t-29.5 -131t-7 -158.5z" />
    <glyph glyph-name="f" unicode="f" horiz-adv-x="1259" 
d="M818 1938v-157h366v-338h-366v-1443h-443v1443h-294v338h294v155q0 269 144 413t430 144q127 0 272 -19l-33 -311h-137q-233 0 -233 -225z" />
    <glyph glyph-name="g" unicode="g" horiz-adv-x="1957" 
d="M263 -605l36 329q370 -52 646 -52q177 0 260 81.5t83 247.5v53q-177 -38 -340 -38q-209 0 -353 44.5t-245 148.5t-147.5 276t-46.5 425q0 205 32.5 356t96.5 254.5t167.5 166.5t236 90.5t311.5 27.5q194 0 384 -41t332 -124q15 -155 15 -338v-1405q0 -136 -38.5 -238.5
t-103 -166t-160.5 -103t-199 -54.5t-230 -15q-312 0 -737 75zM1000 1457q-77 0 -137.5 -16.5t-102 -43t-71 -69t-46.5 -85.5t-26.5 -103.5t-12 -111t-2.5 -118.5q0 -61 1 -101.5t6 -92.5t13.5 -86t24 -74.5t37.5 -66t55 -51t75.5 -40t98.5 -23.5t125 -9q126 0 250 39v766
q0 140 -11 239q-102 47 -277 47z" />
    <glyph glyph-name="h" unicode="h" horiz-adv-x="1978" 
d="M1776 0h-445v1084q0 68 -5 115t-19 90.5t-39.5 70t-66.5 47t-100 29t-140 8.5q-155 0 -287 -56v-1388h-444v2469h444v-721q191 57 396 57q105 0 193 -11.5t155 -31t120 -51t90.5 -66t64.5 -82.5t42.5 -94t25 -106t12.5 -114t3 -122v-1127z" />
    <glyph glyph-name="i" unicode="i" horiz-adv-x="915" 
d="M457 1991q-149 0 -205.5 55.5t-56.5 195.5t57 195.5t205 55.5t205 -55.5t57 -195.5t-56.5 -195.5t-205.5 -55.5zM234 0v1781h447v-1781h-447z" />
    <glyph glyph-name="j" unicode="j" horiz-adv-x="923" 
d="M238 -37v1818h447v-1755q0 -194 -41 -327.5t-130.5 -218t-223.5 -122.5t-327 -38q-70 0 -120 5l36 329q50 5 84 10.5t75 16t67.5 24t54 36.5t43 53t25.5 72.5t10 96.5zM461 1991q-148 0 -204.5 55.5t-56.5 195.5t57 195.5t204 55.5q148 0 205 -55.5t57 -195.5
t-56.5 -195.5t-205.5 -55.5z" />
    <glyph glyph-name="k" unicode="k" horiz-adv-x="1858" 
d="M672 2469v-1467l608 779h509l-669 -820l704 -961h-538l-614 886v-886h-442v2469h442z" />
    <glyph glyph-name="l" unicode="l" horiz-adv-x="884" 
d="M197 453v2016h445v-1983q0 -119 28.5 -208t95.5 -182l-392 -184q-89 103 -133 231.5t-44 309.5z" />
    <glyph glyph-name="m" unicode="m" horiz-adv-x="2850" 
d="M668 1163v-1163h-442v1302q0 167 15 338q147 79 346 122t408 43q277 0 430 -102q268 102 544 102q120 0 215.5 -18.5t163.5 -50t117.5 -81.5t79.5 -104t48 -125.5t24 -139t6 -152.5v-1134h-443v1094q0 92 -12.5 154t-46 109.5t-94 69.5t-152.5 22q-137 0 -254 -59
q24 -107 24 -256v-1134h-443v1094q0 72 -7.5 124.5t-27 98t-52.5 73.5t-85 43.5t-124 15.5q-57 0 -121.5 -13.5t-105.5 -33.5q-11 -99 -11 -239z" />
    <glyph glyph-name="n" unicode="n" horiz-adv-x="1967" 
d="M667 1163v-1163h-442v1302q0 167 15 338q311 165 798 165q135 0 241 -17.5t180 -47.5t127.5 -79t84.5 -101t48.5 -126t23 -141.5t5.5 -158.5v-1134h-442v1094q0 67 -5 113.5t-18.5 89.5t-38 69.5t-63.5 46.5t-95 28.5t-133 8.5q-173 0 -275 -48q-11 -99 -11 -239z" />
    <glyph glyph-name="o" unicode="o" horiz-adv-x="1926" 
d="M962 -24q-222 0 -372 48.5t-246 159.5t-138 282t-42 425q0 202 27 350.5t84.5 257.5t152.5 175.5t225.5 98.5t308.5 32q222 0 373 -50t246.5 -162t137.5 -282t42 -420q0 -251 -42 -421.5t-138 -282t-246.5 -161.5t-372.5 -50zM962 334q108 0 174.5 25.5t108 91.5t57 169
t15.5 271q0 167 -15.5 270t-57 169.5t-108 92t-174.5 25.5q-72 0 -123.5 -10t-92 -36t-65.5 -65.5t-41.5 -103.5t-23 -145.5t-6.5 -196.5t6.5 -197t23 -146t41.5 -103.5t65.5 -65t92 -35.5t123.5 -10z" />
    <glyph glyph-name="p" unicode="p" horiz-adv-x="1951" 
d="M670 14v-670h-443v1958q0 183 15 338q143 83 333 124t384 41q183 0 316 -28t236 -92t165.5 -170.5t94 -260t31.5 -364.5q0 -207 -30.5 -360t-90 -259.5t-156.5 -171.5t-222 -94t-293 -29q-163 0 -340 38zM670 365q124 -39 250 -39q89 0 157.5 15.5t114.5 38.5t77.5 67.5
t48.5 83.5t25.5 107t10.5 117.5t2 134.5q0 75 -2 124t-10.5 114.5t-24 108t-45 88t-70.5 72t-103.5 43.5t-141.5 17q-176 0 -278 -47q-11 -99 -11 -239v-806z" />
    <glyph glyph-name="q" unicode="q" horiz-adv-x="1952" 
d="M1725 1302v-1958h-444v670q-175 -38 -340 -38q-168 0 -293 29t-221.5 94t-156.5 171.5t-90 259.5t-30 360q0 176 21 311t66 237t111.5 172t162.5 113.5t213 62.5t269 19q194 0 384 -41t333 -124q15 -171 15 -338zM1281 1171q0 140 -11 239q-102 47 -277 47
q-79 0 -141.5 -17t-103.5 -43.5t-70.5 -72t-45 -88t-24 -108t-10.5 -114.5t-2 -124q0 -85 1.5 -134.5t10.5 -118t25.5 -107t48 -83t77.5 -67.5t114.5 -38.5t158.5 -15.5q125 0 249 39v806z" />
    <glyph glyph-name="r" unicode="r" horiz-adv-x="1202" 
d="M664 0h-441v1302q0 183 15 338q142 83 332 124t384 41q96 0 181 -9l-36 -356q-52 7 -128 7q-82 0 -163.5 -14.5t-132.5 -40.5q-11 -99 -11 -239v-1153z" />
    <glyph glyph-name="s" unicode="s" horiz-adv-x="1633" 
d="M970 1459q-41 0 -65 -0.5t-66 -3.5t-68.5 -8.5t-59 -16.5t-51.5 -27t-32 -40.5t-13 -56.5t10 -59t31 -47t42.5 -35t56.5 -28.5t60.5 -22t66.5 -20.5t63 -20q194 -66 246 -89q162 -71 230 -180q69 -111 69 -290q0 -123 -36 -217.5t-97 -155t-152 -98.5t-192 -53t-225 -15
q-155 0 -327.5 20.5t-307.5 56.5l42 330q287 -54 485 -54q156 0 223 17q138 36 138 154q0 35 -8.5 63t-27.5 49t-37 35t-52 27t-55.5 20t-63.5 18.5t-63 17.5q-78 24 -120 38t-111 42.5t-107.5 54t-87 68.5t-73.5 91t-43 115.5t-18 147.5q0 118 32.5 208t88.5 148t138.5 95
t174 52t203.5 15q186 0 333.5 -17.5t319.5 -56.5l-42 -324q-262 52 -452 52z" />
    <glyph glyph-name="t" unicode="t" horiz-adv-x="1300" 
d="M370 2212l443 72v-503h358v-337h-358v-921q0 -111 49.5 -158.5t161.5 -47.5q74 0 150 6l34 -316q-173 -31 -305 -31q-278 0 -405.5 123t-127.5 379v966h-291v337h291v431z" />
    <glyph glyph-name="u" unicode="u" horiz-adv-x="1958" 
d="M215 647v1134h443v-1094q0 -67 4.5 -114t18 -89.5t38 -69t63 -46.5t94 -28.5t131.5 -8.5q168 0 272 48q11 99 11 239v1163h441v-1302q0 -183 -15 -338q-309 -165 -794 -165q-105 0 -192.5 10.5t-154.5 29.5t-120 49t-90.5 64t-65 80.5t-43.5 92.5t-25.5 106t-12.5 114.5
t-3 124.5z" />
    <glyph glyph-name="v" unicode="v" horiz-adv-x="1900" 
d="M1832 1781l-548 -1533q-50 -140 -132.5 -206t-202.5 -66t-202 66t-132 206l-546 1533h468l422 -1334l422 1334h451z" />
    <glyph glyph-name="w" unicode="w" horiz-adv-x="2709" 
d="M90 1781h452l276 -1326l251 901q41 147 113 217t180 70t180 -70.5t113 -216.5l250 -897l277 1322h437l-388 -1511q-75 -294 -309 -294q-232 0 -320 293l-249 822l-242 -821q-87 -294 -322 -294q-119 0 -196 71.5t-116 224.5z" />
    <glyph glyph-name="x" unicode="x" horiz-adv-x="1954" 
d="M992 1248l353 533h477l-599 -853l648 -928h-519l-394 589l-388 -589h-488l645 919l-600 862h509z" />
    <glyph glyph-name="y" unicode="y" horiz-adv-x="1835" 
d="M968 682l348 1099h452l-829 -2437h-452l280 781l-716 1656h471z" />
    <glyph glyph-name="z" unicode="z" horiz-adv-x="1807" 
d="M1588 1484l-814 -1123h820v-361h-1266q-86 0 -134.5 39.5t-48.5 106.5q0 71 59 154l820 1135h-810v346h1250q84 0 133 -39.5t49 -106.5q0 -70 -58 -151z" />
    <glyph glyph-name="braceleft" unicode="{" horiz-adv-x="1100" 
d="M748 352v-167q0 -52 1.5 -86t7 -77.5t16.5 -72t31 -59.5t48.5 -50.5t70.5 -34.5t97 -22l-37 -307q-113 9 -196 25.5t-158.5 47.5t-125.5 79t-87 118.5t-54 167.5t-17 224q0 121 -4 206t-14 159t-27 121t-44 82.5t-64 52.5t-88 22v305q51 5 88 22t64 52t44 82.5t27 121.5
t14 159.5t4 205.5q0 127 17 223.5t54 167t87 118.5t125.5 79t158.5 47.5t196 25.5l37 -306q-55 -7 -97 -22.5t-70.5 -34.5t-48.5 -50t-31 -59.5t-16.5 -72t-7 -77.5t-1.5 -87v-167q0 -209 -18 -305q-40 -214 -192 -277q57 -28 97.5 -79t62 -106t33.5 -131t14.5 -132
t2.5 -132z" />
    <glyph glyph-name="bar" unicode="|" horiz-adv-x="864" 
d="M250 -656v3125h365v-3125h-365z" />
    <glyph glyph-name="braceright" unicode="}" horiz-adv-x="1101" 
d="M997 1086v-305q-51 -5 -88 -22t-64 -52.5t-44 -82.5t-27 -121t-14 -159t-4 -206q0 -127 -17 -224t-54.5 -167.5t-87.5 -118.5t-125 -79t-158 -47.5t-196 -25.5l-38 307q48 6 86.5 17.5t66 30t48 38.5t33.5 50t21 56t12 65t5 69.5t1 75.5v167q0 76 2.5 132t14.5 132
t33.5 131t62 106t97.5 79q-34 14 -62.5 36.5t-49 46t-36.5 58t-26 63t-17.5 72t-11 72t-5.5 76.5t-2 73.5v72.5v12v167q0 46 -1 76.5t-5 69.5t-12 65t-21 56t-33.5 50t-48 38.5t-66 30t-86.5 17.5l38 306q96 -8 170 -21t142.5 -36t118 -57t90.5 -83.5t65.5 -115.5t38 -152.5
t13.5 -195.5q0 -120 4 -205.5t14 -159.5t27 -121.5t44 -82.5t64 -52t88 -22z" />
    <glyph glyph-name="asciitilde" unicode="~" horiz-adv-x="2050" 
d="M1522 1385h365q-14 -163 -58 -290.5t-110 -208t-147 -121.5t-174 -41q-111 0 -201.5 29.5t-149 71t-108.5 83t-105 71t-114 29.5q-145 0 -192 -271h-365q28 321 162.5 490.5t326.5 169.5q110 0 201 -29.5t149.5 -71t109 -83t105.5 -71t113 -29.5q143 0 192 272z" />
    <glyph glyph-name="uni00A0" unicode="&#xa0;" horiz-adv-x="850" 
 />
    <glyph glyph-name="exclamdown" unicode="&#xa1;" horiz-adv-x="956" 
d="M478 1281q-148 0 -205 55.5t-57 195.5t56.5 195.5t205.5 55.5t205.5 -55.5t56.5 -195.5t-57 -195.5t-205 -55.5zM217 -571l70 1648h383l70 -1648h-523z" />
    <glyph glyph-name="cent" unicode="&#xa2;" horiz-adv-x="1474" 
d="M1336 635l37 -326q-189 -47 -386 -60v-306h-295v307q-99 12 -179.5 45.5t-137 81.5t-99 115t-68 138.5t-41 161t-21 172.5t-5.5 182q0 130 9.5 231t33 195t64.5 163.5t101 125t146 91t197 51.5v314h295v-301q196 -7 383 -65l-34 -316q-215 41 -312 41q-69 0 -122.5 -5
t-97.5 -14.5t-76.5 -27.5t-57.5 -39t-41.5 -55t-27 -69t-16.5 -88t-8 -105.5t-2 -126.5q0 -97 2.5 -153.5t11.5 -124t27.5 -104t50.5 -75t80.5 -56t117.5 -29t162 -11.5q107 0 309 42z" />
    <glyph glyph-name="sterling" unicode="&#xa3;" horiz-adv-x="1985" 
d="M454 975h-322v336h275q-20 160 -20 329q0 150 43 264t115.5 185.5t179.5 116t223 61.5t258 17q81 0 148.5 -8.5t125.5 -29t102 -41.5t94 -59t84 -68t88 -82l-231 -274q-104 92 -192.5 136t-206.5 44q-109 0 -181 -19.5t-114 -63t-59 -104t-17 -150.5q0 -103 17 -254h491
v-336h-457q5 -87 5 -161q0 -87 -27.5 -208t-65.5 -220h396q301 0 568 42l39 -358q-121 -31 -334 -50.5t-442 -19.5h-522q-115 0 -171.5 50t-56.5 129q0 37 18.5 84.5t45 99t53 111.5t45 142.5t18.5 171.5q0 86 -13 187z" />
    <glyph glyph-name="currency" unicode="&#xa4;" horiz-adv-x="2126" 
d="M1729 705l247 -238l-257 -256l-245 248q-193 -117 -412 -117q-226 0 -415 116l-245 -248l-253 257l247 240q-118 185 -118 407q0 226 119 416l-248 244l253 253l248 -249q190 117 412 117q224 0 412 -114l245 245l257 -252l-248 -240q124 -191 124 -420q0 -222 -123 -409
zM1062 698q108 0 203.5 54.5t154 151t58.5 211.5q0 175 -120.5 299.5t-295.5 124.5q-168 0 -290 -123t-122 -301q0 -170 119.5 -293.5t292.5 -123.5z" />
    <glyph glyph-name="yen" unicode="&#xa5;" horiz-adv-x="1903" 
d="M555 2260l398 -922l413 922h447l-467 -1019h243v-275h-369l-43 -94v-121h412v-271h-412v-480h-455v480h-408v271h408v122l-43 93h-365v275h240l-464 1019h465z" />
    <glyph glyph-name="brokenbar" unicode="&#xa6;" horiz-adv-x="799" 
d="M217 -471v1076h365v-1076h-365zM217 1209v1075h365v-1075h-365z" />
    <glyph glyph-name="section" unicode="&#xa7;" horiz-adv-x="1862" 
d="M1105 1499q59 -24 97.5 -40.5t96 -43.5t96.5 -50t88 -56.5t81.5 -65.5t66.5 -75.5t54 -88.5t32.5 -101t12.5 -117q0 -261 -264 -431q142 -145 142 -342q0 -128 -47 -229t-122.5 -164t-179.5 -104.5t-210 -58t-222 -16.5q-187 0 -337 17t-321 57l43 333q286 -56 560 -56
h52.5t54.5 2t59 5t55 9.5t54.5 16.5t44 25t37.5 34.5t22.5 47t9.5 60.5q0 42 -20 79t-53.5 65.5t-83 55.5t-102 49.5t-115.5 48.5q-7 3 -11 4q-85 34 -131.5 54t-125 59t-123 72t-101.5 85t-87 106.5t-51.5 129t-21.5 158.5q0 141 69.5 252.5t187.5 190.5q-120 136 -120 306
q0 255 186 413.5t509 158.5q187 0 336.5 -17.5t322.5 -57.5l-42 -325q-292 56 -562 56q-149 0 -229.5 -50.5t-80.5 -148.5q0 -31 12 -60t30.5 -52.5t51 -47.5t61.5 -41.5t75 -39.5t78.5 -36t84.5 -35zM796 775q59 -28 193 -74.5t199 -78.5q134 79 134 203q0 90 -70.5 161.5
t-231.5 145.5q-49 23 -172 68.5t-187 78.5q-60 -34 -95.5 -87.5t-35.5 -122.5q0 -85 61 -155.5t205 -138.5z" />
    <glyph glyph-name="dieresis" unicode="&#xa8;" horiz-adv-x="1449" 
d="M388 1901q-93 0 -158 63t-65 156t65 156.5t158 63.5q92 0 153.5 -63.5t61.5 -156.5t-61.5 -156t-153.5 -63zM1068 1901q-93 0 -157 63t-64 156t64 156.5t157 63.5t154.5 -63.5t61.5 -156.5t-61.5 -156t-154.5 -63z" />
    <glyph glyph-name="copyright" unicode="&#xa9;" horiz-adv-x="2659" 
d="M1633 969h276q-21 -227 -182.5 -365t-384.5 -138q-120 0 -219.5 35t-171 98t-120.5 151t-73 193.5t-24 225.5q0 135 39.5 258.5t114 221.5t192 156.5t262.5 58.5q95 0 187 -28.5t172 -83.5t136.5 -146.5t71.5 -207.5h-276q-18 112 -96 173t-195 61q-142 0 -228 -124
t-86 -339q0 -216 83 -337t231 -121q110 0 190 69.5t101 188.5zM1330 2354q242 0 462 -93.5t379.5 -252t253.5 -378t94 -461.5t-94 -463t-253.5 -381t-379.5 -254.5t-462 -94.5t-462 94.5t-379.5 254.5t-253.5 381t-94 463t94 461.5t253.5 378t379.5 252t462 93.5zM1330 2105
q-193 0 -364.5 -72.5t-295 -197t-195.5 -298t-72 -368.5q0 -197 72 -372.5t195.5 -300.5t295 -197.5t364.5 -72.5t364.5 72.5t295 197.5t195.5 300.5t72 372.5q0 195 -72 368.5t-195.5 298t-295 197t-364.5 72.5z" />
    <glyph glyph-name="ordfeminine" unicode="&#xaa;" horiz-adv-x="1391" 
d="M636 1043q-250 0 -362.5 96t-112.5 293q0 331 341 387q114 19 388 29q0 109 -52.5 158.5t-168.5 49.5q-185 0 -435 -32l-24 224q276 47 482 47q87 0 158 -10t136.5 -37t110 -70t71 -113t26.5 -162v-515q0 -120 -10 -230q-197 -115 -548 -115zM890 1470v183
q-203 -9 -278 -27q-82 -20 -113.5 -58.5t-31.5 -131.5t49.5 -128.5t154.5 -35.5q135 0 214 33q5 85 5 165z" />
    <glyph glyph-name="guillemotleft" unicode="&#xab;" horiz-adv-x="1881" 
d="M544 862l444 -690h-414l-489 690l489 690h414zM1311 862l443 -690h-414l-489 690l489 690h414z" />
    <glyph glyph-name="logicalnot" unicode="&#xac;" horiz-adv-x="2080" 
d="M1833 1340v-1048h-398v669h-1257v379h1655z" />
    <glyph glyph-name="uni00AD" unicode="&#xad;" horiz-adv-x="1298" 
d="M209 708v356h880v-356h-880z" />
    <glyph glyph-name="registered" unicode="&#xae;" horiz-adv-x="1697" 
d="M761 1561v-308h-182v790h287q164 0 238.5 -60.5t74.5 -178.5q0 -166 -143 -214l165 -337h-204l-147 308h-89zM126 1633q0 147 57 281t154 230t231 153t281 57t280.5 -57t230.5 -153t154 -230t57 -281t-57 -281.5t-154 -231.5t-230.5 -154.5t-280.5 -57.5t-281 57.5
t-231 154.5t-154 231.5t-57 281.5zM1391 1633q0 152 -71.5 278t-196 198t-274.5 72t-275 -72t-196.5 -198t-71.5 -278q0 -234 157 -393t386 -159t385.5 159t156.5 393zM842 1891h-81v-178h84q81 0 118 22.5t37 68.5q0 47 -37 67t-121 20z" />
    <glyph glyph-name="macron" unicode="&#xaf;" horiz-adv-x="1438" 
d="M208 1975v277h1021v-277h-1021z" />
    <glyph glyph-name="degree" unicode="&#xb0;" horiz-adv-x="1306" 
d="M652 1298q-143 0 -264.5 71t-192.5 192.5t-71 264.5t71 264.5t192.5 192.5t264.5 71t265 -71t193 -192.5t71 -264.5t-71 -264.5t-193 -192.5t-265 -71zM652 1551q116 0 196 80t80 195t-80.5 195t-195.5 80t-195 -80t-80 -195t80 -195t195 -80z" />
    <glyph glyph-name="plusminus" unicode="&#xb1;" horiz-adv-x="1969" 
d="M788 1438v521h395v-521h629v-376h-629v-523h-395v523h-631v376h631zM157 -2v378h1655v-378h-1655z" />
    <glyph glyph-name="twosuperior" unicode="&#xb2;" horiz-adv-x="1176" 
d="M137 2445l-29 235q256 49 460 49q88 0 159.5 -9.5t136 -34t107.5 -64t68.5 -101.5t25.5 -144q0 -184 -99.5 -307.5t-302.5 -203.5q-121 -48 -166 -101t-59 -147h626v-259h-980q14 79 22.5 124t21.5 106t23.5 95.5t26.5 81t32 73t39 61t48.5 56.5t59.5 47.5t73 46t88 41.5
q126 53 178.5 104t52.5 135q0 90 -61 119t-235 29q-122 0 -316 -32z" />
    <glyph glyph-name="threesuperior" unicode="&#xb3;" horiz-adv-x="1155" 
d="M524 2731q72 0 131 -5.5t119.5 -19.5t105.5 -40.5t81 -65t55 -96t19 -130.5q0 -201 -172 -299q98 -43 145.5 -113t47.5 -178q0 -124 -36.5 -210t-108.5 -135.5t-168 -71t-226 -21.5q-179 0 -435 49l33 236q238 -32 353 -32q144 0 203.5 34.5t59.5 140.5q0 144 -124 159
q-109 14 -276 14h-43v224q160 4 318 26q58 9 84.5 45.5t26.5 102.5q0 37 -11 62.5t-28.5 40t-47 22.5t-58 10.5t-70.5 2.5q-122 0 -376 -33l-31 233q254 48 429 48z" />
    <glyph glyph-name="acute" unicode="&#xb4;" horiz-adv-x="878" 
d="M87 1876l310 535h460l-430 -535h-340z" />
    <glyph glyph-name="mu" unicode="&#xb5;" horiz-adv-x="2124" 
d="M271 -656v2437h410v-1075q0 -167 80 -269.5t224 -102.5q387 0 387 672v775h412v-1091v-70.5t1.5 -63t4 -61t8 -52.5t13 -49.5t19.5 -40t27.5 -37t36.5 -26.5t47 -22v-292q-386 0 -492 302q-87 -156 -201.5 -229t-265.5 -73q-183 0 -302 121v-753h-409z" />
    <glyph glyph-name="paragraph" unicode="&#xb6;" horiz-adv-x="2156" 
d="M1208 2041v-2554h-335v1439q-224 7 -403 102t-277 250t-98 339q0 235 108.5 396.5t304.5 239t470 77.5h919v-2843h-333v2554h-356z" />
    <glyph glyph-name="periodcentered" unicode="&#xb7;" horiz-adv-x="929" 
d="M464 699q-152 0 -207 54.5t-55 201.5q0 146 56 201t206 55t206.5 -55t56.5 -201t-55.5 -201t-207.5 -55z" />
    <glyph glyph-name="cedilla" unicode="&#xb8;" horiz-adv-x="732" 
d="M100 -311l185 311h243l-120 -188q104 -11 180.5 -75t76.5 -164q0 -76 -32.5 -133.5t-88.5 -91t-124 -49.5t-147 -16q-72 0 -148 20t-134 55l64 171q114 -57 214 -57q49 0 83.5 21.5t34.5 68.5q0 36 -30.5 62.5t-77.5 39.5t-92 19t-87 6z" />
    <glyph glyph-name="onesuperior" unicode="&#xb9;" horiz-adv-x="808" 
d="M339 1361v1054q-118 -27 -292 -47l-14 241q207 30 377 108h239v-1356h-310z" />
    <glyph glyph-name="ordmasculine" unicode="&#xba;" horiz-adv-x="1423" 
d="M710 1043q-302 0 -426 142t-124 485q0 342 124 483.5t426 141.5q303 0 427.5 -143t124.5 -482q0 -340 -124.5 -483.5t-427.5 -143.5zM710 1286q59 0 98.5 11.5t68 37t44 71.5t22.5 108.5t7 155.5q0 224 -49 303t-191 79q-73 0 -117 -16t-72.5 -61t-38.5 -116t-10 -189
q0 -119 10 -190.5t38.5 -116.5t72.5 -61t117 -16z" />
    <glyph glyph-name="guillemotright" unicode="&#xbb;" horiz-adv-x="1881" 
d="M1030 862l-488 -690h-414l443 690l-443 690h414zM1796 862l-488 -690h-415l445 690l-445 690h415z" />
    <glyph glyph-name="onequarter" unicode="&#xbc;" horiz-adv-x="2536" 
d="M1950 0v299h-425q-109 0 -153.5 40t-44.5 116q0 85 100 214l444 573q58 75 108.5 102t118.5 27q70 0 114.5 -44t44.5 -127v-664h163v-237h-163v-299h-307zM465 2328h239v-1357h-310v1054q-125 -28 -292 -46l-14 240q214 32 377 109zM2061 2378l-1368 -2426h-307
l1368 2426h307zM1648 536h303v406z" />
    <glyph glyph-name="onehalf" unicode="&#xbd;" horiz-adv-x="2821" 
d="M1748 1087l-29 235q258 49 460 49q89 0 160 -9.5t135 -34t107.5 -63.5t68.5 -101.5t25 -144.5q0 -184 -99.5 -307.5t-302.5 -203.5q-120 -48 -165 -101t-59 -147h626v-259h-979q24 132 37.5 198.5t38 152.5t50.5 129.5t69.5 95.5t100.5 87t138 69q125 53 177.5 104
t52.5 135q0 90 -61.5 119t-234.5 29q-133 0 -316 -32zM93 2219q214 32 377 109h239v-1357h-310v1054q-124 -28 -292 -46zM1758 2378h308l-1368 -2426h-307z" />
    <glyph glyph-name="threequarters" unicode="&#xbe;" horiz-adv-x="2768" 
d="M2185 0v299h-426q-109 0 -153.5 40t-44.5 116q0 85 100 214l445 573q58 75 108 102t118 27q70 0 114.5 -44t44.5 -127v-664h163v-237h-163v-299h-306zM567 2342q87 0 156.5 -8t138.5 -31.5t114.5 -62t74 -104t28.5 -152.5q0 -199 -172 -298q97 -44 144.5 -113.5
t47.5 -177.5q0 -124 -36 -210t-108.5 -135.5t-167.5 -71t-226 -21.5q-174 0 -436 48l33 237q245 -33 353 -33q144 0 203.5 35t59.5 141q0 144 -123 159q-109 14 -276 14h-43v224q174 4 318 26q110 17 110 148q0 36 -11 61.5t-28 40t-46.5 22.5t-58 10.5t-70.5 2.5
q-130 0 -377 -32l-31 232q251 49 429 49zM2297 2378l-1368 -2426h-307l1367 2426h308zM1882 536h304v406z" />
    <glyph glyph-name="questiondown" unicode="&#xbf;" horiz-adv-x="1769" 
d="M843 1077h389l8 -219q3 -57 3 -81q0 -93 -22 -158t-59 -99.5t-85.5 -55t-102 -30t-106.5 -18.5t-101.5 -27t-85.5 -48.5t-59 -89.5t-22 -144q0 -121 39 -185.5t132 -93t268 -28.5q298 0 557 51l79 -367q-331 -79 -690 -79q-93 0 -167.5 4t-152 14t-138 27.5t-119.5 45.5
t-102.5 66t-81 91t-61 119t-36.5 151t-13 186q0 128 24.5 227.5t65.5 160.5t94.5 105t113 67t119 39.5t113.5 29.5t96.5 30t68 48t27.5 77zM775 1532q0 140 56.5 195.5t205.5 55.5t205.5 -55.5t56.5 -195.5t-57 -195.5t-205 -55.5t-205 55.5t-57 195.5z" />
    <glyph glyph-name="Agrave" unicode="&#xc0;" horiz-adv-x="2238" 
d="M538 0h-487l693 2029q58 169 152 247t231 78q269 0 379 -325l682 -2029h-502l-178 577h-796zM951 2560l-461 433h492l332 -433h-363zM822 940h575l-290 942z" />
    <glyph glyph-name="Aacute" unicode="&#xc1;" horiz-adv-x="2239" 
d="M539 0h-487l692 2029q58 168 152 246.5t231 78.5q270 0 380 -325l682 -2029h-502l-178 577h-796zM940 2540l331 433h492l-460 -433h-363zM822 940h575l-290 942z" />
    <glyph glyph-name="Acircumflex" unicode="&#xc2;" horiz-adv-x="2239" 
d="M539 0h-487l692 2029q58 168 152 246.5t231 78.5q270 0 380 -325l682 -2029h-502l-178 577h-796zM981 2974h273l422 -435h-351l-203 231l-209 -231h-346zM822 940h575l-290 942z" />
    <glyph glyph-name="Atilde" unicode="&#xc3;" horiz-adv-x="2239" 
d="M1366 2957h232q-15 -196 -100 -302.5t-195 -106.5q-56 0 -103 18t-76.5 44t-53.5 52t-48 44t-47 18q-75 0 -101 -168h-232q15 196 100 303t195 107q57 0 103.5 -18t76 -44t53.5 -52t48 -44t47 -18q75 0 101 167zM52 0l692 2029q58 168 152 246.5t231 78.5q270 0 380 -325
l682 -2029h-502l-178 577h-796l-174 -577h-487zM1397 940l-290 942l-285 -942h575z" />
    <glyph glyph-name="Adieresis" unicode="&#xc4;" horiz-adv-x="2239" 
d="M539 0h-488l693 2029q58 168 152 246.5t231 78.5q270 0 380 -325l682 -2029h-503l-178 577h-795zM784 2532q-93 0 -158 63t-65 156t65 156.5t158 63.5t154.5 -63.5t61.5 -156.5t-61.5 -156t-154.5 -63zM1464 2532q-93 0 -157 63t-64 156t64 156.5t157 63.5t155 -63.5
t62 -156.5t-62 -156t-155 -63zM822 940h575l-290 942z" />
    <glyph glyph-name="Aring" unicode="&#xc5;" horiz-adv-x="2239" 
d="M539 0h-487l692 2029q58 168 152 246.5t231 78.5q270 0 380 -325l682 -2029h-502l-178 577h-796zM1121 2508q-144 0 -246.5 102t-102.5 246q0 145 102.5 247t246.5 102t246.5 -102t102.5 -247q0 -144 -102.5 -246t-246.5 -102zM1121 2685q71 0 121.5 50t50.5 121
t-50.5 122t-121.5 51t-121.5 -51t-50.5 -122t50.5 -121t121.5 -50zM822 940h575l-290 942z" />
    <glyph glyph-name="AE" unicode="&#xc6;" horiz-adv-x="3048" 
d="M539 0h-488l690 2009q36 104 92.5 174t133.5 106.5t158.5 50.5t188.5 14q207 0 346 -91q98 46 225.5 59.5t316.5 13.5q293 0 633 -17v-367h-643q-108 0 -169.5 -12t-98.5 -50t-48 -94.5t-11 -158.5v-264h927v-376h-927v-302q0 -68 4.5 -113.5t18.5 -83t35.5 -59
t59.5 -36.5t87.5 -20t121.5 -5h643v-366q-367 -18 -633 -18q-108 0 -178.5 2.5t-164.5 15t-154 34.5t-125 64t-102 101.5t-61 148.5t-24 203v14h-677zM1091 1800l-264 -860h566v841q0 96 -32 139t-99 43q-65 0 -105.5 -40t-65.5 -123z" />
    <glyph glyph-name="Ccedilla" unicode="&#xc7;" horiz-adv-x="1873" 
d="M1757 2283l-41 -365q-245 40 -480 40q-83 0 -152 -9t-122.5 -30.5t-95.5 -44.5t-72.5 -64t-52.5 -75.5t-35.5 -93t-22 -102t-12 -117t-4.5 -123t-1 -134.5q0 -109 1.5 -168t8.5 -148.5t22.5 -138t41.5 -112.5t68.5 -98t101 -67.5t140.5 -47t186 -13.5q239 0 479 40
l42 -366q-215 -59 -514 -68l-96 -150q104 -11 180.5 -75t76.5 -163q0 -77 -32 -134.5t-88 -91t-124.5 -49.5t-147.5 -16q-72 0 -148 20t-134 55l64 171q114 -57 214 -57q50 0 84 21.5t34 68.5q0 36 -30.5 62.5t-77.5 40t-92 19.5t-87 6l164 275q-140 10 -251 40t-197 79
t-148.5 123t-105.5 165t-69 212.5t-37 257.5t-11 307q0 160 9.5 289t32.5 245.5t59.5 206t91 164.5t127.5 126.5t168 87.5t213.5 53t263.5 17q347 0 608 -71z" />
    <glyph glyph-name="Egrave" unicode="&#xc8;" horiz-adv-x="1896" 
d="M1683 2319v-367h-643q-108 0 -169.5 -12t-98.5 -50t-48 -94.5t-11 -158.5v-264h927v-376h-927v-302q0 -68 4.5 -113.5t18.5 -83t35.5 -59t59.5 -36.5t87.5 -20t121.5 -5h643v-366q-367 -18 -633 -18q-108 0 -178.5 2.5t-164.5 15t-154 34.5t-125 64t-102 101.5t-61 148.5
t-24 203v1205q0 114 24 203t61 148.5t102.5 101t125 64t153.5 34.5t164 14.5t179 2.5q291 0 633 -17zM981 2522l-460 433h491l332 -433h-363z" />
    <glyph glyph-name="Eacute" unicode="&#xc9;" horiz-adv-x="1896" 
d="M1683 2319v-367h-643q-108 0 -169.5 -12t-98.5 -50t-48 -94.5t-11 -158.5v-264h927v-376h-927v-302q0 -68 4.5 -113.5t18.5 -83t35.5 -59t59.5 -36.5t87.5 -20t121.5 -5h643v-366q-367 -18 -633 -18q-108 0 -178.5 2.5t-164.5 15t-154 34.5t-125 64t-102 101.5t-61 148.5
t-24 203v1205q0 114 24 203t61 148.5t102.5 101t125 64t153.5 34.5t164 14.5t179 2.5q293 0 633 -17zM757 2522l332 433h492l-460 -433h-364z" />
    <glyph glyph-name="Ecircumflex" unicode="&#xca;" horiz-adv-x="1897" 
d="M1684 2319v-367h-644q-72 0 -121 -5t-87 -20t-60 -36t-35.5 -58.5t-18 -82.5t-4.5 -113v-264h926v-376h-926v-302q0 -82 7.5 -132.5t26.5 -89.5t57.5 -58t93 -28t141.5 -9h644v-366q-369 -18 -634 -18q-108 0 -178.5 2.5t-164.5 15t-154 34.5t-125 64t-102 101.5
t-61 148.5t-24 203v1205q0 114 24 203t61 148.5t102.5 101t125 64t153.5 34.5t164 14.5t179 2.5q292 0 634 -17zM873 2956h273l422 -435h-351l-203 231l-209 -231h-346z" />
    <glyph glyph-name="Edieresis" unicode="&#xcb;" horiz-adv-x="1897" 
d="M1684 2319v-367h-644q-72 0 -121 -5t-87 -20t-60 -36t-35.5 -58.5t-18 -82.5t-4.5 -113v-264h926v-376h-926v-302q0 -82 7.5 -132.5t26.5 -89.5t57.5 -58t93 -28t141.5 -9h644v-366q-369 -18 -634 -18q-108 0 -178.5 2.5t-164.5 15t-154 34.5t-125 64t-102 101.5
t-61 148.5t-24 203v1205q0 114 24 203t61 148.5t102.5 101t125 64t153.5 34.5t164 14.5t179 2.5q292 0 634 -17zM679 2516q-93 0 -158 63t-65 156t65 156.5t158 63.5q92 0 153.5 -63.5t61.5 -156.5t-61.5 -156t-153.5 -63zM1359 2516q-93 0 -157 63t-64 156t64 156.5
t157 63.5t155 -63.5t62 -156.5t-62 -156t-155 -63z" />
    <glyph glyph-name="Igrave" unicode="&#xcc;" horiz-adv-x="975" 
d="M250 0v2330h475v-2330h-475zM328 2529l-460 434h491l332 -434h-363z" />
    <glyph glyph-name="Iacute" unicode="&#xcd;" horiz-adv-x="975" 
d="M250 0v2330h475v-2330h-475zM284 2530l332 433h491l-460 -433h-363z" />
    <glyph glyph-name="Icircumflex" unicode="&#xce;" horiz-adv-x="975" 
d="M347 2948h273l422 -435h-350l-203 231l-209 -231h-346zM250 0v2330h475v-2330h-475z" />
    <glyph glyph-name="Idieresis" unicode="&#xcf;" horiz-adv-x="975" 
d="M150 2509q-93 0 -157.5 63t-64.5 156t64.5 156.5t157.5 63.5t154.5 -63.5t61.5 -156.5t-61.5 -156t-154.5 -63zM830 2509q-93 0 -157 63t-64 156t64 156.5t157 63.5t155 -63.5t62 -156.5t-62 -156t-155 -63zM250 0v2330h475v-2330h-475z" />
    <glyph glyph-name="Eth" unicode="&#xd0;" horiz-adv-x="2304" 
d="M326 1045h-181v310h181v933q344 66 760 66q145 0 265 -15t216.5 -43.5t173 -74.5t133.5 -102t98.5 -133t69 -160.5t43.5 -191.5t22.5 -219t6.5 -250t-6.5 -250t-22.5 -219t-43.5 -191.5t-69 -160.5t-98.5 -133t-133.5 -102t-173 -74.5t-216.5 -43.5t-265 -15
q-414 0 -760 64v1005zM800 1045v-666q113 -17 221 -17q129 0 227.5 23t163.5 54.5t109.5 97.5t68 119t35 153t13.5 166t2 190t-2 190t-13.5 166t-35 153t-68 118.5t-109.5 97.5t-163.5 54.5t-227.5 22.5q-101 0 -221 -16v-596h338v-310h-338z" />
    <glyph glyph-name="Ntilde" unicode="&#xd1;" horiz-adv-x="2361" 
d="M942 2048l740 -1427v1709h425v-1999q0 -355 -286 -355q-132 0 -222.5 68t-179.5 239l-739 1432v-1715h-425v2000q0 354 286 354q125 0 220 -70.5t181 -235.5zM1436 2955h232q-14 -196 -99.5 -302.5t-195.5 -106.5q-56 0 -103 18t-76.5 44t-53.5 52t-48 44t-47 18
q-75 0 -101 -168h-232q15 196 100.5 303t194.5 107q57 0 103.5 -18t76 -44t53.5 -52t48 -44t47 -18q75 0 101 167z" />
    <glyph glyph-name="Ograve" unicode="&#xd2;" horiz-adv-x="2240" 
d="M1121 -24q-182 0 -320.5 29t-243 92.5t-174.5 156t-113.5 228.5t-62 301t-18.5 382t18.5 382t62 301t113.5 228.5t174.5 156t243 92.5t320.5 29t320.5 -29t243 -92.5t174 -156t113 -229t62 -301t18.5 -381.5t-18.5 -381.5t-62 -301t-113 -229t-174 -156t-243 -92.5
t-320.5 -29zM1121 366q73 0 132 13t103.5 32t78 57.5t56.5 73.5t39 95.5t24.5 108t12.5 128t5 138t1 153.5t-1 153.5t-5 138t-12.5 128t-24.5 108.5t-39 96t-56.5 73t-78 57.5t-103.5 32.5t-132 13t-132 -13t-103 -32.5t-78 -57.5t-56.5 -73t-38.5 -96t-24.5 -108.5
t-12.5 -128t-5 -138t-1 -153.5t1 -153.5t5 -138t12.5 -128t24.5 -108t38.5 -95.5t56.5 -73.5t78 -57.5t103 -32t132 -13zM1038 2529l-460 433h491l332 -433h-363z" />
    <glyph glyph-name="Oacute" unicode="&#xd3;" horiz-adv-x="2240" 
d="M1121 -24q-182 0 -321 29t-243 92.5t-174 156t-113.5 229t-62 301t-18.5 381.5t18.5 381.5t62 301t113.5 229t174 156t243 92.5t321 29t320.5 -29t242.5 -92.5t174 -156t113.5 -228.5t62 -301t18.5 -382t-18.5 -382t-62 -301t-113.5 -228.5t-174 -156t-242.5 -92.5
t-320.5 -29zM1121 366q73 0 132 13t103 32t78 57.5t56.5 73.5t38.5 95.5t24.5 108t12.5 128t5 138t1 153.5t-1 153.5t-5 138t-12.5 128t-24.5 108.5t-38.5 96t-56.5 73t-78 57.5t-103 32.5t-132 13t-132 -13t-103.5 -32.5t-78 -57.5t-56.5 -73t-39 -96t-24.5 -108.5
t-12.5 -128t-5 -138t-1 -153.5t1 -153.5t5 -138t12.5 -128t24.5 -108t39 -95.5t56.5 -73.5t78 -57.5t103.5 -32t132 -13zM858 2529l332 433h491l-459 -433h-364z" />
    <glyph glyph-name="Ocircumflex" unicode="&#xd4;" horiz-adv-x="2241" 
d="M1121 -24q-182 0 -320.5 29t-243 92.5t-174.5 156t-113.5 228.5t-62 301t-18.5 382t18.5 382t62 301t113.5 228.5t174.5 156t243 92.5t320.5 29t321 -29t243 -92.5t174 -156t113.5 -229t62 -301t18.5 -381.5t-18.5 -381.5t-62 -301t-113.5 -229t-174 -156t-243 -92.5
t-321 -29zM1121 366q73 0 132 13t103.5 32t78 57.5t56.5 73.5t39 95.5t24.5 108t12.5 128t5 138t1 153.5t-1 153.5t-5 138t-12.5 128t-24.5 108.5t-39 96t-56.5 73t-78 57.5t-103.5 32.5t-132 13t-132 -13t-103 -32.5t-78 -57.5t-56.5 -73t-38.5 -96t-24.5 -108.5
t-12.5 -128t-5 -138t-1 -153.5t1 -153.5t5 -138t12.5 -128t24.5 -108t38.5 -95.5t56.5 -73.5t78 -57.5t103 -32t132 -13zM981 2963h273l422 -435h-350l-204 231l-208 -231h-346z" />
    <glyph glyph-name="Otilde" unicode="&#xd5;" horiz-adv-x="2240" 
d="M1367 2930h232q-15 -196 -100 -302.5t-195 -106.5q-56 0 -103 18t-76.5 44t-53.5 52t-48 44t-47 18q-75 0 -101 -168h-232q15 196 100 303t195 107q57 0 103.5 -18t76 -44t53.5 -52t48 -44t47 -18q75 0 101 167zM1121 2354q182 0 320.5 -29t243 -92.5t174 -156t113 -229
t62 -301t18.5 -381.5t-18.5 -381.5t-62 -301t-113 -229t-174 -156t-243 -92.5t-320.5 -29t-320.5 29t-243 92.5t-174.5 156t-113.5 228.5t-62 301t-18.5 382t18.5 382t62 301t113.5 228.5t174.5 156t243 92.5t320.5 29zM1121 1965q-73 0 -132 -13t-103 -32.5t-78 -57.5
t-56.5 -73t-38.5 -96t-24.5 -108.5t-12.5 -128t-5 -138t-1 -153.5t1 -153.5t5 -138t12.5 -128t24.5 -108t38.5 -95.5t56.5 -73.5t78 -57.5t103 -32t132 -13t132 13t103.5 32t78 57.5t56.5 73.5t39 95.5t24.5 108t12.5 128t5 138t1 153.5t-1 153.5t-5 138t-12.5 128
t-24.5 108.5t-39 96t-56.5 73t-78 57.5t-103.5 32.5t-132 13z" />
    <glyph glyph-name="Odieresis" unicode="&#xd6;" horiz-adv-x="2240" 
d="M785 2502q-93 0 -158 63t-65 156t65 156.5t158 63.5q92 0 153.5 -63.5t61.5 -156.5t-61.5 -156t-153.5 -63zM1121 -24q-182 0 -321 29t-243 92.5t-174 156t-113.5 229t-62 301t-18.5 381.5t18.5 381.5t62 301t113.5 229t174 156t243 92.5t321 29t320.5 -29t243 -92.5
t174 -156t113 -229t62 -301t18.5 -381.5t-18.5 -381.5t-62 -301t-113 -229t-174 -156t-243 -92.5t-320.5 -29zM1121 366q73 0 132 13t103 32.5t78 57.5t57 73t38.5 95.5t24 108t13 128t5.5 138t1 153.5t-1 153.5t-5.5 138t-13 128t-24 108.5t-38.5 96t-57 73t-78 57.5
t-103 32.5t-132 13t-132 -13t-103 -32.5t-78 -57.5t-56.5 -73t-38.5 -96t-24.5 -108.5t-12.5 -128t-5 -138t-1 -153.5t1 -153.5t5 -138t12.5 -128t24.5 -108t38.5 -95.5t56.5 -73.5t78 -57.5t103 -32t132 -13zM1465 2502q-93 0 -157 63t-64 156t64 156.5t157 63.5
t154.5 -63.5t61.5 -156.5t-61.5 -156t-154.5 -63z" />
    <glyph glyph-name="multiply" unicode="&#xd7;" horiz-adv-x="1772" 
d="M1144 981l486 -486l-257 -261l-488 487l-485 -487l-258 258l486 486l-486 487l262 257l484 -484l485 485l254 -258z" />
    <glyph glyph-name="Oslash" unicode="&#xd8;" horiz-adv-x="2240" 
d="M687 37l-146 -267l-273 171l148 272q-122 138 -174.5 369t-52.5 583q0 217 18.5 381.5t62 301t113.5 229t174 156t243 92.5t321 29q257 0 433 -61l146 267l274 -171l-149 -273q122 -138 174.5 -369t52.5 -582q0 -217 -18.5 -382t-62 -301t-113.5 -228.5t-174 -156
t-242.5 -92.5t-320.5 -29q-258 0 -434 61zM1121 1965q-73 0 -132 -13t-103 -32.5t-78 -57.5t-56.5 -73t-38.5 -96t-24.5 -108.5t-12.5 -128t-5 -138t-1 -153.5q0 -316 23 -446l657 1202q-93 44 -229 44zM1549 1612l-658 -1202q90 -44 230 -44q73 0 132 13t103 32.5t78 57.5
t57 73t38.5 95.5t24 108t13 128t5.5 138t1 153.5q0 312 -24 447z" />
    <glyph glyph-name="Ugrave" unicode="&#xd9;" horiz-adv-x="2229" 
d="M1986 2330v-1545q0 -189 -41 -330t-113.5 -232t-184 -146.5t-240.5 -78t-295 -22.5q-167 0 -295.5 22.5t-240.5 78t-184.5 146.5t-113.5 232t-41 330v1545h467v-1571q0 -209 91.5 -297.5t316.5 -88.5q223 0 315 88.5t92 297.5v1571h467zM1021 2513l-460 433h491l332 -433
h-363z" />
    <glyph glyph-name="Uacute" unicode="&#xda;" horiz-adv-x="2229" 
d="M1986 2330v-1545q0 -189 -41 -330t-113.5 -232t-184 -146.5t-240.5 -78t-295 -22.5q-167 0 -295.5 22.5t-240.5 78t-184.5 146.5t-113.5 232t-41 330v1545h467v-1571q0 -209 91.5 -297.5t316.5 -88.5q223 0 315 88.5t92 297.5v1571h467zM858 2513l332 433h491l-460 -433
h-363z" />
    <glyph glyph-name="Ucircumflex" unicode="&#xdb;" horiz-adv-x="2229" 
d="M1986 2330v-1545q0 -189 -41 -330t-113.5 -232t-184.5 -146.5t-240.5 -78t-295.5 -22.5q-166 0 -295 22.5t-240.5 78t-184 146.5t-113.5 232t-41 330v1545h467v-1571q0 -209 91.5 -297.5t315.5 -88.5t316 88.5t92 297.5v1571h467zM988 2947h273l421 -435h-350l-203 231
l-209 -231h-346z" />
    <glyph glyph-name="Udieresis" unicode="&#xdc;" horiz-adv-x="2229" 
d="M1986 2330v-1545q0 -189 -41 -330t-113.5 -232t-184 -146.5t-240.5 -78t-295 -22.5q-167 0 -295.5 22.5t-240.5 78t-184.5 146.5t-113.5 232t-41 330v1545h467v-1571q0 -209 91.5 -297.5t316.5 -88.5q223 0 315 88.5t92 297.5v1571h467zM775 2510q-94 0 -158.5 63
t-64.5 156t64.5 156.5t158.5 63.5q92 0 153.5 -63.5t61.5 -156.5t-61.5 -156t-153.5 -63zM1454 2510q-93 0 -157 63t-64 156t64 156.5t157 63.5t155 -63.5t62 -156.5t-62 -156t-155 -63z" />
    <glyph glyph-name="Yacute" unicode="&#xdd;" horiz-adv-x="2024" 
d="M1247 898v-898h-473v898l-750 1432h510l480 -966l495 966h491zM774 2503l331 433h492l-460 -433h-363z" />
    <glyph glyph-name="Thorn" unicode="&#xde;" horiz-adv-x="2009" 
d="M228 0v2330h473v-389q133 10 286 10q119 0 214 -7t195 -26.5t175 -52.5t144 -88t113 -129.5t69.5 -180t25.5 -236.5q0 -128 -23 -231.5t-64.5 -179t-105.5 -132t-137.5 -92.5t-169.5 -58t-194.5 -30.5t-217.5 -8.5q-130 0 -310 10v-509h-473zM701 1561v-678
q103 -13 287 -13q116 0 197 15.5t144.5 55t94 111.5t30.5 179q0 192 -102 271t-353 79q-150 0 -298 -20z" />
    <glyph glyph-name="germandbls" unicode="&#xdf;" horiz-adv-x="2115" 
d="M667 1569v-1569h-445v1569q0 251 46 424.5t148 286t258 163t382 50.5q207 0 363.5 -44t251.5 -123.5t141.5 -183t46.5 -229.5q0 -95 -28.5 -171t-74 -124.5t-100.5 -88t-110 -70t-100.5 -59.5t-74 -67.5t-28.5 -84.5q0 -47 22.5 -82t61 -57t88.5 -40.5t104.5 -38.5
t109.5 -44t105 -63t88.5 -90t61 -131t22.5 -181q0 -119 -31 -212t-85.5 -155t-133 -102.5t-168.5 -58t-197 -17.5q-124 0 -277 22t-277 60l38 329q272 -59 435 -59q246 0 246 182q0 57 -22.5 99t-60.5 68.5t-87 47.5t-103.5 40.5t-109 42.5t-103.5 59t-87 84.5t-60.5 125
t-22.5 174.5q0 94 28.5 166.5t73.5 117.5t100 80.5t110 65t100 61t73.5 78t28.5 107.5q0 93 -87.5 150t-264.5 57q-147 0 -231 -51.5t-124 -174.5t-40 -339z" />
    <glyph glyph-name="agrave" unicode="&#xe0;" horiz-adv-x="1854" 
d="M829 -24q-362 0 -524.5 139.5t-162.5 428.5q0 243 117 384t376 182q180 29 571 45q0 155 -77.5 226.5t-250.5 71.5q-270 0 -628 -46l-37 330q399 68 699 68q127 0 229 -15t197.5 -54t159.5 -102t102.5 -165t38.5 -237v-753q0 -183 -15 -338q-283 -165 -795 -165z
M1206 600v265q-14 -1 -66.5 -3.5t-74 -3.5t-67.5 -4.5t-73.5 -7t-63.5 -9t-66 -12.5q-123 -29 -169.5 -84t-46.5 -191q0 -134 73.5 -185.5t227.5 -51.5q201 0 315 48q11 99 11 239zM816 2539l310 -535h-339l-430 535h459z" />
    <glyph glyph-name="aacute" unicode="&#xe1;" horiz-adv-x="1854" 
d="M829 -24q-362 0 -524.5 139.5t-162.5 428.5q0 243 117 384t376 182q180 29 571 45q0 155 -77.5 226.5t-249.5 71.5q-271 0 -629 -46l-36 330q397 68 698 68q127 0 229 -15t197.5 -54t159.5 -102t102.5 -165t38.5 -237v-753q0 -183 -15 -338q-283 -165 -795 -165z
M1206 600v265q-14 -1 -66.5 -3.5t-74 -3.5t-67.5 -4.5t-73.5 -7t-63.5 -9t-66 -12.5q-123 -29 -169.5 -84t-46.5 -191q0 -134 73.5 -185.5t227.5 -51.5q201 0 315 48q11 99 11 239zM1469 2536l-430 -535h-339l310 535h459z" />
    <glyph glyph-name="acircumflex" unicode="&#xe2;" horiz-adv-x="1854" 
d="M828 -24q-362 0 -524 139.5t-162 428.5q0 243 117 384t376 182q181 29 571 45q0 155 -77.5 226.5t-250.5 71.5q-269 0 -629 -46l-36 330q397 68 699 68q127 0 229 -15t197.5 -54t159.5 -102t102.5 -165t38.5 -237v-753q0 -167 -15 -338q-283 -165 -796 -165zM1206 600
v265q-14 -1 -66.5 -3.5t-74 -3.5t-67.5 -4.5t-74 -7t-64 -9t-66 -12.5q-83 -20 -126.5 -47t-66 -81t-22.5 -147q0 -134 73 -185.5t228 -51.5q201 0 315 48q11 99 11 239zM1453 1991h-328l-190 284l-195 -284h-324l387 536h255z" />
    <glyph glyph-name="atilde" unicode="&#xe3;" horiz-adv-x="1854" 
d="M828 -24q-362 0 -524 139.5t-162 428.5q0 243 117 384t376 182q180 29 570 45q0 155 -77 226.5t-250 71.5q-269 0 -629 -46l-36 330q397 68 698 68q127 0 229.5 -15t198 -54t159.5 -102t102.5 -165t38.5 -237v-753q0 -167 -15 -338q-283 -165 -796 -165zM1176 2477h232
q-15 -204 -100 -315t-195 -111q-48 0 -89 13.5t-67.5 33.5t-51.5 44t-42 44t-37.5 33.5t-40.5 13.5q-75 0 -101 -174h-232q15 204 100 315t195 111q57 0 103.5 -18.5t76 -45.5t53.5 -54t48 -45.5t47 -18.5q76 0 101 174zM578 550q0 -134 73.5 -185.5t228.5 -51.5
q202 0 314 48q11 99 11 239v265q-14 -1 -66 -3.5t-74 -3.5t-67.5 -4.5t-73.5 -7t-64 -9t-66 -12.5q-83 -20 -127 -47t-66.5 -81t-22.5 -147z" />
    <glyph glyph-name="adieresis" unicode="&#xe4;" horiz-adv-x="1854" 
d="M828 -24q-362 0 -524 139.5t-162 428.5q0 243 117 384t376 182q180 29 571 45q0 155 -77.5 226.5t-250.5 71.5q-270 0 -628 -46l-37 330q399 68 699 68q127 0 229 -15t197.5 -54t159.5 -102t102.5 -165t38.5 -237v-753q0 -167 -15 -338q-283 -165 -796 -165zM1206 600
v265q-14 -1 -66.5 -3.5t-74 -3.5t-67.5 -4.5t-73.5 -7t-63.5 -9t-66 -12.5q-123 -29 -169.5 -84t-46.5 -191q0 -134 73 -185.5t228 -51.5q201 0 315 48q11 99 11 239zM597 2474q93 0 154.5 -63.5t61.5 -156.5t-61.5 -156t-154.5 -63t-157.5 63t-64.5 156t64.5 156.5
t157.5 63.5zM1277 2474q93 0 155 -63.5t62 -156.5t-62 -156t-155 -63t-157 63t-64 156t64 156.5t157 63.5z" />
    <glyph glyph-name="aring" unicode="&#xe5;" horiz-adv-x="1854" 
d="M829 -24q-362 0 -524.5 139.5t-162.5 428.5q0 243 117 384t376 182q180 29 571 45q0 155 -77.5 226.5t-250.5 71.5q-270 0 -628 -46l-36 330q397 68 698 68q127 0 229 -15t197.5 -54t159.5 -102t102.5 -165t38.5 -237v-753q0 -183 -15 -338q-283 -165 -795 -165z
M1206 600v265q-14 -1 -66.5 -3.5t-74 -3.5t-67.5 -4.5t-73.5 -7t-63.5 -9t-66 -12.5q-123 -29 -169.5 -84t-46.5 -191q0 -134 73.5 -185.5t227.5 -51.5q201 0 315 48q11 99 11 239zM921 2658q144 0 246.5 -102t102.5 -247q0 -144 -102.5 -246t-246.5 -102t-246.5 102
t-102.5 246q0 145 102.5 247t246.5 102zM921 2482q-71 0 -121.5 -51t-50.5 -122t50.5 -121t121.5 -50t121.5 50t50.5 121t-50.5 122t-121.5 51z" />
    <glyph glyph-name="ae" unicode="&#xe6;" horiz-adv-x="2950" 
d="M2710 379l37 -335q-412 -68 -779 -68q-282 0 -452 112q-260 -112 -687 -112q-362 0 -524.5 139.5t-162.5 428.5q0 243 117 384t376 182q180 29 571 45q0 155 -77 226.5t-250 71.5q-269 0 -629 -46l-36 330q397 68 698 68q375 0 548 -143q181 143 545 143q138 0 248 -21
t191.5 -58.5t142 -97.5t99 -130t62 -163.5t32.5 -190.5t9 -219q0 -71 -6 -143q-149 -27 -401.5 -53.5t-441.5 -35.5l-294 -15q6 -102 35.5 -171t86 -106.5t127.5 -53t172 -15.5q269 0 643 47zM1206 865q-14 -1 -66.5 -3.5t-74 -3.5t-67.5 -4.5t-73.5 -7t-63.5 -9t-66 -12.5
q-123 -29 -169.5 -84t-46.5 -191q0 -134 73.5 -185.5t228.5 -51.5q200 0 314 48q11 99 11 239v265zM2340 1032q4 27 4 71q0 182 -78 272t-261 90q-96 0 -164 -24.5t-108 -64t-62.5 -105t-29.5 -131t-7 -158.5l305 15q225 12 401 35z" />
    <glyph glyph-name="ccedilla" unicode="&#xe7;" horiz-adv-x="1583" 
d="M1438 1737l-36 -326q-211 41 -323 41q-80 0 -140 -5.5t-108 -20.5t-81.5 -34.5t-58 -54t-38.5 -72t-22.5 -96t-11 -117.5t-2.5 -145q0 -100 2.5 -158.5t11.5 -128t28.5 -106.5t52.5 -77t83.5 -58t121 -30t166.5 -12q109 0 319 42l39 -335q-191 -47 -396 -62l-98 -154
q104 -11 180 -75t76 -164q0 -76 -32 -133.5t-88 -91t-124 -49.5t-147 -16q-73 0 -149 20t-134 55l64 171q114 -57 214 -57q50 0 84 21.5t34 68.5q0 36 -30.5 62.5t-77.5 39.5t-92 19t-87 6l162 273q-114 6 -206.5 37t-157.5 78.5t-113 117.5t-77 145t-47 170.5t-24 184.5
t-6 196q0 131 9.5 234t33 198.5t63 166t100 129t143 95t193.5 56t250 19.5q253 0 477 -68z" />
    <glyph glyph-name="egrave" unicode="&#xe8;" horiz-adv-x="1905" 
d="M924 -24q-177 0 -311 45.5t-219 124t-137.5 196.5t-73.5 250t-21 299q0 248 40.5 416.5t135 282t246.5 164.5t377 51q138 0 248 -21t191.5 -58.5t141.5 -97.5t98.5 -130t62 -163.5t32.5 -190.5t9 -219q0 -83 -5 -143q-148 -27 -401 -53.5t-442 -35.5l-294 -15
q6 -102 35.5 -171t86 -106.5t127.5 -53t172 -15.5q268 0 642 47l38 -335q-415 -68 -779 -68zM590 982l305 15q225 12 401 35q4 27 4 71q0 182 -78 272t-261 90q-96 0 -164 -24.5t-108 -64t-62.5 -105t-29.5 -131t-7 -158.5zM933 2539l311 -535h-340l-430 535h459z" />
    <glyph glyph-name="eacute" unicode="&#xe9;" horiz-adv-x="1906" 
d="M924 -24q-177 0 -310.5 45.5t-218.5 124t-138 196.5t-74 250.5t-21 298.5q0 247 41 416t135.5 282.5t246.5 164.5t377 51q137 0 247.5 -21t191.5 -59t141.5 -97.5t99 -129.5t62 -163.5t32.5 -191t9 -218.5q0 -71 -6 -143q-146 -27 -398 -53t-445 -36l-293 -15
q6 -103 35.5 -171.5t85.5 -106t127 -53t173 -15.5q268 0 642 47l37 -335q-412 -68 -779 -68zM590 982l306 15q227 12 400 35q4 27 4 71q0 182 -78 272t-260 90q-80 0 -141 -15.5t-101.5 -48t-66.5 -72.5t-39.5 -98.5t-18.5 -115t-5 -133.5zM1543 2531l-430 -535h-340
l311 535h459z" />
    <glyph glyph-name="ecircumflex" unicode="&#xea;" horiz-adv-x="1906" 
d="M924 -24q-177 0 -310.5 45.5t-218.5 124t-138 196.5t-74 250.5t-21 298.5q0 247 41 416t135.5 282.5t246.5 164.5t377 51q137 0 247.5 -21t191.5 -59t141.5 -97.5t99 -129.5t62 -163.5t32.5 -191t9 -218.5q0 -71 -6 -143q-146 -27 -398 -53t-445 -36l-293 -15
q6 -103 35.5 -171.5t85.5 -106t127 -53t173 -15.5q268 0 642 47l37 -335q-412 -68 -779 -68zM591 982l305 15q225 12 401 35q3 30 3 71q0 183 -77.5 272.5t-260.5 89.5q-96 0 -164 -24.5t-108 -64t-62.5 -105t-29.5 -131t-7 -158.5zM1503 1991h-327l-190 284l-196 -284h-323
l387 536h255z" />
    <glyph glyph-name="edieresis" unicode="&#xeb;" horiz-adv-x="1906" 
d="M924 -24q-177 0 -310.5 45.5t-218.5 124t-138 196.5t-74 250.5t-21 298.5q0 247 41 416t135.5 282.5t246.5 164.5t377 51q137 0 247.5 -21t191.5 -59t141.5 -97.5t99 -129.5t62 -163.5t32.5 -191t9 -218.5q0 -71 -6 -143q-146 -27 -398 -53t-445 -36l-293 -15
q6 -103 35.5 -171.5t85.5 -106t127 -53t173 -15.5q268 0 642 47l37 -335q-412 -68 -779 -68zM664 2474q93 0 154.5 -63.5t61.5 -156.5t-61.5 -156t-154.5 -63t-158 63t-65 156t65 156.5t158 63.5zM590 982l306 15q227 12 400 35q4 27 4 71q0 182 -78 272t-260 90
q-80 0 -141 -15.5t-101.5 -48t-66.5 -72.5t-39.5 -98.5t-18.5 -115t-5 -133.5zM1344 2474q93 0 155 -63.5t62 -156.5t-62 -156t-155 -63t-157 63t-64 156t64 156.5t157 63.5z" />
    <glyph glyph-name="igrave" unicode="&#xec;" horiz-adv-x="915" 
d="M234 0v1781h447v-1781h-447zM290 2026l-429 536h458l310 -536h-339z" />
    <glyph glyph-name="iacute" unicode="&#xed;" horiz-adv-x="915" 
d="M234 0v1781h447v-1781h-447zM285 2027l310 535h460l-430 -535h-340z" />
    <glyph glyph-name="icircumflex" unicode="&#xee;" horiz-adv-x="915" 
d="M327 2573h255l394 -536h-328l-189 284l-196 -284h-324zM234 0v1781h447v-1781h-447z" />
    <glyph glyph-name="idieresis" unicode="&#xef;" horiz-adv-x="915" 
d="M121 2050q-93 0 -158 63t-65 156t65 156.5t158 63.5q92 0 153.5 -63.5t61.5 -156.5t-61.5 -156t-153.5 -63zM801 2050q-93 0 -157 63t-64 156t64 156.5t157 63.5t155 -63.5t62 -156.5t-62 -156t-155 -63zM234 0v1781h447v-1781h-447z" />
    <glyph glyph-name="eth" unicode="&#xf0;" horiz-adv-x="1903" 
d="M1264 2313l284 104l125 -206l-267 -98q163 -265 245.5 -578t82.5 -644q0 -251 -42 -421.5t-137.5 -282t-246 -161.5t-372.5 -50q-223 0 -373 48.5t-246 159.5t-137.5 282t-41.5 425q0 239 42 401.5t137 270t245.5 155t371.5 47.5q119 0 212 -27q-53 118 -127 233
l-282 -103l-124 208l262 95q-85 105 -170 193l392 129q85 -81 167 -180zM1290 891q0 152 -15.5 247t-56.5 157.5t-108 87.5t-174 25q-108 0 -174 -23t-107.5 -84t-56.5 -157t-15 -253q0 -115 6.5 -196.5t23 -146t41.5 -104t66 -65t92 -35.5t124 -10q86 0 145 17t101 54
t65 103.5t33 157.5t10 225z" />
    <glyph glyph-name="ntilde" unicode="&#xf1;" horiz-adv-x="1967" 
d="M667 1163v-1163h-442v1302q0 167 15 338q311 165 798 165q135 0 241 -17.5t180 -47.5t127.5 -79t84.5 -101t48.5 -126t23 -141.5t5.5 -158.5v-1134h-442v1094q0 67 -5 113.5t-18.5 89.5t-38 69.5t-63.5 46.5t-95 28.5t-133 8.5q-173 0 -275 -48q-11 -99 -11 -239z
M1247 2487h232q-14 -204 -99 -315t-195 -111q-57 0 -103.5 18.5t-76 45.5t-54 54t-48.5 45.5t-47 18.5q-75 0 -101 -174h-232q15 204 100.5 315t194.5 111q57 0 103.5 -18.5t76 -45.5t53.5 -54t48 -45.5t48 -18.5q75 0 100 174z" />
    <glyph glyph-name="ograve" unicode="&#xf2;" horiz-adv-x="1925" 
d="M962 -24q-223 0 -373 48.5t-246 159.5t-137.5 282t-41.5 425q0 253 41.5 423.5t137.5 281.5t246 160t373 49q178 0 309 -32.5t225.5 -100t152 -177t84.5 -257t27 -347.5q0 -251 -42 -421.5t-137.5 -282t-246 -161.5t-372.5 -50zM962 334q86 0 145 17t101 54t65 103.5
t33 157.5t10 225q0 111 -6.5 191t-23 144.5t-42 105t-66 67.5t-92.5 38t-124 11q-109 0 -174.5 -23.5t-107 -89t-56.5 -169t-15 -275.5q0 -115 6.5 -196.5t23 -146t41.5 -104t66 -65t92 -35.5t124 -10zM879 2004l-430 535h460l310 -535h-340z" />
    <glyph glyph-name="oacute" unicode="&#xf3;" horiz-adv-x="1925" 
d="M962 -24q-223 0 -373 48.5t-246 159.5t-137.5 282t-41.5 425q0 253 41.5 423.5t137.5 281.5t246 160t373 49q178 0 309 -32.5t225.5 -100t152 -177t84.5 -257t27 -347.5q0 -251 -42 -421.5t-137.5 -282t-246 -161.5t-372.5 -50zM962 334q86 0 145 17t101 54t65 103.5
t33 157.5t10 225q0 111 -6.5 191t-23 144.5t-42 105t-66 67.5t-92.5 38t-124 11q-87 0 -144.5 -16t-100 -51.5t-65.5 -102t-33 -158t-10 -229.5q0 -115 6.5 -196.5t23 -146t41.5 -104t66 -65t92 -35.5t124 -10zM720 2018l310 535h459l-429 -535h-340z" />
    <glyph glyph-name="ocircumflex" unicode="&#xf4;" horiz-adv-x="1925" 
d="M962 -24q-223 0 -373 48.5t-246 159.5t-137.5 282t-41.5 425q0 253 41.5 423.5t137.5 281.5t246 160t373 49q178 0 309 -32.5t225.5 -100t152 -177t84.5 -257t27 -347.5q0 -251 -42 -421.5t-137.5 -282t-246 -161.5t-372.5 -50zM962 334q86 0 145 17t101 54t65 103.5
t33 157.5t10 225q0 111 -6.5 191t-23 144.5t-42 105t-66 67.5t-92.5 38t-124 11t-123.5 -10t-92 -36t-65.5 -65.5t-41.5 -103.5t-23 -145.5t-6.5 -196.5t6.5 -196.5t22.5 -146t41 -104t66 -65t92 -35.5t124 -10zM832 2537h255l394 -536h-328l-190 284l-195 -284h-324z" />
    <glyph glyph-name="otilde" unicode="&#xf5;" horiz-adv-x="1925" 
d="M1207 2467h232q-14 -204 -99.5 -315t-195.5 -111q-56 0 -102.5 18.5t-76 45.5t-54 54t-48.5 45.5t-47 18.5q-75 0 -101 -174h-232q15 204 100.5 315t194.5 111q57 0 103.5 -18.5t76 -45.5t53.5 -54t48 -45.5t47 -18.5q76 0 101 174zM961 1805q178 0 309 -32.5t226 -100
t152.5 -177t84.5 -257t27 -347.5q0 -251 -42 -421.5t-137.5 -282t-246 -161.5t-373.5 -50q-222 0 -372 48.5t-246 159.5t-137.5 282t-41.5 425q0 253 41.5 423.5t137.5 281.5t246 160t372 49zM961 1448q-72 0 -123.5 -10t-92 -36t-65.5 -65.5t-41.5 -103.5t-23 -145.5
t-6.5 -196.5t6.5 -197t23 -146t41.5 -103.5t65.5 -65t92 -35.5t123.5 -10q87 0 145.5 17t101 54t65.5 103.5t33 157.5t10 225q0 167 -15.5 270t-57 169.5t-108 92t-174.5 25.5z" />
    <glyph glyph-name="odieresis" unicode="&#xf6;" horiz-adv-x="1925" 
d="M626 2035q-93 0 -158 63t-65 156t65 156.5t158 63.5q92 0 153.5 -63.5t61.5 -156.5t-61.5 -156t-153.5 -63zM962 -24q-223 0 -373 48.5t-246 159.5t-137.5 282t-41.5 425q0 253 41.5 423.5t137.5 281.5t246 160t373 49q178 0 309 -32.5t225.5 -100t152 -177t84.5 -257
t27 -347.5q0 -251 -42 -421.5t-137.5 -282t-246 -161.5t-372.5 -50zM962 334q86 0 145 17t101 54t65 103.5t33 157.5t10 225q0 111 -6.5 191t-23 144.5t-42 105t-66 67.5t-92.5 38t-124 11q-87 0 -144.5 -16t-100 -51.5t-65.5 -102t-33 -158t-10 -229.5q0 -115 6.5 -196.5
t23 -146t41.5 -104t66 -65t92 -35.5t124 -10zM1306 2035q-93 0 -157 63t-64 156t64 156.5t157 63.5t154.5 -63.5t61.5 -156.5t-61.5 -156t-154.5 -63z" />
    <glyph glyph-name="divide" unicode="&#xf7;" horiz-adv-x="1917" 
d="M958 53q-105 0 -178.5 74t-73.5 180t73.5 180t178.5 74q106 0 180.5 -74t74.5 -180t-74.5 -180t-180.5 -74zM958 1396q-105 0 -178.5 74t-73.5 180t73.5 179.5t178.5 73.5q106 0 180.5 -73.5t74.5 -179.5t-74.5 -180t-180.5 -74zM131 789v379h1655v-379h-1655z" />
    <glyph glyph-name="oslash" unicode="&#xf8;" horiz-adv-x="1925" 
d="M585 27l-132 -227l-184 117l125 215q-121 104 -175.5 289t-54.5 470q0 253 41.5 423.5t137.5 281.5t246 160t373 49t376 -52l133 228l184 -117l-127 -218q121 -105 176.5 -289t55.5 -466q0 -251 -42 -421.5t-137.5 -282t-246 -161.5t-372.5 -50q-227 0 -377 51zM962 1448
q-109 0 -174.5 -23.5t-107 -89t-56.5 -169t-15 -275.5q0 -226 28 -341l506 868q-69 30 -181 30zM1285 1230l-505 -869q67 -27 182 -27q86 0 145 17t101 54t65 103.5t33 157.5t10 225q0 222 -31 339z" />
    <glyph glyph-name="ugrave" unicode="&#xf9;" horiz-adv-x="1958" 
d="M215 647v1134h443v-1094q0 -67 4.5 -114t18 -89.5t38 -69t63 -46.5t94 -28.5t131.5 -8.5q170 0 272 48q11 99 11 239v1163h441v-1302q0 -183 -15 -338q-309 -165 -793 -165q-134 0 -240 17.5t-180 47.5t-127 79t-84 101t-48.5 126t-23 141.5t-5.5 158.5zM867 2027
l-430 535h459l310 -535h-339z" />
    <glyph glyph-name="uacute" unicode="&#xfa;" horiz-adv-x="1958" 
d="M215 647v1134h443v-1094q0 -67 4.5 -114t18 -89.5t38 -69t63 -46.5t94 -28.5t131.5 -8.5q170 0 272 48q11 99 11 239v1163h441v-1302q0 -183 -15 -338q-309 -165 -794 -165q-105 0 -192.5 10.5t-154.5 29.5t-120 49t-90.5 64t-64.5 80.5t-43.5 92.5t-26 106t-12.5 114.5
t-3 124.5zM754 2047l310 535h460l-430 -535h-340z" />
    <glyph glyph-name="ucircumflex" unicode="&#xfb;" horiz-adv-x="1958" 
d="M215 647v1134h442v-1094q0 -102 12 -163t49 -108t106.5 -66t182.5 -19q168 0 272 48q11 99 11 239v1163h441v-1302q0 -183 -15 -338q-309 -165 -794 -165q-105 0 -192.5 10.5t-154.5 29.5t-120 49t-90.5 64t-65 80.5t-43.5 92.5t-25.5 106t-12.5 114.5t-3 124.5z
M842 2593h255l395 -536h-328l-190 284l-195 -284h-324z" />
    <glyph glyph-name="udieresis" unicode="&#xfc;" horiz-adv-x="1958" 
d="M215 647v1134h443v-1094q0 -67 4.5 -114t18 -89.5t38 -69t63 -46.5t94 -28.5t131.5 -8.5q170 0 272 48q11 99 11 239v1163h441v-1302q0 -183 -15 -338q-309 -165 -793 -165q-134 0 -240 17.5t-180 47.5t-127 79t-84 101t-48.5 126t-23 141.5t-5.5 158.5zM636 2071
q-93 0 -158 63t-65 156t65 156.5t158 63.5t154.5 -63.5t61.5 -156.5t-61.5 -156t-154.5 -63zM1316 2071q-93 0 -157 63t-64 156t64 156.5t157 63.5t155 -63.5t62 -156.5t-62 -156t-155 -63z" />
    <glyph glyph-name="yacute" unicode="&#xfd;" horiz-adv-x="1835" 
d="M968 682l348 1099h452l-829 -2437h-452l280 781l-716 1656h471zM723 2007l310 535h460l-430 -535h-340z" />
    <glyph glyph-name="thorn" unicode="&#xfe;" horiz-adv-x="1942" 
d="M217 -656v2986h444v-563q175 38 340 38q168 0 293 -29t221.5 -94t156.5 -172t90 -260t30 -360t-30 -360t-90 -259.5t-156.5 -171.5t-221.5 -94t-293 -29q-165 0 -340 38v-670h-444zM661 1416v-1051q124 -39 249 -39q89 0 157.5 15.5t114.5 38.5t77.5 67.5t48.5 83.5
t25.5 107t10.5 117.5t2 134.5t-1.5 134.5t-10.5 118t-25.5 107t-48 83.5t-77.5 68t-114.5 38.5t-158.5 15.5q-125 0 -249 -39z" />
    <glyph glyph-name="ydieresis" unicode="&#xff;" horiz-adv-x="1835" 
d="M606 2041q-94 0 -158.5 63t-64.5 156t64.5 156.5t158.5 63.5q92 0 153.5 -63.5t61.5 -156.5t-61.5 -156t-153.5 -63zM1285 2041q-93 0 -157 63t-64 156t64 156.5t157 63.5t155 -63.5t62 -156.5t-62 -156t-155 -63zM968 682l348 1099h452l-829 -2437h-452l280 781
l-716 1656h471z" />
    <glyph glyph-name="Abreve" unicode="&#x102;" horiz-adv-x="2239" 
d="M1335 2945h248q-8 -87 -39.5 -160t-86.5 -129.5t-141 -88.5t-196 -32t-196 32t-141 88.5t-86.5 129.5t-39.5 160h247q13 -81 68 -135t148 -54q92 0 147.5 54t67.5 135zM52 0l692 2029q58 168 152 246.5t231 78.5q270 0 380 -325l682 -2029h-502l-178 577h-796l-174 -577
h-487zM1397 940l-290 942l-285 -942h575z" />
    <glyph glyph-name="abreve" unicode="&#x103;" horiz-adv-x="1854" 
d="M828 -24q-362 0 -524 139.5t-162 428.5q0 243 117 384t376 182q181 29 571 45q0 155 -77.5 226.5t-250.5 71.5q-269 0 -629 -46l-36 330q397 68 699 68q127 0 229 -15t197.5 -54t159.5 -102t102.5 -165t38.5 -237v-753q0 -167 -15 -338q-283 -165 -796 -165zM1206 600
v265q-14 -1 -66.5 -3.5t-74 -3.5t-67.5 -4.5t-74 -7t-64 -9t-66 -12.5q-83 -20 -126.5 -47t-66 -81t-22.5 -147q0 -134 73 -185.5t228 -51.5q201 0 315 48q11 99 11 239zM955 2016q-110 0 -196 36.5t-141.5 102t-87 149t-39.5 183.5h248q12 -93 67.5 -155t148.5 -62
q92 0 147.5 62t67.5 155h248q-8 -100 -39.5 -183.5t-86.5 -149t-141 -102t-196 -36.5z" />
    <glyph glyph-name="Aogonek" unicode="&#x104;" horiz-adv-x="2239" 
d="M2130 -431l65 -167q-61 -51 -145 -80t-161 -29q-146 0 -240 78t-94 212q0 111 70.5 222t165.5 195h-105l-178 577h-795l-174 -577h-488l693 2029q58 168 152 246.5t231 78.5q270 0 380 -325l682 -2029h-154q-205 -202 -205 -345q0 -64 33.5 -102.5t91.5 -38.5
q102 0 175 55zM822 940h575l-290 942z" />
    <glyph glyph-name="aogonek" unicode="&#x105;" horiz-adv-x="1855" 
d="M1640 1232v-753q0 -167 -15 -338q-87 -51 -193 -86q-193 -190 -193 -332q0 -64 34 -102.5t92 -38.5q99 0 175 56l65 -168q-61 -50 -145 -79t-161 -29q-146 0 -240 78t-94 212q0 161 158 340q-134 -16 -294 -16q-362 0 -524.5 139.5t-162.5 428.5q0 243 117 384t376 182
q180 29 571 45q0 155 -77 226.5t-250 71.5q-269 0 -629 -46l-36 330q397 68 698 68q105 0 192.5 -10.5t172 -35t149 -68t113.5 -105.5t75 -151.5t26 -202.5zM1206 600v265q-14 -1 -66.5 -3.5t-74 -3.5t-67.5 -4.5t-73.5 -7t-63.5 -9t-66 -12.5q-123 -29 -169.5 -84
t-46.5 -191q0 -134 73.5 -185.5t228.5 -51.5q200 0 314 48q11 99 11 239z" />
    <glyph glyph-name="Cacute" unicode="&#x106;" horiz-adv-x="1873" 
d="M1715 412l43 -366q-258 -70 -609 -70q-166 0 -297 23t-232.5 67.5t-175 117.5t-124 165t-80.5 219t-43 270.5t-13 326.5q0 215 18 376.5t61 299t114 230.5t178.5 158t254 95t339.5 30q348 0 609 -71l-42 -365q-245 40 -480 40q-83 0 -152 -9t-122.5 -30.5t-95.5 -44.5
t-72.5 -64t-52.5 -75.5t-35.5 -93t-22 -102t-12 -117t-4.5 -123t-1 -134.5q0 -124 2 -191t13 -165.5t32.5 -151t62.5 -116t101 -94.5t150.5 -53t208.5 -22q239 0 479 40zM1630 2961l-460 -433h-363l332 433h491z" />
    <glyph glyph-name="cacute" unicode="&#x107;" horiz-adv-x="1584" 
d="M1402 379l39 -335q-270 -68 -582 -68q-125 0 -226 27t-172 73.5t-124 116.5t-84.5 146.5t-51 175t-26 190t-6.5 202.5q0 131 9.5 234t33 198.5t63 166t100 129t143.5 95t193.5 56t250.5 19.5q254 0 476 -68l-35 -326q-211 41 -323 41q-80 0 -140 -5.5t-108 -20.5
t-81.5 -34.5t-58 -54t-38.5 -72t-22.5 -96t-11 -117.5t-2.5 -145q0 -100 2.5 -158.5t11.5 -128t28 -106.5t52 -77t83.5 -58t121 -30t166.5 -12q111 0 319 42zM1369 2536l-430 -535h-339l310 535h459z" />
    <glyph glyph-name="Ccaron" unicode="&#x10c;" horiz-adv-x="1873" 
d="M1715 412l43 -366q-258 -70 -609 -70q-166 0 -297 23t-232.5 67.5t-175 117.5t-124 165t-80.5 219t-43 270.5t-13 326.5q0 215 18 376.5t61 299t114 230.5t178.5 158t254 95t339.5 30q348 0 609 -71l-42 -365q-245 40 -480 40q-83 0 -152 -9t-122.5 -30.5t-95.5 -44.5
t-72.5 -64t-52.5 -75.5t-35.5 -93t-22 -102t-12 -117t-4.5 -123t-1 -134.5q0 -124 2 -191t13 -165.5t32.5 -151t62.5 -116t101 -94.5t150.5 -53t208.5 -22q239 0 479 40zM1053 2731l209 231h346l-414 -435h-273l-422 435h350z" />
    <glyph glyph-name="ccaron" unicode="&#x10d;" horiz-adv-x="1583" 
d="M1402 379l38 -335q-270 -68 -582 -68q-125 0 -226 27t-172 73.5t-123.5 116.5t-84.5 146.5t-51 175t-25.5 190t-6.5 202.5q0 101 5.5 184.5t19 163.5t35 144t54.5 122t77.5 101.5t103.5 79t132.5 57.5t164.5 34t200 12q254 0 476 -68l-35 -326q-211 41 -323 41
q-80 0 -140 -5.5t-108 -20.5t-81.5 -34.5t-58 -54t-38.5 -72t-22.5 -96t-11 -117.5t-2.5 -145q0 -87 1.5 -140t8.5 -116.5t20 -100t35.5 -77.5t56.5 -62t82.5 -40t112.5 -26.5t148 -7.5q110 0 320 42zM859 2255l196 285h323l-387 -536h-255l-395 536h328z" />
    <glyph glyph-name="Dcaron" unicode="&#x10e;" horiz-adv-x="2231" 
d="M948 1967q-102 0 -222 -16v-1572q113 -17 222 -17q129 0 227 23t163.5 54.5t110 97.5t67.5 118.5t34.5 153.5t13.5 166t2 190t-2 190t-13.5 165.5t-34.5 153.5t-67.5 118.5t-110 97t-163.5 54.5t-227 23zM253 40v2248q344 66 759 66q145 0 265 -15t217 -43.5t173 -74.5
t133.5 -102t99 -133t69 -160.5t43.5 -191.5t22.5 -219t6.5 -250t-6.5 -250t-22.5 -219t-43.5 -191.5t-69 -160.5t-99 -133t-133.5 -102t-173 -74.5t-217 -43.5t-265 -15q-413 0 -759 64zM1059 2734l209 231h346l-414 -435h-273l-422 435h350z" />
    <glyph glyph-name="dcaron" unicode="&#x10f;" horiz-adv-x="1953" 
d="M1281 1767v702h444v-1990q0 -167 -15 -338q-142 -83 -332.5 -124t-384.5 -41q-152 0 -269 19t-213 62.5t-162.5 113.5t-111.5 172t-66 237t-21 311q0 207 30 360t90 259.5t156.5 171.5t221.5 94t293 29q165 0 340 -38zM1281 1416q-124 39 -249 39q-89 0 -157.5 -15.5
t-114.5 -38.5t-77.5 -67.5t-48.5 -83.5t-25.5 -107t-10.5 -117.5t-2 -134.5q0 -75 2 -124t10.5 -114.5t24 -108t45 -88t70.5 -72t103.5 -43.5t141.5 -17q177 0 277 47q11 99 11 239v806zM2398 2469l-256 -672h-273l159 672h370z" />
    <glyph glyph-name="Dcroat" unicode="&#x110;" horiz-adv-x="2304" 
d="M326 1045h-181v310h181v933q344 66 760 66q145 0 265 -15t216.5 -43.5t173 -74.5t133.5 -102t98.5 -133t69 -160.5t43.5 -191.5t22.5 -219t6.5 -250t-6.5 -250t-22.5 -219t-43.5 -191.5t-69 -160.5t-98.5 -133t-133.5 -102t-173 -74.5t-216.5 -43.5t-265 -15
q-414 0 -760 64v1005zM800 1045v-666q113 -17 221 -17q129 0 227.5 23t163.5 54.5t109.5 97.5t68 119t35 153t13.5 166t2 190t-2 190t-13.5 166t-35 153t-68 118.5t-109.5 97.5t-163.5 54.5t-227.5 22.5q-101 0 -221 -16v-596h338v-310h-338z" />
    <glyph glyph-name="dcroat" unicode="&#x111;" horiz-adv-x="1954" 
d="M943 1991v248h339v230h444v-230h220v-248h-220v-1512q0 -167 -15 -338q-143 -83 -333 -124t-384 -41q-183 0 -316.5 28t-236.5 92t-165.5 170.5t-94 260t-31.5 364.5q0 207 30.5 360t90 259.5t156.5 171.5t222 94t293 29q165 0 340 -38v224h-339zM1282 1416
q-124 39 -249 39q-90 0 -158.5 -15.5t-114.5 -38.5t-77.5 -67.5t-48.5 -83.5t-25.5 -107t-10.5 -117.5t-2 -134.5q0 -57 1 -96.5t5.5 -91.5t12.5 -88.5t22 -79t34.5 -71.5t50.5 -57.5t68.5 -45t90 -27t113.5 -10.5q175 0 277 47q11 99 11 239v806z" />
    <glyph glyph-name="Eogonek" unicode="&#x118;" horiz-adv-x="1896" 
d="M1683 1952h-643q-108 0 -169.5 -12t-98.5 -50t-48 -94.5t-11 -158.5v-264h927v-376h-927v-302q0 -68 4.5 -113.5t18.5 -83t35.5 -59t59.5 -36.5t87.5 -20t121.5 -5h643v-366q-69 -4 -200 -9q-209 -203 -209 -348q0 -64 34 -102.5t92 -38.5q99 0 175 56l65 -168
q-61 -50 -145 -79t-161 -29q-146 0 -240 78t-94 212q0 110 68.5 219.5t162.5 193.5q-103 -3 -181 -3q-108 0 -178.5 2.5t-164.5 15t-154 34.5t-125 64t-102 101.5t-61 148.5t-24 203v1205q0 114 24 203t61 148.5t102.5 101t125 64t153.5 34.5t164 14.5t179 2.5
q293 0 633 -17v-367z" />
    <glyph glyph-name="eogonek" unicode="&#x119;" horiz-adv-x="1905" 
d="M1665 379l38 -335q-167 -29 -325 -45q-194 -194 -194 -334q0 -64 33.5 -102.5t91.5 -38.5q100 0 176 56l64 -168q-60 -50 -144.5 -79t-161.5 -29q-146 0 -240 78t-94 212q0 100 58.5 201t144.5 185q-79 -4 -188 -4q-177 0 -311 45.5t-219 124t-137.5 196.5t-73.5 250
t-21 299q0 248 40.5 416.5t135 282t246.5 164.5t377 51q138 0 248 -21t191.5 -58.5t141.5 -97.5t98.5 -130t62 -163.5t32.5 -190.5t9 -219q0 -83 -5 -143q-149 -27 -401.5 -53.5t-441.5 -35.5l-294 -15q6 -102 35.5 -171t86 -106.5t127.5 -53t172 -15.5q268 0 642 47z
M961 1465q-96 0 -164 -24.5t-108 -64t-62.5 -105t-29.5 -131t-7 -158.5l305 15q225 12 401 35q4 27 4 71q0 182 -78 272t-261 90z" />
    <glyph glyph-name="Ecaron" unicode="&#x11a;" horiz-adv-x="1896" 
d="M1683 2319v-367h-643q-108 0 -169.5 -12t-98.5 -50t-48 -94.5t-11 -158.5v-264h927v-376h-927v-302q0 -68 4.5 -113.5t18.5 -83t35.5 -59t59.5 -36.5t87.5 -20t121.5 -5h643v-366q-367 -18 -633 -18q-108 0 -178.5 2.5t-164.5 15t-154 34.5t-125 64t-102 101.5t-61 148.5
t-24 203v1205q0 114 24 203t61 148.5t102.5 101t125 64t153.5 34.5t164 14.5t179 2.5q291 0 633 -17zM440 2956h350l204 -231l209 231h346l-414 -435h-273z" />
    <glyph glyph-name="ecaron" unicode="&#x11b;" horiz-adv-x="1906" 
d="M924 -24q-177 0 -310.5 45.5t-218.5 124t-138 196.5t-74 250.5t-21 298.5q0 247 41 416t135.5 282.5t246.5 164.5t377 51q137 0 247.5 -21t191.5 -59t141.5 -97.5t99 -129.5t62 -163.5t32.5 -191t9 -218.5q0 -71 -6 -143q-146 -27 -398 -53t-445 -36l-293 -15
q6 -103 35.5 -171.5t85.5 -106t127 -53t173 -15.5q268 0 642 47l37 -335q-412 -68 -779 -68zM591 982l305 15q225 12 401 35q3 30 3 71q0 183 -77.5 272.5t-260.5 89.5q-96 0 -164.5 -24.5t-108 -64t-62 -105t-29.5 -131t-7 -158.5zM953 2245l196 285h323l-387 -536h-255
l-395 536h328z" />
    <glyph glyph-name="Gbreve" unicode="&#x11e;" horiz-adv-x="2150" 
d="M1121 939v365h828v-873q0 -71 -13 -129t-34 -101.5t-58 -78t-75.5 -58t-96 -40t-109 -26t-126.5 -14.5t-136.5 -6.5t-148.5 -1.5q-166 0 -297 23t-232.5 67.5t-175 117.5t-124 165.5t-81 219t-43.5 270t-13 326.5q0 185 13 329.5t43.5 271.5t81 219t124 164t175.5 116
t232.5 66.5t296.5 22.5q410 0 745 -69l-41 -365q-267 41 -618 41q-83 0 -152 -9t-122 -30.5t-95.5 -45t-73 -64.5t-52.5 -76t-35.5 -93.5t-22 -102.5t-12 -117t-4.5 -123.5t-1 -134.5q0 -85 1 -135.5t4.5 -124t12 -117.5t22 -102.5t35.5 -93t52.5 -76t72.5 -64.5t95.5 -44.5
t122 -30.5t151.5 -9q89 0 143.5 12.5t80.5 41.5t33.5 61t7.5 88v368h-381zM660 2940h247q13 -81 68 -135t148 -54q92 0 147.5 54t67.5 135h248q-8 -87 -39.5 -160t-86.5 -129.5t-141 -88.5t-196 -32t-196 32t-141.5 88.5t-86.5 129.5t-39 160z" />
    <glyph glyph-name="gbreve" unicode="&#x11f;" horiz-adv-x="1957" 
d="M263 -605l36 329q370 -52 646 -52q177 0 260 81.5t83 247.5v53q-177 -38 -340 -38q-209 0 -353.5 44.5t-245 148.5t-147 276t-46.5 425q0 205 32.5 356t96.5 254.5t167.5 166.5t235.5 90.5t311 27.5q194 0 384.5 -41t332.5 -124q15 -171 15 -338v-1405
q0 -136 -38.5 -238.5t-103 -166t-160.5 -103t-199 -54.5t-230 -15q-314 0 -737 75zM999 1457q-60 0 -110 -10t-88 -26.5t-68 -43.5t-50.5 -56t-35.5 -69t-23.5 -76.5t-13.5 -84.5t-6.5 -88.5t-1.5 -92.5q0 -61 1 -101.5t6 -92.5t13.5 -86t24 -74.5t37.5 -66t55 -51t75.5 -40
t98.5 -23.5t125 -9q125 0 250 39v766q0 140 -11 239q-102 47 -278 47zM1214 2487h248q-8 -100 -39.5 -183.5t-86.5 -149t-141.5 -102t-196.5 -36.5q-109 0 -195.5 36.5t-141.5 102t-86.5 149t-39.5 183.5h248q12 -93 67.5 -155t147.5 -62q93 0 148.5 62t67.5 155z" />
    <glyph glyph-name="Idotaccent" unicode="&#x130;" horiz-adv-x="975" 
d="M489 2509q-96 0 -162.5 65.5t-66.5 161.5q0 97 66.5 162.5t162.5 65.5q97 0 161.5 -65t64.5 -163q0 -96 -64.5 -161.5t-161.5 -65.5zM250 0v2330h475v-2330h-475z" />
    <glyph glyph-name="dotlessi" unicode="&#x131;" horiz-adv-x="915" 
d="M234 0v1781h447v-1781h-447z" />
    <glyph glyph-name="Lacute" unicode="&#x139;" horiz-adv-x="1690" 
d="M1653 378v-368q-377 -16 -596 -16q-108 0 -178.5 2.5t-164.5 15t-154 34.5t-125 64t-102 101.5t-61 148.5t-24 203v1767h474v-1635q0 -103 11 -160t48 -95t98 -50t169 -12h605zM1123 2963l-459 -433h-364l332 433h491z" />
    <glyph glyph-name="lacute" unicode="&#x13a;" horiz-adv-x="884" 
d="M197 453v2016h445v-1983q0 -119 28.5 -208.5t95.5 -181.5l-392 -184q-89 103 -133 231.5t-44 309.5zM243 2619l331 433h492l-460 -433h-363z" />
    <glyph glyph-name="Lcaron" unicode="&#x13d;" horiz-adv-x="1690" 
d="M1653 378v-368q-377 -16 -595 -16q-109 0 -179.5 2.5t-164 15t-153.5 34.5t-125.5 64t-102.5 101.5t-61 148.5t-24 203v1767h474v-1635q0 -103 11 -160t48 -95t98 -50t170 -12h604zM1479 2330l-256 -672h-273l159 672h370z" />
    <glyph glyph-name="lcaron" unicode="&#x13e;" horiz-adv-x="884" 
d="M197 453v2016h445v-1983q0 -119 28.5 -208.5t95.5 -181.5l-392 -184q-89 103 -133 231.5t-44 309.5zM785 1797l159 672h371l-256 -672h-274z" />
    <glyph glyph-name="Lslash" unicode="&#x141;" horiz-adv-x="1840" 
d="M398 1201v1129h474v-810l516 347v-338l-516 -347v-487q0 -103 11 -160t48.5 -95t98.5 -50t169 -12h604v-368q-377 -16 -595 -16q-108 0 -178.5 2.5t-164.5 15t-154 34.5t-125.5 64t-102.5 101.5t-61 148.5t-24 203v300l-290 -195v338z" />
    <glyph glyph-name="lslash" unicode="&#x142;" horiz-adv-x="1036" 
d="M734 1308v-822q0 -119 28.5 -208.5t95.5 -181.5l-392 -184q-90 103 -133.5 231.5t-43.5 309.5v511l-291 -224v349l291 225v1155h445v-811l304 235v-350z" />
    <glyph glyph-name="Nacute" unicode="&#x143;" horiz-adv-x="2361" 
d="M942 2048l740 -1427v1709h425v-1999q0 -355 -286 -355q-132 0 -222 67.5t-179 239.5l-740 1432v-1715h-425v2000q0 354 286 354q125 0 220 -70.5t181 -235.5zM936 2525l332 433h491l-460 -433h-363z" />
    <glyph glyph-name="nacute" unicode="&#x144;" horiz-adv-x="1967" 
d="M667 1163v-1163h-442v1302q0 167 15 338q309 165 797 165q106 0 193.5 -10.5t155 -29.5t121 -49t91 -64t65 -80.5t44 -92.5t26 -106t12.5 -114.5t3 -124.5v-1134h-442v1094q0 67 -5 113.5t-18.5 89.5t-38 69.5t-63.5 46.5t-95 28.5t-133 8.5q-173 0 -275 -48
q-11 -99 -11 -239zM753 2009l310 535h460l-430 -535h-340z" />
    <glyph glyph-name="Ncaron" unicode="&#x147;" horiz-adv-x="2361" 
d="M942 2048l740 -1427v1709h425v-1999q0 -355 -286 -355q-132 0 -222.5 68t-179.5 239l-739 1432v-1715h-425v2000q0 354 286 354q125 0 220 -70.5t181 -235.5zM626 2949h351l203 -231l209 231h346l-414 -435h-273z" />
    <glyph glyph-name="ncaron" unicode="&#x148;" horiz-adv-x="1967" 
d="M666 1163v-1163h-441v1302q0 183 15 338q309 165 797 165q105 0 193 -10.5t155.5 -29.5t121 -49t91 -64t65 -80.5t44 -92.5t26 -106t12.5 -114.5t3 -124.5v-1134h-443v1094q0 67 -5 113.5t-18.5 89.5t-38 69.5t-63.5 46.5t-95 28.5t-133 8.5q-173 0 -275 -48
q-11 -99 -11 -239zM468 2537h328l189 -285l196 285h324l-388 -536h-255z" />
    <glyph glyph-name="Ohungarumlaut" unicode="&#x150;" horiz-adv-x="2240" 
d="M1121 -24q-182 0 -320.5 29t-243 92.5t-174.5 156t-113.5 228.5t-62 301t-18.5 382t18.5 382t62 301t113.5 228.5t174.5 156t243 92.5t320.5 29t320.5 -29t243 -92.5t174 -156t113 -229t62 -301t18.5 -381.5t-18.5 -381.5t-62 -301t-113 -229t-174 -156t-243 -92.5
t-320.5 -29zM1121 366q73 0 132 13t103.5 32t78 57.5t56.5 73.5t39 95.5t24.5 108t12.5 128t5 138t1 153.5t-1 153.5t-5 138t-12.5 128t-24.5 108.5t-39 96t-56.5 73t-78 57.5t-103.5 32.5t-132 13t-132 -13t-103 -32.5t-78 -57.5t-56.5 -73t-38.5 -96t-24.5 -108.5
t-12.5 -128t-5 -138t-1 -153.5t1 -153.5t5 -138t12.5 -128t24.5 -108t38.5 -95.5t56.5 -73.5t78 -57.5t103 -32t132 -13zM562 2537l315 432h474l-437 -432h-352zM1223 2537l315 432h476l-438 -432h-353z" />
    <glyph glyph-name="ohungarumlaut" unicode="&#x151;" horiz-adv-x="1926" 
d="M962 -24q-222 0 -372 48.5t-246 159.5t-138 282t-42 425q0 202 27 350.5t84.5 257.5t152.5 175.5t225.5 98.5t308.5 32q222 0 373 -50t246.5 -162t137.5 -282t42 -420q0 -251 -42 -421.5t-138 -282t-246.5 -161.5t-372.5 -50zM962 334q108 0 174.5 25.5t108 91.5t57 169
t15.5 271q0 167 -15.5 270t-57 169.5t-108 92t-174.5 25.5q-72 0 -123.5 -10t-92 -36t-65.5 -65.5t-41.5 -103.5t-23 -145.5t-6.5 -196.5t6.5 -197t23 -146t41.5 -103.5t65.5 -65t92 -35.5t123.5 -10zM421 2031l295 534h444l-409 -534h-330zM1040 2031l294 534h444
l-408 -534h-330z" />
    <glyph glyph-name="OE" unicode="&#x152;" horiz-adv-x="3228" 
d="M3015 1952h-644q-72 0 -121 -5t-87 -20t-60 -36t-35.5 -58.5t-18 -82.5t-4.5 -113v-264h926v-376h-926v-302q0 -82 7.5 -132.5t26.5 -89.5t57.5 -58t93 -28t141.5 -9h644v-366q-369 -18 -634 -18q-116 0 -191.5 3.5t-167.5 16.5t-163 42.5t-125 76.5q-205 -157 -613 -157
q-182 0 -321 29t-243 92.5t-174 156t-113.5 229t-62 301t-18.5 381.5t18.5 381.5t62 301t113.5 229t174 156t243 92.5t321 29q407 0 612 -157q43 38 102 64.5t116 41t136.5 22t141 9.5t152.5 2q292 0 634 -17v-367zM1121 366q73 0 132 13t103 32t78 57.5t56.5 73.5
t38.5 95.5t24.5 108t12.5 128t5 138t1 153.5t-1 153.5t-5 138t-12.5 128t-24.5 108.5t-38.5 96t-56.5 73t-78 57.5t-103 32.5t-132 13t-132 -13t-103.5 -32.5t-78 -57.5t-56.5 -73t-39 -96t-24.5 -108.5t-12.5 -128t-5 -138t-1 -153.5t1 -153.5t5 -138t12.5 -128t24.5 -108
t39 -95.5t56.5 -73.5t78 -57.5t103.5 -32t132 -13z" />
    <glyph glyph-name="oe" unicode="&#x153;" horiz-adv-x="3060" 
d="M962 1805q395 0 577 -172q182 172 577 172q138 0 248 -21t191.5 -58.5t141.5 -97.5t98.5 -130t62 -163.5t32.5 -190.5t9 -219q0 -71 -6 -143q-146 -27 -398 -53t-445 -36l-293 -15q6 -103 35.5 -171.5t85.5 -106t127 -53t173 -15.5q268 0 642 47l37 -335
q-412 -68 -779 -68q-349 0 -532 178q-181 -178 -584 -178q-223 0 -373 48.5t-246 159.5t-137.5 282t-41.5 425q0 253 41.5 423.5t137.5 281.5t246 160t373 49zM962 1448q-87 0 -144.5 -16t-100 -51.5t-65.5 -102t-33 -158t-10 -229.5q0 -115 6.5 -196.5t23 -146t41.5 -104
t66 -65t92 -35.5t124 -10q86 0 145 17t101 54t65 103.5t33 157.5t10 225q0 111 -6.5 191t-23 144.5t-42 105t-66 67.5t-92.5 38t-124 11zM1745 982l305 15q225 12 401 35q3 30 3 71q0 183 -77.5 272.5t-260.5 89.5q-96 0 -164 -24.5t-108 -64t-62.5 -105t-29.5 -131
t-7 -158.5z" />
    <glyph glyph-name="Racute" unicode="&#x154;" horiz-adv-x="2146" 
d="M726 889v-889h-472v2290q349 64 758 64q119 0 215 -7.5t195.5 -28t175 -54.5t143.5 -90t112 -131.5t69.5 -182t25.5 -238.5q0 -151 -31 -268.5t-90.5 -199.5t-139.5 -135.5t-186 -85.5l532 -933h-544l-478 879q-121 0 -285 10zM726 1965v-700q105 -12 288 -12
q116 0 197.5 16.5t144 57.5t93 114.5t30.5 182.5q0 196 -101.5 278.5t-353.5 82.5q-150 0 -298 -20zM1117 2964h492l-460 -434h-364z" />
    <glyph glyph-name="racute" unicode="&#x155;" horiz-adv-x="1203" 
d="M665 0h-442v1302q0 167 15 338q143 83 333 124t384 41q96 0 180 -9l-35 -356q-53 7 -128 7q-82 0 -164 -14.5t-133 -40.5q-10 -103 -10 -239v-1153zM717 2546h459l-430 -535h-339z" />
    <glyph glyph-name="Rcaron" unicode="&#x158;" horiz-adv-x="2146" 
d="M726 889v-889h-472v2290q349 64 758 64q119 0 215 -7.5t195.5 -28t175 -54.5t143.5 -90t112 -131.5t69.5 -182t25.5 -238.5q0 -151 -31 -268.5t-90.5 -199.5t-139.5 -135.5t-186 -85.5l532 -933h-544l-478 879q-121 0 -285 10zM726 1965v-700q105 -12 288 -12
q116 0 197.5 16.5t144 57.5t93 114.5t30.5 182.5q0 196 -101.5 278.5t-353.5 82.5q-150 0 -298 -20zM1056 2734l209 231h346l-414 -435h-273l-421 435h350z" />
    <glyph glyph-name="rcaron" unicode="&#x159;" horiz-adv-x="1203" 
d="M665 0h-442v1302q0 167 15 338q143 83 333 124t384 41q96 0 180 -9l-35 -356q-53 7 -129 7q-81 0 -163 -14.5t-133 -40.5q-10 -103 -10 -239v-1153zM492 2537l190 -285l195 285h324l-387 -536h-255l-395 536h328z" />
    <glyph glyph-name="Sacute" unicode="&#x15a;" horiz-adv-x="1843" 
d="M1102 1969q-50 0 -85.5 -1t-89 -6t-90.5 -14.5t-79 -27t-68 -42.5t-43 -63.5t-17 -86.5q0 -55 11.5 -97t36 -73t56 -53.5t79 -41t95.5 -32.5t115 -32q23 -6 35 -9q173 -47 288.5 -103.5t196.5 -140.5t117 -198.5t36 -272.5q0 -190 -57 -325.5t-170 -217t-269.5 -119
t-368.5 -37.5q-339 0 -674 72l46 373q356 -52 611 -52q98 0 166 12.5t122 44t80 89t26 143.5q0 45 -10.5 82.5t-26 64.5t-46 52t-56.5 40.5t-71.5 33.5t-77.5 28.5t-88 27.5q-7 2 -10 3q-98 30 -169 56t-144.5 61t-124 72.5t-96 88.5t-72.5 111t-42.5 137.5t-15.5 170.5
q0 187 54 317t163 206.5t259 110t357 33.5q330 0 667 -73l-42 -363q-321 51 -514 51zM1549 2971l-460 -433h-363l332 433h491z" />
    <glyph glyph-name="sacute" unicode="&#x15b;" horiz-adv-x="1633" 
d="M971 1459q-41 0 -65 -0.5t-66 -3.5t-68.5 -8.5t-59 -16.5t-51.5 -27t-32 -40.5t-13 -56.5q0 -38 15.5 -68.5t36 -50t60 -38t66.5 -27.5t78 -25t73 -23q194 -66 246 -89q162 -71 230 -180q69 -111 69 -290q0 -123 -36 -217.5t-97 -155t-152 -98.5t-191.5 -53t-224.5 -15
q-156 0 -328 20.5t-308 56.5l43 330q287 -54 484 -54q157 0 224 18q138 35 138 153q0 35 -8.5 63t-27.5 49t-37.5 35t-52 27t-55.5 20t-64 18.5t-63 17.5q-78 24 -119.5 38t-111 42.5t-107.5 54t-87 68.5t-74 91t-43 115.5t-18 147.5q0 146 48.5 249.5t138.5 161t199.5 82.5
t250.5 25q185 0 333.5 -17.5t320.5 -56.5l-42 -324q-264 52 -452 52zM1404 2556l-430 -535h-340l311 535h459z" />
    <glyph glyph-name="Scedilla" unicode="&#x15e;" horiz-adv-x="1842" 
d="M1658 2281l-43 -363q-321 51 -513 51q-51 0 -86.5 -1t-88.5 -6t-90.5 -14.5t-79 -27t-67.5 -42.5t-43 -63.5t-17 -86.5q0 -42 6 -76t21 -61t31.5 -48t46 -39t55 -31t68 -26.5t77 -23.5t88.5 -24q23 -6 34 -9q173 -47 288.5 -103.5t196.5 -140.5t117 -198.5t36 -272.5
q0 -308 -148 -471t-440 -208l-108 -168q104 -11 180.5 -75t76.5 -164q0 -76 -32 -133.5t-88 -91t-124.5 -49.5t-147.5 -16q-72 0 -148 20t-134 55l64 171q114 -57 214 -57q50 0 84 21.5t34 68.5q0 36 -30.5 62.5t-77.5 39.5t-92 19t-87 6l161 272q-4 0 -11 -0.5t-11 -0.5
q-339 0 -673 72l46 373q356 -52 610 -52q98 0 166 12.5t122 44t80.5 89t26.5 143.5q0 45 -10.5 82.5t-26 64.5t-46 52t-56.5 40.5t-71.5 33.5t-77.5 28.5t-88 27.5q-7 2 -10 3q-98 30 -169.5 56t-145 61t-124 72.5t-96 88.5t-72.5 111t-42.5 137.5t-15.5 170.5q0 187 54 317
t163.5 206.5t259 110t357.5 33.5q330 0 667 -73z" />
    <glyph glyph-name="scedilla" unicode="&#x15f;" horiz-adv-x="1633" 
d="M1464 1731l-42 -324q-264 52 -452 52q-41 0 -65 -0.5t-66 -3.5t-68.5 -8.5t-59 -16.5t-51.5 -27t-32 -40.5t-13 -56.5t10 -59t31 -47t42.5 -35t56.5 -28.5t60.5 -22t66.5 -20.5t63 -20q194 -66 246 -89q162 -71 230 -180q69 -111 69 -290q0 -450 -477 -523l-105 -165
q104 -11 180.5 -75t76.5 -164q0 -76 -32.5 -133.5t-88.5 -91t-124 -49.5t-147 -16q-72 0 -148 20t-134 55l64 171q114 -57 214 -57q49 0 83.5 21.5t34.5 68.5q0 36 -30.5 62.5t-77.5 39.5t-92 19t-87 6l161 272q-341 5 -608 77l42 330q287 -54 485 -54q156 0 223 17
q138 36 138 154q0 35 -8.5 63t-27.5 49t-37 35t-52 27t-55.5 20t-63.5 18.5t-63 17.5q-78 24 -120 38t-111 42.5t-107.5 54t-87 68.5t-73.5 91t-43 115.5t-18 147.5q0 118 32.5 208t88.5 148t138.5 95t174 52t203.5 15q185 0 333.5 -17.5t319.5 -56.5z" />
    <glyph glyph-name="Scaron" unicode="&#x160;" horiz-adv-x="1843" 
d="M1102 1969q-50 0 -85.5 -1t-89 -6t-90.5 -14.5t-79 -27t-68 -42.5t-43 -63.5t-17 -86.5q0 -55 11.5 -97t36 -73t56 -53.5t79 -41t95.5 -32.5t115 -32q23 -6 35 -9q173 -47 288.5 -103.5t196.5 -140.5t117 -198.5t36 -272.5q0 -190 -56.5 -325.5t-169.5 -217t-270 -119
t-369 -37.5q-339 0 -674 72l46 373q356 -52 611 -52q98 0 166 12.5t122 44t80 89t26 143.5q0 45 -10.5 82.5t-26 64.5t-46 52t-56.5 40.5t-71.5 33.5t-77.5 28.5t-88 27.5q-7 2 -10 3q-98 30 -169 56t-144.5 61t-124 72.5t-96 88.5t-72.5 111t-42.5 137.5t-15.5 170.5
q0 187 54 317t163.5 206.5t259 110t357.5 33.5q329 0 666 -73l-42 -363q-321 51 -514 51zM955 2741l209 231h346l-414 -435h-273l-422 435h350z" />
    <glyph glyph-name="scaron" unicode="&#x161;" horiz-adv-x="1633" 
d="M971 1459q-41 0 -65 -0.5t-66 -3.5t-68.5 -8.5t-59 -16.5t-51.5 -27t-32 -40.5t-13 -56.5q0 -38 15.5 -68.5t36 -50t60 -38t66.5 -27.5t78 -25t73 -23q194 -66 246 -89q162 -71 230 -180q69 -111 69 -290q0 -123 -36 -217.5t-97 -155t-152 -98.5t-191.5 -53t-224.5 -15
q-156 0 -328 20.5t-308 56.5l42 330q289 -54 485 -54q157 0 224 18q138 35 138 153q0 35 -8.5 63t-27.5 49t-37.5 35t-52 27t-55.5 20t-64 18.5t-63 17.5q-78 24 -119.5 38t-111 42.5t-107.5 54t-87 68.5t-74 91t-43 115.5t-18 147.5q0 146 48.5 249.5t138.5 161t199.5 82.5
t250.5 25q185 0 333.5 -17.5t320.5 -56.5l-42 -324q-264 52 -452 52zM821 2255l196 285h323l-387 -536h-255l-395 536h328z" />
    <glyph glyph-name="uni0162" unicode="&#x162;" horiz-adv-x="1736" 
d="M1677 2330v-382h-573v-1948h-475v1948h-570v382h1618zM556 -819l147 624h345l-238 -624h-254z" />
    <glyph glyph-name="uni0163" unicode="&#x163;" horiz-adv-x="1300" 
d="M370 2212l443 72v-503h358v-337h-358v-921q0 -110 50 -158t162 -48q73 0 149 6l35 -316q-173 -31 -305 -31q-278 0 -406 123t-128 379v966h-290v337h290v431zM474 -832l147 624h345l-238 -624h-254z" />
    <glyph glyph-name="Tcaron" unicode="&#x164;" horiz-adv-x="1736" 
d="M1678 2330v-382h-574v-1948h-475v1948h-569v382h1618zM314 2929h351l203 -231l209 231h346l-414 -435h-273z" />
    <glyph glyph-name="tcaron" unicode="&#x165;" horiz-adv-x="1300" 
d="M370 2212l443 72v-503h358v-337h-358v-921q0 -110 49.5 -158t161.5 -48q74 0 150 6l34 -316q-173 -31 -305 -31q-278 0 -405.5 123t-127.5 379v966h-291v337h291v431zM984 1992l159 672h370l-256 -672h-273z" />
    <glyph glyph-name="Uring" unicode="&#x16e;" horiz-adv-x="2229" 
d="M1986 2330v-1545q0 -189 -41 -330t-113.5 -232t-184.5 -146.5t-240.5 -78t-295.5 -22.5t-295.5 22.5t-240 78t-184 146.5t-113.5 232t-41 330v1545h467v-1571q0 -210 91 -298t316 -88q224 0 316 88.5t92 297.5v1571h467zM1111 2452q-144 0 -246.5 102t-102.5 246
q0 145 102.5 247t246.5 102q145 0 247 -102t102 -247q0 -144 -102 -246t-247 -102zM1111 2629q72 0 122.5 50t50.5 121t-50.5 122t-122.5 51q-71 0 -121.5 -51t-50.5 -122t50.5 -121t121.5 -50z" />
    <glyph glyph-name="uring" unicode="&#x16f;" horiz-adv-x="1958" 
d="M215 647v1134h443v-1094q0 -67 4.5 -114t18 -89.5t38 -69t63 -46.5t94 -28.5t131.5 -8.5q168 0 272 48q11 99 11 239v1163h441v-1302q0 -183 -15 -338q-309 -165 -794 -165q-105 0 -192.5 10.5t-154.5 29.5t-120 49t-90.5 64t-65 80.5t-43.5 92.5t-25.5 106t-12.5 114.5
t-3 124.5zM974 1937q-144 0 -246.5 102t-102.5 246q0 145 102.5 247t246.5 102t246.5 -102t102.5 -247q0 -144 -102.5 -246t-246.5 -102zM974 2114q71 0 121.5 50t50.5 121t-50.5 122t-121.5 51t-122 -51t-51 -122t51 -121t122 -50z" />
    <glyph glyph-name="Uhungarumlaut" unicode="&#x170;" horiz-adv-x="2229" 
d="M1986 2330v-1545q0 -189 -41 -330t-113.5 -232t-184 -146.5t-240.5 -78t-295 -22.5q-167 0 -295.5 22.5t-240.5 78t-184.5 146.5t-113.5 232t-41 330v1545h467v-1571q0 -209 91.5 -297.5t316.5 -88.5q223 0 315 88.5t92 297.5v1571h467zM526 2541l315 432h475l-437 -432
h-353zM1188 2541l315 432h475l-437 -432h-353z" />
    <glyph glyph-name="uhungarumlaut" unicode="&#x171;" horiz-adv-x="1959" 
d="M215 647v1134h443v-1094q0 -67 4.5 -114t18 -89.5t38 -69t63.5 -46.5t94.5 -28.5t131.5 -8.5q169 0 271 48q11 99 11 239v1163h442v-1302q0 -167 -15 -338q-309 -165 -794 -165q-134 0 -240 17.5t-180 47.5t-127 79t-84 101t-48.5 126t-23 141.5t-5.5 158.5zM449 2057
l294 534h444l-409 -534h-329zM1067 2057l295 534h444l-409 -534h-330z" />
    <glyph glyph-name="Ydieresis" unicode="&#x178;" horiz-adv-x="2024" 
d="M694 2499q-93 0 -158 63t-65 156t65 156.5t158 63.5t154.5 -63.5t61.5 -156.5t-61.5 -156t-154.5 -63zM1374 2499q-93 0 -157 63t-64 156t64 156.5t157 63.5t155 -63.5t62 -156.5t-62 -156t-155 -63zM1247 898v-898h-474v898l-749 1432h509l480 -966l495 966h491z" />
    <glyph glyph-name="Zacute" unicode="&#x179;" horiz-adv-x="1890" 
d="M1684 1975l-946 -1583h995v-392h-1343q-129 0 -197 46.5t-68 133.5q0 79 58 175l951 1586h-941v389h1286q131 0 197 -47t66 -132q0 -79 -58 -176zM698 2513l332 433h491l-460 -433h-363z" />
    <glyph glyph-name="zacute" unicode="&#x17a;" horiz-adv-x="1808" 
d="M1589 1484l-814 -1123h820v-361h-1266q-86 0 -134.5 39.5t-48.5 106.5q0 71 59 154l819 1135h-809v346h1250q84 0 133 -39.5t49 -106.5q0 -70 -58 -151zM691 2027l310 535h459l-429 -535h-340z" />
    <glyph glyph-name="Zdotaccent" unicode="&#x17b;" horiz-adv-x="1889" 
d="M1683 1975l-946 -1583h996v-392h-1343q-129 0 -197.5 46.5t-68.5 133.5q0 76 59 175l951 1586h-942v389h1286q131 0 197.5 -47t66.5 -132q0 -77 -59 -176zM951 2510q-96 0 -162.5 65.5t-66.5 161.5q0 97 66.5 162.5t162.5 65.5q97 0 161.5 -65t64.5 -163
q0 -96 -64.5 -161.5t-161.5 -65.5z" />
    <glyph glyph-name="zdotaccent" unicode="&#x17c;" horiz-adv-x="1807" 
d="M1588 1484l-814 -1123h820v-361h-1266q-86 0 -134.5 39.5t-48.5 106.5q0 71 59 154l820 1135h-810v346h1250q84 0 133 -39.5t49 -106.5q0 -72 -58 -151zM904 2011q-96 0 -162.5 65.5t-66.5 161.5q0 97 66.5 162.5t162.5 65.5q97 0 161.5 -65t64.5 -163
q0 -96 -64.5 -161.5t-161.5 -65.5z" />
    <glyph glyph-name="Zcaron" unicode="&#x17d;" horiz-adv-x="1890" 
d="M1684 1975l-946 -1583h996v-392h-1343q-129 0 -197.5 46.5t-68.5 133.5q0 79 58 175l951 1586h-941v389h1286q131 0 197.5 -47t66.5 -132q0 -77 -59 -176zM412 2947h350l203 -231l209 231h346l-414 -435h-273z" />
    <glyph glyph-name="zcaron" unicode="&#x17e;" horiz-adv-x="1807" 
d="M1588 1484l-814 -1123h820v-361h-1266q-85 0 -134 39.5t-49 106.5q0 70 60 154l819 1135h-809v346h1250q83 0 132.5 -39.5t49.5 -106.5q0 -70 -59 -151zM408 2563h328l189 -285l196 285h323l-387 -536h-255z" />
    <glyph glyph-name="florin" unicode="&#x192;" horiz-adv-x="1620" 
d="M600 1445l41 306q24 180 116 301.5t228.5 176.5t312.5 55q133 0 266 -26l-47 -342q-100 15 -172 15q-53 0 -95 -13t-71 -39.5t-49.5 -57t-34.5 -74.5t-22 -82t-15 -90l-18 -130h415l-46 -338h-415l-119 -871q-47 -345 -238 -517t-516 -172q-71 0 -131 8l46 340h52
q157 0 241 73.5t104 226.5l122 912h-358l45 338h358z" />
    <glyph glyph-name="uni0218" unicode="&#x218;" horiz-adv-x="1843" 
d="M1103 1969q-51 0 -86.5 -1t-89 -6t-90.5 -14.5t-79 -27t-68 -42.5t-43 -63.5t-17 -86.5q0 -55 11.5 -97t36 -73t56 -53.5t79 -41t95.5 -32.5t115 -32q23 -6 35 -9q173 -47 288.5 -103.5t196.5 -140.5t117 -198.5t36 -272.5q0 -190 -56.5 -325.5t-169.5 -217t-270 -119
t-369 -37.5q-339 0 -673 72l46 373q356 -52 610 -52q98 0 166 12.5t122 44t80.5 89t26.5 143.5q0 45 -9.5 82t-28.5 65.5t-43.5 51t-58.5 41t-69.5 33t-80 29t-86.5 27.5q-7 2 -11 3q-98 30 -169 56t-144.5 61t-124 72.5t-96 88.5t-72.5 111t-42.5 137.5t-15.5 170.5
q0 187 54 317t163.5 206.5t259 110t357.5 33.5q330 0 667 -73l-43 -363q-321 51 -513 51zM1172 -205l-238 -624h-254l147 624h345z" />
    <glyph glyph-name="uni0219" unicode="&#x219;" horiz-adv-x="1633" 
d="M971 1459q-41 0 -65 -0.5t-66.5 -3.5t-69 -8.5t-59 -16.5t-51.5 -27t-32 -40.5t-13 -56.5t10 -59t31 -47t42.5 -35t56.5 -28.5t60.5 -22t66.5 -20.5t63 -20q194 -66 246 -89q162 -71 230 -180q69 -111 69 -290q0 -123 -36 -217.5t-97 -155t-152 -98.5t-191.5 -53
t-224.5 -15q-156 0 -328 20.5t-308 56.5l42 330q289 -54 485 -54q157 0 224 18q138 35 138 153q0 35 -8.5 63t-27.5 49t-37.5 35t-52 27t-55.5 20t-64 18.5t-63 17.5q-78 24 -119.5 38t-111 42.5t-107.5 54t-87 68.5t-74 91t-43 115.5t-18 147.5q0 146 48.5 249.5t138.5 161
t199.5 82.5t250.5 25q185 0 333.5 -17.5t320.5 -56.5l-42 -324q-264 52 -452 52zM1070 -198l-239 -624h-253l147 624h345z" />
    <glyph glyph-name="uni021A" unicode="&#x21a;" horiz-adv-x="1736" 
d="M1677 2330v-382h-573v-1948h-475v1948h-570v382h1618zM556 -819l147 624h345l-238 -624h-254z" />
    <glyph glyph-name="uni021B" unicode="&#x21b;" horiz-adv-x="1300" 
d="M369 2212l443 72v-503h358v-337h-358v-921q0 -110 50 -158t162 -48q72 0 149 6l35 -316q-173 -31 -305 -31q-278 0 -406 123t-128 379v966h-290v337h290v431zM473 -832l147 624h345l-238 -624h-254z" />
    <glyph glyph-name="circumflex" unicode="&#x2c6;" horiz-adv-x="1213" 
d="M476 2412h255l394 -536h-328l-190 284l-195 -284h-324z" />
    <glyph glyph-name="caron" unicode="&#x2c7;" horiz-adv-x="1139" 
d="M51 2412h327l190 -285l196 285h323l-387 -536h-255z" />
    <glyph glyph-name="uni02C9" unicode="&#x2c9;" horiz-adv-x="1438" 
d="M208 1975v277h1021v-277h-1021z" />
    <glyph glyph-name="breve" unicode="&#x2d8;" horiz-adv-x="1108" 
d="M770 2379h247q-8 -100 -39 -183.5t-86.5 -149t-141.5 -102t-196 -36.5t-196 36.5t-141 102t-86.5 149t-39.5 183.5h248q12 -93 67.5 -155t147.5 -62q93 0 148.5 62t67.5 155z" />
    <glyph glyph-name="dotaccent" unicode="&#x2d9;" horiz-adv-x="709" 
d="M356 1911q-96 0 -162.5 65.5t-66.5 161.5q0 97 66.5 162.5t162.5 65.5q97 0 161.5 -65t64.5 -163q0 -96 -64.5 -161.5t-161.5 -65.5z" />
    <glyph glyph-name="ring" unicode="&#x2da;" horiz-adv-x="945" 
d="M472 1830q-144 0 -246.5 102t-102.5 246q0 145 102.5 247t246.5 102q145 0 247 -102t102 -247q0 -144 -102 -246t-247 -102zM472 2007q72 0 122.5 50t50.5 121t-50.5 122t-122.5 51q-71 0 -121.5 -51t-50.5 -122t50.5 -121t121.5 -50z" />
    <glyph glyph-name="ogonek" unicode="&#x2db;" horiz-adv-x="728" 
d="M625 -441l65 -167q-61 -51 -145 -80t-161 -29q-146 0 -240 78t-94 212q0 79 41.5 165.5t93.5 148t113 113.5h243q-217 -211 -217 -355q0 -64 34 -102.5t92 -38.5q101 0 175 55z" />
    <glyph glyph-name="tilde" unicode="&#x2dc;" horiz-adv-x="1234" 
d="M863 2341h232q-15 -204 -100 -315t-195 -111q-48 0 -89 13.5t-67.5 33.5t-51.5 44t-42 44t-37.5 33.5t-40.5 13.5q-75 0 -101 -174h-232q15 204 100 315t195 111q57 0 103.5 -18.5t76 -45.5t53.5 -54t48 -45.5t47 -18.5q76 0 101 174z" />
    <glyph glyph-name="hungarumlaut" unicode="&#x2dd;" horiz-adv-x="1466" 
d="M87 1865l294 534h444l-408 -534h-330zM705 1865l295 534h444l-409 -534h-330z" />
    <glyph glyph-name="uni03A9" unicode="&#x3a9;" horiz-adv-x="2560" 
d="M152 0v355h391q-157 173 -250.5 397t-93.5 487q0 242 84.5 450.5t230 354t347.5 228t432 82.5q191 0 361.5 -59t298.5 -163t221.5 -242.5t141.5 -302.5t48 -337q0 -269 -95 -497t-250 -398h390v-355h-987v265q100 60 187.5 149t159.5 206.5t113.5 270t41.5 319.5
q0 111 -25.5 222.5t-78 213.5t-126 180.5t-178.5 125.5t-226 47q-193 0 -342.5 -107.5t-228 -287.5t-78.5 -400q0 -157 42 -307.5t113 -269.5t159.5 -211.5t186.5 -150.5v-265h-990z" />
    <glyph glyph-name="uni03BC" unicode="&#x3bc;" horiz-adv-x="2124" 
d="M271 -656v2437h410v-1075q0 -167 80 -269.5t224 -102.5q387 0 387 672v775h412v-1091v-70.5t1.5 -63t4 -61t8 -52.5t13 -49.5t19.5 -40t27.5 -37t36.5 -26.5t47 -22v-292q-386 0 -492 302q-87 -156 -201.5 -229t-265.5 -73q-183 0 -302 121v-753h-409z" />
    <glyph glyph-name="pi" unicode="&#x3c0;" horiz-adv-x="2292" 
d="M619 1781h1586q-23 -217 -40 -360h-404q-38 -245 -38 -586q0 -260 96.5 -393t301.5 -133l-30 -333q-137 0 -247.5 19.5t-191 54t-141 87t-98 113t-61 139t-32.5 157t-9 174.5q0 335 50 701h-421q-32 -488 -83.5 -857t-113.5 -564h-448q98 323 151 645t91 773h-67
q-87 0 -152 -19.5t-155 -66.5l-103 242q195 207 559 207z" />
    <glyph glyph-name="uni200A" unicode="&#x200a;" horiz-adv-x="73" 
 />
    <glyph glyph-name="uni2010" unicode="&#x2010;" horiz-adv-x="1298" 
d="M209 708v356h880v-356h-880z" />
    <glyph glyph-name="endash" unicode="&#x2013;" horiz-adv-x="2025" 
d="M209 717v337h1607v-337h-1607z" />
    <glyph glyph-name="emdash" unicode="&#x2014;" horiz-adv-x="3578" 
d="M209 717v337h3160v-337h-3160z" />
    <glyph glyph-name="quoteleft" unicode="&#x2018;" horiz-adv-x="847" 
d="M121 1625l322 844h344l-199 -844h-467z" />
    <glyph glyph-name="quoteright" unicode="&#x2019;" horiz-adv-x="847" 
d="M121 1625l198 844h468l-322 -844h-344z" />
    <glyph glyph-name="quotesinglbase" unicode="&#x201a;" horiz-adv-x="864" 
d="M77 -411l199 844h467l-322 -844h-344z" />
    <glyph glyph-name="quotedblleft" unicode="&#x201c;" horiz-adv-x="1514" 
d="M121 1625l322 844h344l-199 -844h-467zM786 1625l321 844h346l-199 -844h-468z" />
    <glyph glyph-name="quotedblright" unicode="&#x201d;" horiz-adv-x="1514" 
d="M121 1625l199 844h467l-321 -844h-345zM787 1625l198 844h468l-322 -844h-344z" />
    <glyph glyph-name="quotedblbase" unicode="&#x201e;" horiz-adv-x="1530" 
d="M77 -411l199 844h467l-321 -844h-345zM743 -411l199 844h467l-322 -844h-344z" />
    <glyph glyph-name="dagger" unicode="&#x2020;" horiz-adv-x="1864" 
d="M707 1784v592h441v-592h603v-374h-603v-1830h-441v1830h-594v374h594z" />
    <glyph glyph-name="daggerdbl" unicode="&#x2021;" horiz-adv-x="1938" 
d="M747 -420v1090h-594v371h594v442h-594v376h594v517h438v-517h599v-376h-599v-442h599v-371h-599v-1090h-438z" />
    <glyph glyph-name="bullet" unicode="&#x2022;" horiz-adv-x="1236" 
d="M617 653q-193 0 -329.5 136.5t-136.5 329.5t136.5 329.5t329.5 136.5q126 0 233.5 -62.5t170 -170t62.5 -233.5q0 -193 -136.5 -329.5t-329.5 -136.5z" />
    <glyph glyph-name="ellipsis" unicode="&#x2026;" horiz-adv-x="3015" 
d="M441 -24q-152 0 -207 55t-55 201t56 201t206 55t206 -55t56 -201t-55.5 -201t-206.5 -55zM1508 -24q-152 0 -207 55t-55 201t56 201t206 55t206 -55t56 -201t-55.5 -201t-206.5 -55zM2574 -24q-152 0 -207 55t-55 201t56 201t206 55t206 -55t56 -201t-55.5 -201
t-206.5 -55z" />
    <glyph glyph-name="perthousand" unicode="&#x2030;" horiz-adv-x="4089" 
d="M640 957q-128 0 -219.5 28.5t-149.5 80.5t-91.5 140t-46 192t-12.5 251q0 104 6 185t21.5 155.5t41 128t65 98t94 71t127 41t164.5 14.5q128 0 219 -28.5t149 -80.5t91.5 -140t46 -192t12.5 -252q0 -147 -12.5 -251t-46 -192t-91.5 -140t-149 -80.5t-219 -28.5zM640 1201
q33 0 59.5 7t46.5 18t35.5 32t25.5 40.5t17 53.5t11 60.5t6 71.5t2.5 78t0.5 87q0 61 -0.5 97t-3 85.5t-8.5 78.5t-15.5 64t-24.5 54t-36 37t-50 25.5t-66 7.5t-66 -7.5t-50 -25.5t-36 -37t-24.5 -54t-15.5 -64t-8.5 -78.5t-3 -85.5t-0.5 -97q0 -55 0.5 -87t2.5 -77.5
t5.5 -72t10.5 -61t17.5 -53.5t26 -40.5t35.5 -32t46.5 -17.5t59.5 -7zM2223 -12q-128 0 -219 28.5t-149 80.5t-91.5 140t-46 192t-12.5 252q0 122 8.5 213t30 172.5t59 136t95 94.5t138 58.5t187.5 18.5t187.5 -18.5t138 -58.5t95 -94.5t59 -136t30 -172.5t8.5 -213
q0 -148 -12.5 -252t-46 -192t-91.5 -140t-149 -80.5t-219 -28.5zM2223 233q33 0 59.5 7t46.5 18t35.5 32t25.5 40.5t17 53.5t11 60.5t6 71.5t2.5 78t0.5 87t-0.5 87t-2.5 78t-6 72t-11 61t-17 53.5t-25.5 40.5t-35.5 32t-46.5 18t-59.5 7t-59.5 -7t-46.5 -18t-35.5 -32
t-25.5 -40.5t-17 -53.5t-11 -61t-6 -72t-2.5 -78t-0.5 -87t0.5 -87t2.5 -78t6 -71.5t11 -60.5t17 -53.5t25.5 -40.5t35.5 -32t46.5 -18t59.5 -7zM3436 -12q-92 0 -164.5 14.5t-127 41t-94 71t-65 98t-41 128t-21.5 155.5t-6 185q0 122 8.5 213t30 172.5t59.5 136t95 94.5
t138 58.5t188 18.5t187.5 -18.5t138 -58.5t95 -94.5t59 -136t30 -172.5t8.5 -213q0 -148 -12.5 -252t-46 -192t-91.5 -140t-149 -80.5t-219 -28.5zM3436 233q33 0 59.5 7t46.5 18t35 32t25.5 40.5t17.5 53t11 60.5t6 72t2.5 78t0.5 87t-0.5 87t-2.5 78t-6 72t-11 60.5
t-17.5 53.5t-25.5 41t-35 32t-46.5 18t-59.5 7t-59.5 -7t-46.5 -18t-35.5 -32t-26 -40.5t-17.5 -54t-10.5 -60.5t-5.5 -72t-2.5 -78t-0.5 -87t0.5 -87t2.5 -77.5t5.5 -72t10.5 -61t17.5 -53.5t26 -40.5t35.5 -32t46.5 -17.5t59.5 -7zM593 -48l1367 2426h308l-1368 -2426
h-307z" />
    <glyph glyph-name="guilsinglleft" unicode="&#x2039;" horiz-adv-x="1114" 
d="M544 862l443 -690h-414l-488 690l488 690h414z" />
    <glyph glyph-name="guilsinglright" unicode="&#x203a;" horiz-adv-x="1115" 
d="M1030 862l-489 -690h-413l443 690l-443 690h413z" />
    <glyph glyph-name="fraction" unicode="&#x2044;" horiz-adv-x="542" 
d="M-567 -48l1368 2426h308l-1369 -2426h-307z" />
    <glyph glyph-name="uni2070" unicode="&#x2070;" horiz-adv-x="1273" 
d="M637 1346q-128 0 -219.5 28.5t-149.5 80.5t-91.5 140t-46 192t-12.5 251q0 104 6 185t21.5 155.5t41 128t65 98t94 71t127 41t164.5 14.5q128 0 219 -28.5t149 -80.5t91.5 -140t46 -192t12.5 -252q0 -147 -12.5 -251t-46 -192t-91.5 -140t-149 -80.5t-219 -28.5z
M637 1591q33 0 59.5 7t46.5 17.5t35.5 32t25.5 40.5t17 53t11 60.5t6 71.5t2.5 78t0.5 87t-0.5 87t-2.5 78t-6 72t-11 60.5t-17.5 53.5t-25.5 41t-35 32t-46.5 18t-59.5 7t-59.5 -7t-46.5 -18t-35.5 -32t-26 -40.5t-17.5 -54t-10.5 -60.5t-5.5 -72t-2.5 -78t-0.5 -87
t0.5 -87t2.5 -77.5t5.5 -72t10.5 -60.5t17.5 -53t26 -40.5t35.5 -32t46.5 -17.5t59.5 -7z" />
    <glyph glyph-name="uni2074" unicode="&#x2074;" horiz-adv-x="1222" 
d="M679 1358v300h-426q-109 0 -153.5 39.5t-44.5 114.5q0 85 100 214l444 573q58 76 108.5 103t118.5 27q70 0 114.5 -44t44.5 -128v-663h164v-236h-164v-300h-306zM680 2300l-304 -406h304v406z" />
    <glyph glyph-name="uni2075" unicode="&#x2075;" horiz-adv-x="1170" 
d="M449 2462l-16 -234q12 0 33 0.5t29 0.5q109 0 187.5 -8.5t155.5 -35.5t124.5 -73t76.5 -125t29 -189q0 -236 -131.5 -342.5t-393.5 -106.5q-223 0 -450 50l32 236q233 -33 356 -33q79 0 124 7.5t79 30.5t47 66t13 115q0 44 -18 75.5t-45.5 49.5t-71.5 28.5t-85 13.5
t-96 3q-145 0 -303 -8l51 736h861v-257h-588z" />
    <glyph glyph-name="uni2076" unicode="&#x2076;" horiz-adv-x="1241" 
d="M645 2234q126 0 214 -19t157.5 -67t103.5 -135t34 -216q0 -108 -25.5 -188t-70 -131t-113 -82t-147 -43t-179.5 -12q-122 0 -211.5 26.5t-146 72.5t-90.5 119.5t-47 156.5t-13 194q0 162 12.5 277t46 210t87 155t139 101t199 57.5t270.5 16.5q11 0 185 -3l24 -236
q-32 -2 -88.5 -2.5t-99.5 -1t-100 -5.5t-99.5 -14t-88.5 -28.5t-76.5 -47t-52.5 -70.5t-28 -99q118 14 204 14zM612 2002q-75 0 -187 -14q-3 -33 -3 -107q0 -65 6.5 -111t25 -91t59 -68.5t101.5 -23.5q131 0 179.5 46.5t48.5 167.5q0 116 -56.5 158.5t-173.5 42.5z" />
    <glyph glyph-name="uni2077" unicode="&#x2077;" horiz-adv-x="1076" 
d="M1019 2489l-508 -1128h-349l538 1098h-640v258h803q86 0 133 -36.5t47 -100.5q0 -38 -24 -91z" />
    <glyph glyph-name="uni2078" unicode="&#x2078;" horiz-adv-x="1240" 
d="M621 2731q503 0 503 -348q0 -116 -37.5 -185.5t-144.5 -131.5q100 -60 149.5 -133.5t49.5 -187.5q0 -96 -27.5 -167.5t-72.5 -115t-114 -70.5t-141.5 -36.5t-164.5 -9.5q-121 0 -212 19.5t-163 64t-109.5 123.5t-37.5 191t49 183t153 135q-93 54 -137.5 128.5
t-44.5 192.5q0 348 502 348zM621 1585q100 0 156.5 35.5t56.5 129.5q0 66 -20 102t-77.5 59t-170.5 35q-160 -35 -160 -196q0 -49 15.5 -82.5t46.5 -51t67 -24.5t86 -7zM676 2179q81 22 117 59t36 112q0 87 -53 117.5t-155 30.5q-48 0 -81 -5.5t-63 -20.5t-45 -45.5
t-15 -76.5q0 -39 9.5 -65t36 -50t79 -37.5t134.5 -18.5z" />
    <glyph glyph-name="uni2079" unicode="&#x2079;" horiz-adv-x="1241" 
d="M594 1843q-99 0 -174.5 11.5t-140.5 41t-106 78.5t-64.5 125.5t-23.5 180.5q0 108 25.5 188t70 131t113.5 82t147.5 43t179.5 12q122 0 211.5 -26.5t146 -72.5t90 -119t46.5 -156.5t13 -194.5q0 -121 -7 -214t-24 -175.5t-44.5 -142t-70 -109.5t-98 -81.5t-132 -53.5
t-168.5 -31.5t-210 -9.5q-29 0 -184 4l-25 235q32 2 89 2.5t99.5 1t100 5.5t100 14t88.5 28.5t76.5 47t52.5 70.5t28 99q-120 -14 -205 -14zM628 2075q82 0 187 15q3 50 3 106q0 51 -3.5 89.5t-15.5 79t-32 66.5t-56 43t-85 17q-131 0 -180 -46.5t-49 -167.5
q0 -117 56.5 -159.5t174.5 -42.5z" />
    <glyph glyph-name="uni2080" unicode="&#x2080;" horiz-adv-x="1273" 
d="M637 -402q-128 0 -219.5 28.5t-149.5 80.5t-91.5 140t-46 192t-12.5 251q0 104 6 185t21.5 155.5t41 128t65 98t94 71t127 41t164.5 14.5q128 0 219 -28.5t149 -80.5t91.5 -140t46 -192t12.5 -252q0 -147 -12.5 -251t-46 -192t-91.5 -140t-149 -80.5t-219 -28.5z
M637 -157q33 0 59.5 7t46.5 17.5t35.5 32t25.5 40.5t17 53t11 60.5t6 71.5t2.5 78t0.5 87t-0.5 87t-2.5 78t-6 72t-11 60.5t-17.5 53.5t-25.5 41t-35 32t-46.5 18t-59.5 7t-59.5 -7t-46.5 -18t-35.5 -32t-26 -40.5t-17.5 -54t-10.5 -60.5t-5.5 -72t-2.5 -78t-0.5 -87
t0.5 -87t2.5 -77.5t5.5 -72t10.5 -60.5t17.5 -53t26 -40.5t35.5 -32t46.5 -17.5t59.5 -7z" />
    <glyph glyph-name="uni2081" unicode="&#x2081;" horiz-adv-x="808" 
d="M339 -387v1054q-118 -27 -292 -47l-14 241q207 30 377 108h239v-1356h-310z" />
    <glyph glyph-name="uni2082" unicode="&#x2082;" horiz-adv-x="1176" 
d="M137 697l-29 235q256 49 460 49q88 0 159.5 -9.5t136 -34t107.5 -64t68.5 -101.5t25.5 -144q0 -184 -99.5 -307.5t-302.5 -203.5q-121 -48 -166 -101t-59 -147h626v-259h-980q14 79 22.5 124t21.5 106t23.5 95.5t26.5 81t32 73t39 61t48.5 56.5t59.5 47.5t73 46t88 41.5
q126 53 178.5 104t52.5 135q0 90 -61 119t-235 29q-122 0 -316 -32z" />
    <glyph glyph-name="uni2083" unicode="&#x2083;" horiz-adv-x="1155" 
d="M524 983q72 0 131 -5.5t119.5 -19.5t105.5 -40.5t81 -65t55 -96t19 -130.5q0 -201 -172 -299q98 -43 145.5 -113t47.5 -178q0 -124 -36.5 -210t-108.5 -135.5t-168 -71t-226 -21.5q-179 0 -435 49l33 236q238 -32 353 -32q144 0 203.5 34.5t59.5 140.5q0 144 -124 159
q-109 14 -276 14h-43v224q160 4 318 26q58 9 84.5 45.5t26.5 102.5q0 37 -11 62.5t-28.5 40t-47 22.5t-58 10.5t-70.5 2.5q-122 0 -376 -33l-31 233q254 48 429 48z" />
    <glyph glyph-name="uni2084" unicode="&#x2084;" horiz-adv-x="1222" 
d="M679 -390v300h-426q-109 0 -153.5 39.5t-44.5 114.5q0 85 100 214l444 573q58 76 108.5 103t118.5 27q70 0 114.5 -44t44.5 -128v-663h164v-236h-164v-300h-306zM680 552l-304 -406h304v406z" />
    <glyph glyph-name="uni2085" unicode="&#x2085;" horiz-adv-x="1170" 
d="M449 714l-16 -234q12 0 33 0.5t29 0.5q109 0 187.5 -8.5t155.5 -35.5t124.5 -73t76.5 -125t29 -189q0 -236 -131.5 -342.5t-393.5 -106.5q-223 0 -450 50l32 236q233 -33 356 -33q79 0 124 7.5t79 30.5t47 66t13 115q0 44 -18 75.5t-45.5 49.5t-71.5 28.5t-85 13.5t-96 3
q-145 0 -303 -8l51 736h861v-257h-588z" />
    <glyph glyph-name="uni2086" unicode="&#x2086;" horiz-adv-x="1241" 
d="M645 486q126 0 214 -19t157.5 -67t103.5 -135t34 -216q0 -108 -25.5 -188t-70 -131t-113 -82t-147 -43t-179.5 -12q-122 0 -211.5 26.5t-146 72.5t-90.5 119.5t-47 156.5t-13 194q0 162 12.5 277t46 210t87 155t139 101t199 57.5t270.5 16.5q11 0 185 -3l24 -236
q-32 -2 -88.5 -2.5t-99.5 -1t-100 -5.5t-99.5 -14t-88.5 -28.5t-76.5 -47t-52.5 -70.5t-28 -99q118 14 204 14zM612 254q-75 0 -187 -14q-3 -33 -3 -107q0 -65 6.5 -111t25 -91t59 -68.5t101.5 -23.5q131 0 179.5 46.5t48.5 167.5q0 116 -56.5 158.5t-173.5 42.5z" />
    <glyph glyph-name="uni2087" unicode="&#x2087;" horiz-adv-x="1076" 
d="M1019 741l-508 -1128h-349l538 1098h-640v258h803q86 0 133 -36.5t47 -100.5q0 -38 -24 -91z" />
    <glyph glyph-name="uni2088" unicode="&#x2088;" horiz-adv-x="1240" 
d="M621 983q503 0 503 -348q0 -116 -37.5 -185.5t-144.5 -131.5q100 -60 149.5 -133.5t49.5 -187.5q0 -96 -27.5 -167.5t-72.5 -115t-114 -70.5t-141.5 -36.5t-164.5 -9.5q-121 0 -212 19.5t-163 64t-109.5 123.5t-37.5 191t49 183t153 135q-93 54 -137.5 128.5t-44.5 192.5
q0 348 502 348zM621 -163q100 0 156.5 35.5t56.5 129.5q0 66 -20 102t-77.5 59t-170.5 35q-160 -35 -160 -196q0 -49 15.5 -82.5t46.5 -51t67 -24.5t86 -7zM676 431q81 22 117 59t36 112q0 87 -53 117.5t-155 30.5q-48 0 -81 -5.5t-63 -20.5t-45 -45.5t-15 -76.5
q0 -39 9.5 -65t36 -50t79 -37.5t134.5 -18.5z" />
    <glyph glyph-name="uni2089" unicode="&#x2089;" horiz-adv-x="1241" 
d="M594 95q-99 0 -174.5 11.5t-140.5 41t-106 78.5t-64.5 125.5t-23.5 180.5q0 108 25.5 188t70 131t113.5 82t147.5 43t179.5 12q122 0 211.5 -26.5t146 -72.5t90 -119t46.5 -156.5t13 -194.5q0 -121 -7 -214t-24 -175.5t-44.5 -142t-70 -109.5t-98 -81.5t-132 -53.5
t-168.5 -31.5t-210 -9.5q-29 0 -184 4l-25 235q32 2 89 2.5t99.5 1t100 5.5t100 14t88.5 28.5t76.5 47t52.5 70.5t28 99q-120 -14 -205 -14zM628 327q82 0 187 15q3 50 3 106q0 51 -3.5 89.5t-15.5 79t-32 66.5t-56 43t-85 17q-131 0 -180 -46.5t-49 -167.5
q0 -117 56.5 -159.5t174.5 -42.5z" />
    <glyph glyph-name="Euro" unicode="&#x20ac;" horiz-adv-x="1842" 
d="M137 1220l54 248h173q19 217 69 366.5t144.5 252.5t239 150t351.5 47q290 0 519 -74l-35 -354q-223 44 -406 44q-91 0 -160.5 -20.5t-115.5 -56t-77 -91t-47.5 -118.5t-24.5 -146h698l-54 -248h-655v-162h619l-53 -247h-557q7 -87 22.5 -152.5t46.5 -124t77 -95.5
t116.5 -58t164.5 -21q185 0 405 44l36 -356q-228 -72 -519 -72q-210 0 -355.5 48t-239.5 153.5t-143 258t-67 375.5h-247l53 247h183v72q0 60 1 90h-216z" />
    <glyph glyph-name="uni2113" unicode="&#x2113;" horiz-adv-x="1728" 
d="M381 941q0 203 4.5 347.5t20 313t42.5 283.5t75.5 229t117 181.5t167.5 109t226 41.5q109 0 194.5 -40.5t138.5 -111t80 -161t27 -196.5q0 -504 -687 -1063q10 -123 23.5 -212t38 -168.5t59 -128t86 -76t120.5 -27.5q83 0 166.5 53t200.5 167l158 -176
q-248 -330 -602 -330q-118 0 -215 35t-165 94.5t-120 145t-82.5 179t-49.5 205.5l-207 -125l-117 228zM783 1272q173 181 261.5 341.5t88.5 333.5q0 230 -126 230q-153 0 -198 -335q-19 -144 -24 -483q-1 -55 -2 -87z" />
    <glyph glyph-name="trademark" unicode="&#x2122;" horiz-adv-x="3192" 
d="M2937 932h-284v964h-2l-376 -964h-188l-376 963h-2v-963h-285v1398h395l367 -933l361 933h390v-1398zM1233 2330v-247h-415v-1151h-285v1151h-415v247h1115z" />
    <glyph glyph-name="Omega" unicode="&#x2126;" horiz-adv-x="2560" 
d="M152 0v355h391q-157 173 -250.5 397t-93.5 487q0 242 84.5 450.5t230 354t347.5 228t432 82.5q191 0 361.5 -59t298.5 -163t221.5 -242.5t141.5 -302.5t48 -337q0 -269 -95 -497t-250 -398h390v-355h-987v265q100 60 187.5 149t159.5 206.5t113.5 270t41.5 319.5
q0 111 -25.5 222.5t-78 213.5t-126 180.5t-178.5 125.5t-226 47q-193 0 -342.5 -107.5t-228 -287.5t-78.5 -400q0 -157 42 -307.5t113 -269.5t159.5 -211.5t186.5 -150.5v-265h-990z" />
    <glyph glyph-name="estimated" unicode="&#x212e;" horiz-adv-x="2703" 
d="M2206 496h206q-99 -120 -206 -212t-236 -163t-283.5 -108t-329.5 -37q-266 0 -493 84t-384 229.5t-246 348t-89 433.5q0 144 38.5 282t109.5 259.5t178.5 223.5t239.5 175t297.5 114t348.5 41q224 0 413 -54t328.5 -151.5t241 -234.5t159 -301.5t74.5 -353.5h-1898v-741
q280 -236 682 -236q534 0 849 402zM675 1809v-619h1368v619q-302 240 -686 240q-404 0 -682 -240z" />
    <glyph glyph-name="uni2190" unicode="&#x2190;" horiz-adv-x="2332" 
d="M820 789l494 -618h-430l-753 807l753 807h430l-494 -617h1381v-379h-1381z" />
    <glyph glyph-name="uni2191" unicode="&#x2191;" horiz-adv-x="1877" 
d="M1128 1325v-1382h-378v1382l-619 -493v429l807 753l808 -753v-429z" />
    <glyph glyph-name="uni2192" unicode="&#x2192;" horiz-adv-x="2332" 
d="M2201 978l-753 -807h-430l494 618h-1381v379h1381l-494 617h430z" />
    <glyph glyph-name="uni2193" unicode="&#x2193;" horiz-adv-x="1876" 
d="M1745 1126v-429l-807 -754l-807 754v429l618 -494v1382h379v-1382z" />
    <glyph glyph-name="uni21E8" unicode="&#x21e8;" horiz-adv-x="2665" 
d="M1552 525h-1363v908h1363v555l1043 -1009l-1043 -1010v556zM2364 979l-649 617v-326h-1365v-582h1365v-326z" />
    <glyph glyph-name="partialdiff" unicode="&#x2202;" horiz-adv-x="1846" 
d="M780 -24q-129 0 -237.5 39t-185.5 107.5t-130.5 161.5t-79.5 200.5t-26 224.5q0 251 92 443.5t271 302.5t422 110q188 0 339 -130q-29 713 -440 713q-115 0 -204.5 -30.5t-195.5 -98.5l-80 266q264 184 563 184q201 0 353.5 -84t247.5 -238.5t142.5 -364.5t47.5 -472
q0 -394 -104.5 -693.5t-309.5 -470t-485 -170.5zM926 1250q-86 0 -156 -45t-115 -121t-69 -172.5t-24 -202.5q0 -82 15.5 -157t46 -136.5t80.5 -98.5t113 -37q79 0 145 47t111 122.5t79 179.5t53 209.5t28 220.5q-61 92 -134 141.5t-173 49.5z" />
    <glyph glyph-name="Delta" unicode="&#x2206;" horiz-adv-x="2263" 
d="M2160 251v-251h-2057v245l811 2085h452zM1674 344l-546 1438l-550 -1438h1096z" />
    <glyph glyph-name="product" unicode="&#x220f;" horiz-adv-x="2613" 
d="M2511 2400v-374h-369v-2469h-450v2469h-768v-2469h-450v2469h-372v374h2409z" />
    <glyph glyph-name="summation" unicode="&#x2211;" horiz-adv-x="2076" 
d="M116 2400h1817v-360h-1216l767 -1015l-836 -1079h1338v-389h-1908v262l894 1158l-856 1150v273z" />
    <glyph glyph-name="minus" unicode="&#x2212;" horiz-adv-x="1917" 
d="M131 789v379h1655v-379h-1655z" />
    <glyph glyph-name="uni2215" unicode="&#x2215;" horiz-adv-x="542" 
d="M-567 -48l1368 2426h308l-1369 -2426h-307z" />
    <glyph glyph-name="uni2219" unicode="&#x2219;" horiz-adv-x="929" 
d="M464 699q-152 0 -207 54.5t-55 201.5q0 146 56 201t206 55t206.5 -55t56.5 -201t-55.5 -201t-207.5 -55z" />
    <glyph glyph-name="radical" unicode="&#x221a;" horiz-adv-x="1936" 
d="M1890 2866l-703 -3076h-366l-462 1345l-227 -88l-90 289l595 234l351 -1086l535 2382h367z" />
    <glyph glyph-name="infinity" unicode="&#x221e;" horiz-adv-x="2783" 
d="M699 1586q305 0 583 -317q55 66 92 108t94 100t107 94.5t112 71.5t130 51.5t140 16.5q153 0 279.5 -60.5t208 -162.5t126 -233.5t44.5 -276.5q0 -115 -27.5 -222.5t-83.5 -200t-133.5 -161.5t-184 -108.5t-229.5 -39.5q-62 0 -122.5 14t-110.5 35t-103 57t-92.5 69
t-88 83.5t-80.5 87.5t-78 92q-272 -309 -583 -309q-119 0 -224.5 50.5t-178.5 133.5t-115.5 192.5t-42.5 226.5t42.5 227.5t115.5 194.5t178.5 135t224.5 51zM699 730q81 0 167.5 56t198.5 192q-113 138 -199 195t-167 57q-91 0 -149.5 -68t-58.5 -184q0 -115 58.5 -181.5
t149.5 -66.5zM1957 605q131 0 213.5 98.5t82.5 274.5q0 177 -82.5 275.5t-213.5 98.5q-199 0 -455 -374q257 -373 455 -373z" />
    <glyph glyph-name="integral" unicode="&#x222b;" horiz-adv-x="1282" 
d="M1268 2357q-103 76 -213 76q-55 0 -97.5 -24t-69 -68.5t-45 -96.5t-27 -121.5t-12 -129.5t-3.5 -132q0 -263 29.5 -792t29.5 -805q0 -80 -8 -159.5t-28 -167t-50.5 -164.5t-79.5 -147.5t-111 -121t-148.5 -80.5t-189.5 -30q-89 0 -195.5 33.5t-167.5 72.5l77 298
q109 -75 253 -75q73 0 121.5 35.5t76 110t38.5 172t11 238.5q0 251 -28.5 805t-28.5 805q0 90 7 171t26 170t49 162.5t79.5 141t114 114t156 74t202.5 27.5q82 0 167.5 -30.5t146.5 -70.5z" />
    <glyph glyph-name="approxequal" unicode="&#x2248;" horiz-adv-x="2154" 
d="M1933 896v-377q-90 -94 -222.5 -142t-264.5 -48q-89 0 -170.5 21t-145 51.5t-126 61t-139 51.5t-157.5 21q-131 0 -264 -48t-223 -142v378q90 94 223 142t264 48q88 0 170 -21.5t145.5 -51.5t126.5 -60.5t139 -52t157 -21.5q132 0 264.5 48t222.5 142zM1933 1611v-378
q-90 -94 -222.5 -142t-264.5 -48q-89 0 -170.5 21.5t-145 51.5t-126 60.5t-139 52t-157.5 21.5q-131 0 -264 -48t-223 -142v377q90 94 223 142t264 48q88 0 170 -21t145.5 -51.5t126.5 -61t139 -51.5t157 -21q132 0 264.5 48t222.5 142z" />
    <glyph glyph-name="notequal" unicode="&#x2260;" horiz-adv-x="2097" 
d="M221 431v379h603l147 337h-750v379h916l211 482h301l-211 -482h438v-379h-604l-147 -337h751v-379h-917l-210 -482h-301l210 482h-437z" />
    <glyph glyph-name="lessequal" unicode="&#x2264;" horiz-adv-x="2094" 
d="M171 1080v311l1701 651v-389l-1140 -418l1140 -417v-390zM171 -85v378h1701v-378h-1701z" />
    <glyph glyph-name="greaterequal" unicode="&#x2265;" horiz-adv-x="2096" 
d="M223 818l1140 417l-1140 418v389l1702 -651v-311l-1702 -652v390zM223 -85v378h1702v-378h-1702z" />
    <glyph glyph-name="lozenge" unicode="&#x25ca;" horiz-adv-x="1920" 
d="M1798 1167l-669 -1260h-336l-670 1260l670 1256h336zM961 340l421 827l-421 829l-422 -829z" />
    <glyph glyph-name="zero.numerator" horiz-adv-x="1273" 
d="M637 957q-128 0 -219.5 28.5t-149.5 80.5t-91.5 140t-46 192t-12.5 251q0 104 6 185t21.5 155.5t41 128t65 98t94 71t127 41t164.5 14.5q128 0 219 -28.5t149 -80.5t91.5 -140t46 -192t12.5 -252q0 -147 -12.5 -251t-46 -192t-91.5 -140t-149 -80.5t-219 -28.5zM637 1202
q33 0 59.5 7t46.5 17.5t35.5 32t25.5 40.5t17 53t11 60.5t6 71.5t2.5 78t0.5 87t-0.5 87t-2.5 78t-6 72t-11 60.5t-17.5 53.5t-25.5 41t-35 32t-46.5 18t-59.5 7t-59.5 -7t-46.5 -18t-35.5 -32t-26 -40.5t-17.5 -54t-10.5 -60.5t-5.5 -72t-2.5 -78t-0.5 -87t0.5 -87
t2.5 -77.5t5.5 -72t10.5 -60.5t17.5 -53t26 -40.5t35.5 -32t46.5 -17.5t59.5 -7z" />
    <glyph glyph-name="one.numerator" horiz-adv-x="808" 
d="M339 972v1054q-118 -27 -292 -47l-14 241q207 30 377 108h239v-1356h-310z" />
    <glyph glyph-name="two.numerator" horiz-adv-x="1176" 
d="M137 2056l-29 235q256 49 460 49q88 0 159.5 -9.5t136 -34t107.5 -64t68.5 -101.5t25.5 -144q0 -184 -99.5 -307.5t-302.5 -203.5q-121 -48 -166 -101t-59 -147h626v-259h-980q14 79 22.5 124t21.5 106t23.5 95.5t26.5 81t32 73t39 61t48.5 56.5t59.5 47.5t73 46t88 41.5
q126 53 178.5 104t52.5 135q0 90 -61 119t-235 29q-122 0 -316 -32z" />
    <glyph glyph-name="three.numerator" horiz-adv-x="1155" 
d="M524 2342q72 0 131 -5.5t119.5 -19.5t105.5 -40.5t81 -65t55 -96t19 -130.5q0 -201 -172 -299q98 -43 145.5 -113t47.5 -178q0 -124 -36.5 -210t-108.5 -135.5t-168 -71t-226 -21.5q-179 0 -435 49l33 236q238 -32 353 -32q144 0 203.5 34.5t59.5 140.5q0 144 -124 159
q-109 14 -276 14h-43v224q160 4 318 26q58 9 84.5 45.5t26.5 102.5q0 37 -11 62.5t-28.5 40t-47 22.5t-58 10.5t-70.5 2.5q-122 0 -376 -33l-31 233q254 48 429 48z" />
    <glyph glyph-name="four.numerator" horiz-adv-x="1222" 
d="M679 969v300h-426q-109 0 -153.5 39.5t-44.5 114.5q0 85 100 214l444 573q58 76 108.5 103t118.5 27q70 0 114.5 -44t44.5 -128v-663h164v-236h-164v-300h-306zM680 1911l-304 -406h304v406z" />
    <glyph glyph-name="five.numerator" horiz-adv-x="1170" 
d="M449 2073l-16 -234q12 0 33 0.5t29 0.5q109 0 187.5 -8.5t155.5 -35.5t124.5 -73t76.5 -125t29 -189q0 -236 -131.5 -342.5t-393.5 -106.5q-223 0 -450 50l32 236q233 -33 356 -33q79 0 124 7.5t79 30.5t47 66t13 115q0 44 -18 75.5t-45.5 49.5t-71.5 28.5t-85 13.5
t-96 3q-145 0 -303 -8l51 736h861v-257h-588z" />
    <glyph glyph-name="six.numerator" horiz-adv-x="1241" 
d="M645 1845q126 0 214 -19t157.5 -67t103.5 -135t34 -216q0 -108 -25.5 -188t-70 -131t-113 -82t-147 -43t-179.5 -12q-122 0 -211.5 26.5t-146 72.5t-90.5 119.5t-47 156.5t-13 194q0 162 12.5 277t46 210t87 155t139 101t199 57.5t270.5 16.5q11 0 185 -3l24 -236
q-32 -2 -88.5 -2.5t-99.5 -1t-100 -5.5t-99.5 -14t-88.5 -28.5t-76.5 -47t-52.5 -70.5t-28 -99q118 14 204 14zM612 1613q-75 0 -187 -14q-3 -33 -3 -107q0 -65 6.5 -111t25 -91t59 -68.5t101.5 -23.5q131 0 179.5 46.5t48.5 167.5q0 116 -56.5 158.5t-173.5 42.5z" />
    <glyph glyph-name="seven.numerator" horiz-adv-x="1076" 
d="M1019 2100l-508 -1128h-349l538 1098h-640v258h803q86 0 133 -36.5t47 -100.5q0 -39 -24 -91z" />
    <glyph glyph-name="eight.numerator" horiz-adv-x="1240" 
d="M621 2342q503 0 503 -348q0 -116 -37.5 -185.5t-144.5 -131.5q100 -60 149.5 -133.5t49.5 -187.5q0 -96 -27.5 -167.5t-72.5 -115t-114 -70.5t-141.5 -36.5t-164.5 -9.5q-121 0 -212 19.5t-163 64t-109.5 123.5t-37.5 191t49 183t153 135q-93 54 -137.5 128.5
t-44.5 192.5q0 348 502 348zM621 1196q100 0 156.5 35.5t56.5 129.5q0 66 -20 102t-77.5 59t-170.5 35q-160 -35 -160 -196q0 -49 15.5 -82.5t46.5 -51t67 -24.5t86 -7zM676 1790q81 22 117 59t36 112q0 87 -53 117.5t-155 30.5q-48 0 -81 -5.5t-63 -20.5t-45 -45.5
t-15 -76.5q0 -39 9.5 -65t36 -50t79 -37.5t134.5 -18.5z" />
    <glyph glyph-name="nine.numerator" horiz-adv-x="1241" 
d="M594 1454q-99 0 -174.5 11.5t-140.5 41t-106 78.5t-64.5 125.5t-23.5 180.5q0 108 25.5 188t70 131t113.5 82t147.5 43t179.5 12q122 0 211.5 -26.5t146 -72.5t90 -119t46.5 -156.5t13 -194.5q0 -121 -7 -214t-24 -175.5t-44.5 -142t-70 -109.5t-98 -81.5t-132 -53.5
t-168.5 -31.5t-210 -9.5q-29 0 -184 4l-25 235q32 2 89 2.5t99.5 1t100 5.5t100 14t88.5 28.5t76.5 47t52.5 70.5t28 99q-120 -14 -205 -14zM628 1686q82 0 187 15q3 49 3 106q0 51 -3.5 89.5t-15.5 79t-32 66.5t-56 43t-85 17q-131 0 -180 -46.5t-49 -167.5
q0 -117 56.5 -159.5t174.5 -42.5z" />
    <glyph glyph-name="zero.denominator" horiz-adv-x="1273" 
d="M637 -12q-128 0 -219.5 28.5t-149.5 80.5t-91.5 140t-46 192t-12.5 251q0 104 6 185t21.5 155.5t41 128t65 98t94 71t127 41t164.5 14.5q128 0 219 -28.5t149 -80.5t91.5 -140t46 -192t12.5 -252q0 -147 -12.5 -251t-46 -192t-91.5 -140t-149 -80.5t-219 -28.5zM637 233
q33 0 59.5 7t46.5 17.5t35.5 32t25.5 40.5t17 53t11 60.5t6 71.5t2.5 78t0.5 87t-0.5 87t-2.5 78t-6 72t-11 60.5t-17.5 53.5t-25.5 41t-35 32t-46.5 18t-59.5 7t-59.5 -7t-46.5 -18t-35.5 -32t-26 -40.5t-17.5 -54t-10.5 -60.5t-5.5 -72t-2.5 -78t-0.5 -87t0.5 -87
t2.5 -77.5t5.5 -72t10.5 -60.5t17.5 -53t26 -40.5t35.5 -32t46.5 -17.5t59.5 -7z" />
    <glyph glyph-name="one.denominator" horiz-adv-x="808" 
d="M339 3v1054q-118 -27 -292 -47l-14 241q207 30 377 108h239v-1356h-310z" />
    <glyph glyph-name="two.denominator" horiz-adv-x="1176" 
d="M137 1087l-29 235q256 49 460 49q88 0 159.5 -9.5t136 -34t107.5 -64t68.5 -101.5t25.5 -144q0 -184 -99.5 -307.5t-302.5 -203.5q-121 -48 -166 -101t-59 -147h626v-259h-980q14 79 22.5 124t21.5 106t23.5 95.5t26.5 81t32 73t39 61t48.5 56.5t59.5 47.5t73 46t88 41.5
q126 53 178.5 104t52.5 135q0 90 -61 119t-235 29q-122 0 -316 -32z" />
    <glyph glyph-name="three.denominator" horiz-adv-x="1155" 
d="M524 1373q72 0 131 -5.5t119.5 -19.5t105.5 -40.5t81 -65t55 -96t19 -130.5q0 -201 -172 -299q98 -43 145.5 -113t47.5 -178q0 -124 -36.5 -210t-108.5 -135.5t-168 -71t-226 -21.5q-179 0 -435 49l33 236q238 -32 353 -32q144 0 203.5 34.5t59.5 140.5q0 144 -124 159
q-109 14 -276 14h-43v224q160 4 318 26q58 9 84.5 45.5t26.5 102.5q0 37 -11 62.5t-28.5 40t-47 22.5t-58 10.5t-70.5 2.5q-122 0 -376 -33l-31 233q254 48 429 48z" />
    <glyph glyph-name="four.denominator" horiz-adv-x="1222" 
d="M679 0v300h-426q-109 0 -153.5 39.5t-44.5 114.5q0 85 100 214l444 573q58 76 108.5 103t118.5 27q70 0 114.5 -44t44.5 -128v-663h164v-236h-164v-300h-306zM680 942l-304 -406h304v406z" />
    <glyph glyph-name="five.denominator" horiz-adv-x="1170" 
d="M449 1104l-16 -234q12 0 33 0.5t29 0.5q109 0 187.5 -8.5t155.5 -35.5t124.5 -73t76.5 -125t29 -189q0 -236 -131.5 -342.5t-393.5 -106.5q-223 0 -450 50l32 236q233 -33 356 -33q79 0 124 7.5t79 30.5t47 66t13 115q0 44 -18 75.5t-45.5 49.5t-71.5 28.5t-85 13.5
t-96 3q-145 0 -303 -8l51 736h861v-257h-588z" />
    <glyph glyph-name="six.denominator" horiz-adv-x="1241" 
d="M645 876q126 0 214 -19t157.5 -67t103.5 -135t34 -216q0 -108 -25.5 -188t-70 -131t-113 -82t-147 -43t-179.5 -12q-122 0 -211.5 26.5t-146 72.5t-90.5 119.5t-47 156.5t-13 194q0 162 12.5 277t46 210t87 155t139 101t199 57.5t270.5 16.5q11 0 185 -3l24 -236
q-32 -2 -88.5 -2.5t-99.5 -1t-100 -5.5t-99.5 -14t-88.5 -28.5t-76.5 -47t-52.5 -70.5t-28 -99q118 14 204 14zM612 644q-75 0 -187 -14q-3 -33 -3 -107q0 -65 6.5 -111t25 -91t59 -68.5t101.5 -23.5q131 0 179.5 46.5t48.5 167.5q0 116 -56.5 158.5t-173.5 42.5z" />
    <glyph glyph-name="seven.denominator" horiz-adv-x="1076" 
d="M1019 1131l-508 -1128h-349l538 1098h-640v258h803q86 0 133 -36.5t47 -100.5q0 -38 -24 -91z" />
    <glyph glyph-name="eight.denominator" horiz-adv-x="1240" 
d="M621 1373q503 0 503 -348q0 -116 -37.5 -185.5t-144.5 -131.5q100 -60 149.5 -133.5t49.5 -187.5q0 -96 -27.5 -167.5t-72.5 -115t-114 -70.5t-141.5 -36.5t-164.5 -9.5q-121 0 -212 19.5t-163 64t-109.5 123.5t-37.5 191t49 183t153 135q-93 54 -137.5 128.5
t-44.5 192.5q0 348 502 348zM621 227q100 0 156.5 35.5t56.5 129.5q0 66 -20 102t-77.5 59t-170.5 35q-160 -35 -160 -196q0 -49 15.5 -82.5t46.5 -51t67 -24.5t86 -7zM676 821q81 22 117 59t36 112q0 87 -53 117.5t-155 30.5q-48 0 -81 -5.5t-63 -20.5t-45 -45.5t-15 -76.5
q0 -39 9.5 -65t36 -50t79 -37.5t134.5 -18.5z" />
    <glyph glyph-name="nine.denominator" horiz-adv-x="1241" 
d="M594 485q-99 0 -174.5 11.5t-140.5 41t-106 78.5t-64.5 125.5t-23.5 180.5q0 108 25.5 188t70 131t113.5 82t147.5 43t179.5 12q122 0 211.5 -26.5t146 -72.5t90 -119t46.5 -156.5t13 -194.5q0 -121 -7 -214t-24 -175.5t-44.5 -142t-70 -109.5t-98 -81.5t-132 -53.5
t-168.5 -31.5t-210 -9.5q-29 0 -184 4l-25 235q32 2 89 2.5t99.5 1t100 5.5t100 14t88.5 28.5t76.5 47t52.5 70.5t28 99q-120 -14 -205 -14zM628 717q82 0 187 15q3 50 3 106q0 51 -3.5 89.5t-15.5 79t-32 66.5t-56 43t-85 17q-131 0 -180 -46.5t-49 -167.5
q0 -117 56.5 -159.5t174.5 -42.5z" />
    <glyph glyph-name="zero.onum" horiz-adv-x="1907" 
d="M954 -24q-138 0 -246 20t-189.5 58t-140.5 100t-98 137.5t-61.5 179.5t-32 217.5t-9.5 259.5q0 147 9 260.5t32 218t61.5 179.5t97.5 137.5t140.5 100t190 58t246.5 20.5q107 0 196.5 -12t161.5 -35t129.5 -60.5t101.5 -83.5t76 -108.5t53.5 -131.5t34 -157t18 -180.5
t5.5 -205.5q0 -146 -9 -259t-32 -217.5t-61.5 -180t-97.5 -137.5t-140.5 -99.5t-189.5 -58t-246 -20.5zM954 331q69 0 122 16t88.5 39.5t60 71.5t37.5 89.5t19.5 117t8 131t1.5 152.5q0 85 -1 135t-5.5 118.5t-13.5 108t-25 87.5t-41 74t-59.5 51t-82.5 35t-109 10t-109 -10
t-82.5 -35t-59.5 -51t-41 -74t-25 -87.5t-13.5 -108t-5.5 -118.5t-1 -135q0 -97 1.5 -153t8 -131t19.5 -116.5t37.5 -89t60 -71.5t88.5 -40t122 -16z" />
    <glyph glyph-name="one.onum" horiz-adv-x="1186" 
d="M518 0v1461q-205 -49 -451 -76l-19 352q315 46 565 163h340v-1900h-435z" />
    <glyph glyph-name="two.onum" horiz-adv-x="1724" 
d="M203 1521l-45 337q367 64 676 64q130 0 234.5 -13.5t199 -48t157.5 -89.5t100 -142.5t37 -203.5q0 -263 -147.5 -435.5t-448.5 -282.5q-132 -48 -205.5 -96.5t-105.5 -102t-47 -138.5h953v-370h-1438q27 141 43 217t42 178.5t48.5 156.5t58 125t75 111.5t96 88.5
t125.5 83t158 70q201 78 286 148.5t85 180.5q0 63 -22.5 101.5t-81.5 61.5t-146 31t-232 8q-185 0 -455 -40z" />
    <glyph glyph-name="three.onum" horiz-adv-x="1727" 
d="M783 1922q92 0 169 -6t157 -22t143 -41.5t119.5 -67.5t94 -97.5t59.5 -133.5t22 -174q0 -316 -270 -460q153 -64 227.5 -171t74.5 -278q0 -151 -36.5 -265t-102.5 -189.5t-167.5 -122.5t-223 -67t-276.5 -20q-273 0 -650 71l49 344q360 -46 524 -46q94 0 158 6.5t119 24
t86.5 49t48.5 81t17 119.5q0 229 -211 256q-170 22 -430 22h-43v326q226 4 473 40q99 15 144 74t45 163q0 50 -11.5 87t-35.5 61t-52.5 39.5t-72.5 23t-84.5 10t-97.5 2.5q-203 0 -560 -47l-45 339q362 70 639 70z" />
    <glyph glyph-name="four.onum" horiz-adv-x="1833" 
d="M1045 -171v462h-679q-156 0 -219.5 58.5t-63.5 167.5q0 134 149 326l687 884q88 113 161.5 154t169.5 41q98 0 160 -65.5t62 -188.5v-1034h252v-343h-252v-462h-427zM1047 1331l-521 -697h521v697z" />
    <glyph glyph-name="five.onum" horiz-adv-x="1750" 
d="M642 1523l-26 -382q14 0 39.5 1t45 1.5t33.5 0.5q115 0 205 -6.5t183 -24t161.5 -48t130 -80t100 -117.5t61 -163.5t22.5 -215.5q0 -359 -197.5 -521t-589.5 -162q-330 0 -671 73l47 344q318 -48 528 -48q85 0 142 4.5t108.5 18.5t82 38t53.5 63t32 94t9 131
q0 71 -29 122t-73.5 79.5t-115 45t-136 21.5t-154.5 5q-244 0 -445 -12l77 1115h1283v-377h-906z" />
    <glyph glyph-name="six.onum" horiz-adv-x="1860" 
d="M968 1332q149 0 261 -17.5t209.5 -62.5t159.5 -119t97 -190t35 -274q0 -164 -38 -285.5t-105 -199t-170 -124.5t-220.5 -65.5t-269.5 -18.5q-131 0 -237 20.5t-184.5 58t-137.5 96t-97 128t-61.5 161t-33 188.5t-9.5 216q0 184 10.5 326.5t36.5 268.5t67.5 217.5t106 167
t148.5 124t199.5 82.5t255 48t317.5 14q83 0 261 -5l36 -343q-48 -2 -122 -4t-129.5 -3t-128.5 -5.5t-128 -11t-118.5 -21.5t-110 -35.5t-92 -53t-75 -74.5t-49 -99.5t-23.5 -128.5q192 24 339 24zM916 996q-141 0 -310 -25q-6 -66 -6 -173q0 -80 6 -140.5t25.5 -125
t53 -106t93 -68t141.5 -26.5q146 0 227 33.5t115 106t34 203.5q0 96 -25 160t-76.5 99t-117 48.5t-160.5 13.5z" />
    <glyph glyph-name="seven.onum" horiz-adv-x="1608" 
d="M1525 1563l-782 -1735h-493l830 1694h-991v378h1215q121 0 187.5 -54t66.5 -147q0 -61 -33 -136z" />
    <glyph glyph-name="eight.onum" horiz-adv-x="1858" 
d="M931 2092q79 0 150 -6t148.5 -21.5t142 -40.5t123.5 -66.5t99.5 -95t64.5 -130t24 -168.5q0 -90 -12 -154.5t-43 -125t-86.5 -110t-142.5 -98.5q105 -60 169.5 -122t103 -155.5t38.5 -217.5q0 -105 -21 -190.5t-58 -147.5t-93 -109t-120 -77t-145.5 -48.5t-163 -25.5
t-178.5 -7q-143 0 -258.5 18t-215 61t-166 111.5t-104.5 173t-38 241.5q0 92 20 164t62.5 130t96.5 103t135 93q-148 81 -216 193t-68 300q0 92 23.5 168t64 130t99 95t122.5 66.5t141.5 41t149.5 21.5t152 6zM931 324q79 0 138 11.5t109.5 39.5t77 81.5t26.5 132.5
q0 64 -10.5 107t-37 79t-77 59.5t-125.5 40t-187 28.5q-127 -29 -197.5 -106.5t-70.5 -207.5q0 -79 26 -133t76 -82t110 -39t142 -11zM1019 1241q130 36 192.5 96.5t62.5 176.5q0 74 -25 122.5t-74.5 73.5t-106 34t-137.5 9q-62 0 -108 -5t-91.5 -20t-74 -41t-46 -69.5
t-17.5 -103.5q0 -49 9 -85t35.5 -70.5t72.5 -57t123 -38.5t185 -22z" />
    <glyph glyph-name="nine.onum" horiz-adv-x="1859" 
d="M889 566q-149 0 -261 17.5t-209.5 62.5t-159 119t-96.5 190t-35 274q0 118 19.5 213.5t55 167t90 125.5t119.5 89.5t148.5 57.5t173 31t196.5 9q131 0 237 -20.5t184.5 -58t137.5 -96t97 -128t61.5 -161t33 -188.5t9.5 -216q0 -184 -10.5 -326.5t-36.5 -268.5
t-67.5 -217.5t-106 -167t-148.5 -124t-199.5 -82.5t-255 -48t-317.5 -14q-83 0 -261 5l-36 343q48 2 122 4t129.5 3t128.5 5.5t128 11t118.5 21.5t110 35.5t92.5 53t75.5 74.5t49 99.5t23.5 128.5q-194 -24 -340 -24zM942 902q140 0 309 25q6 66 6 173q0 80 -6 140.5
t-25.5 125t-53 106t-93 68t-140.5 26.5q-147 0 -228 -33.5t-115 -106t-34 -203.5q0 -96 25 -160t77 -99t117.5 -48.5t160.5 -13.5z" />
    <glyph glyph-name="dollar.onum" horiz-adv-x="1593" 
d="M151 389q315 -47 547 -47q170 0 254 52.5t84 192.5q0 43 -10 77.5t-34 61.5t-48.5 46t-69 37.5t-78.5 30.5t-94 30q-102 31 -174 58.5t-144.5 66t-119 83t-84 104.5t-54.5 137.5t-17 174.5q0 280 135 417.5t407 169.5v285h307v-277q253 -11 495 -64l-40 -339
q-300 46 -461 46q-44 0 -74 -1t-76 -5t-78 -11.5t-68.5 -22.5t-58.5 -36t-37 -53t-15 -73q0 -40 9.5 -73t23 -56.5t41 -44.5t49 -33.5t62.5 -27t66 -21.5t74 -20l45 -12q152 -42 255 -93t175.5 -126.5t105.5 -178t33 -242.5q0 -280 -136 -426.5t-405 -184.5v-289h-307v275
q-272 8 -528 65z" />
    <glyph glyph-name="cent.onum" horiz-adv-x="1363" 
d="M1234 597l36 -316q-171 -44 -352 -56v-278h-288v279q-90 12 -163 43.5t-124.5 75.5t-90 105.5t-61.5 127t-37 147.5t-19 157.5t-5 166.5q0 143 12.5 250t46 202.5t89.5 160.5t143.5 109.5t208.5 63.5v286h288v-273q176 -9 349 -61l-33 -306q-208 38 -292 38
q-91 0 -154 -8.5t-108.5 -33t-71 -56t-40 -90t-19 -120.5t-4.5 -162q0 -102 3 -158t15 -121.5t37.5 -98t69.5 -63t111.5 -41.5t163.5 -11t289 41z" />
    <glyph glyph-name="Euro.onum" horiz-adv-x="1701" 
d="M127 1105l54 246h156q18 197 64 333t132.5 229t219.5 136t323 43q269 0 482 -70l-34 -341q-220 42 -377 42q-98 0 -167.5 -25.5t-112 -76.5t-64.5 -115.5t-32 -154.5h637l-54 -246h-593v-126h565l-54 -244h-502q9 -95 30 -162t62.5 -121t112.5 -80.5t172 -26.5
q159 0 377 42l34 -343q-218 -68 -482 -68q-193 0 -326.5 43.5t-220.5 139.5t-132 234.5t-62 341.5h-228l54 244h164v126h-198z" />
    <glyph glyph-name="sterling.onum" horiz-adv-x="1830" 
d="M415 885h-293v325h247q-16 151 -16 288q0 139 39.5 244.5t106 171.5t165 107t205 56.5t237.5 15.5q89 0 164 -14t128 -33.5t111 -59t96 -72t99 -91.5l-223 -264q-96 85 -177 126t-187 41q-185 0 -255 -68.5t-70 -226.5q0 -88 14 -221h446v-325h-414q4 -88 4 -136
q0 -75 -23.5 -180.5t-57.5 -197.5h345q283 0 526 40l37 -345q-115 -29 -311.5 -47.5t-404.5 -18.5h-474q-109 0 -163 48t-54 124q0 35 17 79t41 91t48 101t41 128.5t17 154.5q0 76 -11 159z" />
    <glyph glyph-name="yen.onum" horiz-adv-x="1761" 
d="M526 2072l356 -822l368 822h428l-424 -925h215v-270h-339l-35 -77v-98h374v-266h-374v-436h-433v436h-371v266h371v98l-35 77h-336v270h213l-421 925h443z" />
    <glyph glyph-name="zero.tnum" 
d="M985 -24q-131 0 -237.5 17.5t-190.5 54.5t-147.5 88.5t-110 126.5t-77 161t-49 199.5t-26 234t-7.5 272.5t7.5 272.5t26 234t49 199.5t77 161t110 126.5t147.5 88.5t190.5 54.5t237.5 17.5t237.5 -17.5t190 -54.5t147.5 -88.5t110 -126.5t77 -161t49 -199.5t25.5 -234
t7.5 -272.5t-7.5 -272.5t-25.5 -234t-49 -199.5t-77 -161t-110 -126.5t-147.5 -88.5t-190 -54.5t-237.5 -17.5zM985 345q62 0 112 12.5t87.5 31t66 56t48 71.5t32.5 93.5t20 106t10.5 126t4.5 136t1 152.5q0 124 -1.5 194t-9 166t-22.5 149t-42.5 114t-68 91.5t-100 51
t-138.5 20.5t-139 -20.5t-100.5 -51t-68 -91.5t-42.5 -114t-22.5 -149t-9 -166t-1.5 -194q0 -108 1 -170.5t6 -149.5t15.5 -137t28.5 -111t46.5 -94.5t68 -65t94 -44.5t123.5 -13z" />
    <glyph glyph-name="one.tnum" 
d="M917 0v1802q-218 -55 -498 -86l-20 365q336 50 613 179h361v-2260h-456z" />
    <glyph glyph-name="two.tnum" 
d="M250 1853l-43 354q402 77 743 77q144 0 260 -15.5t220.5 -56t175 -104.5t111.5 -165.5t41 -235.5q0 -308 -162 -511.5t-498 -335.5q-80 -32 -139 -62t-102 -64t-71 -67.5t-47 -78t-29.5 -88t-19.5 -105.5h1067v-395h-1587q26 144 41 224t38.5 188.5t44 168t51 138.5
t64.5 125t80.5 102t103.5 95t128 79.5t159 78.5q112 48 184.5 89t127 91.5t78.5 110t24 137.5q0 58 -11 99t-37.5 72.5t-65.5 50.5t-102 31t-138.5 16.5t-183.5 4.5q-216 0 -506 -48z" />
    <glyph glyph-name="three.tnum" 
d="M895 2284q99 0 183 -6.5t171.5 -23.5t156 -45t130 -73t102.5 -105t64.5 -144.5t23.5 -187.5q0 -172 -78.5 -302.5t-235.5 -206.5q177 -69 263 -186t86 -307q0 -164 -39.5 -287.5t-111.5 -205.5t-182.5 -133.5t-242.5 -73t-302 -21.5q-184 0 -346 20t-356 57l50 357
q387 -50 568 -50q106 0 178 7.5t134 27.5t97.5 56t55 92t19.5 137q0 262 -243 292q-192 25 -469 25h-41v337q244 6 510 44q115 17 166.5 84.5t51.5 188.5q0 68 -20.5 115.5t-52.5 75t-87.5 42.5t-108.5 19t-131 4q-217 0 -607 -50l-47 351q390 76 691 76z" />
    <glyph glyph-name="four.tnum" 
d="M1138 0v509h-760q-165 0 -232.5 61.5t-67.5 176.5q0 41 8 78.5t46.5 111.5t107.5 163l756 973q95 122 174 166.5t182 44.5t168.5 -69.5t65.5 -199.5v-1150h277v-356h-277v-509h-448zM1140 1678l-608 -813h608v813z" />
    <glyph glyph-name="five.tnum" 
d="M719 1868l-31 -445q64 4 142 4q125 0 223 -7t199 -26t175.5 -52t141.5 -87t109 -127.5t66.5 -177t24.5 -233.5q0 -389 -214.5 -565t-640.5 -176q-372 0 -727 79l49 357q361 -51 572 -51q95 0 159.5 5.5t123 21t93 42t60 71t36 106.5t10.5 149q0 58 -16.5 104.5t-44.5 79
t-71.5 56t-89.5 37.5t-107.5 22t-116.5 10.5t-125 2.5q-229 0 -478 -12l83 1204h1391v-392h-996z" />
    <glyph glyph-name="six.tnum" 
d="M1026 1447q162 0 284 -19t228 -67.5t173 -129t105 -206.5t38 -297q0 -178 -41.5 -310t-114 -216t-185 -135t-239.5 -71t-293 -20q-198 0 -343.5 43.5t-237.5 120.5t-147.5 198.5t-76.5 259.5t-21 322q0 201 11.5 356.5t40 293.5t73.5 238t115.5 182.5t162.5 136t217.5 90
t278 52t346.5 15.5q82 0 279 -5l36 -357q-49 -2 -129 -3t-140 -1t-141.5 -4.5t-143.5 -12t-134 -24.5t-124.5 -41t-104 -62t-84 -87t-52.5 -117.5t-21 -151.5q209 29 385 29zM969 1100q-154 0 -352 -30q-7 -74 -7 -199q0 -63 3 -114t12.5 -107t25.5 -98.5t43.5 -82.5t65 -66
t91.5 -41.5t121 -15.5q166 0 257.5 38t129.5 120t38 230q0 88 -19.5 152.5t-53.5 105.5t-89 65t-118 33.5t-148 9.5z" />
    <glyph glyph-name="seven.tnum" 
d="M1769 1905l-858 -1905h-519l916 1866h-1100v394h1328q129 0 199 -56.5t70 -154.5q0 -65 -36 -144z" />
    <glyph glyph-name="eight.tnum" 
d="M987 2284q86 0 163 -6t161 -23t154 -44t134 -71.5t108.5 -102.5t70.5 -140t26 -182q0 -101 -13.5 -172t-49 -137t-98.5 -120.5t-163 -108.5q87 -49 148 -98.5t109.5 -114.5t72.5 -147.5t24 -185.5q0 -157 -44.5 -274.5t-118.5 -189t-186 -115.5t-230.5 -60t-267.5 -16
q-156 0 -281 19.5t-233.5 66t-181 120.5t-113.5 187t-41 261q0 101 22.5 180.5t71.5 143.5t110 113.5t153 102.5q-166 89 -245 214t-79 331q0 99 25.5 181t69.5 140t107.5 102.5t133 71.5t154 44t162.5 23.5t165 6.5zM987 336q71 0 127 7.5t108 28t87 54t55.5 87.5t20.5 126
q0 73 -11.5 122t-42 90.5t-87 67.5t-142 45t-212.5 32q-304 -62 -304 -357q0 -73 20 -127t54 -87t86.5 -53.5t109.5 -28t131 -7.5zM1085 1347q154 40 222.5 107t68.5 204q0 68 -20 118t-52.5 80t-84.5 47.5t-106 23.5t-126 6q-70 0 -122.5 -5.5t-104 -23t-84 -47t-52.5 -80
t-20 -119.5q0 -56 10 -96.5t40 -80t82 -65t139.5 -44t209.5 -25.5z" />
    <glyph glyph-name="nine.tnum" 
d="M941 813q-162 0 -284 19t-228 67.5t-173 129t-105 206.5t-38 297q0 178 41.5 310t114 216t185 135t239.5 71t293 20q198 0 343.5 -43.5t237.5 -120.5t147.5 -198.5t76.5 -259.5t21 -322q0 -201 -11.5 -356.5t-40 -293.5t-73.5 -238t-115.5 -182.5t-162.5 -136t-217.5 -90
t-278 -52t-346.5 -15.5q-82 0 -279 5l-36 357q49 2 129 3t140 1t141.5 4.5t143.5 12t134 24.5t124.5 41t104 62t84 87t52.5 117.5t21 151.5q-209 -29 -385 -29zM998 1160q154 0 352 30q7 74 7 199q0 63 -3 114t-12.5 107t-25.5 98.5t-43.5 82.5t-65 66t-91.5 41.5t-121 15.5
q-125 0 -205.5 -19.5t-130.5 -67t-70 -119t-20 -182.5q0 -109 28.5 -182.5t87 -113t132.5 -55t181 -15.5z" />
    <glyph glyph-name="dollar.tnum" 
d="M283 408q339 -51 593 -51q95 0 161 12t118.5 42.5t78 86.5t25.5 140q0 74 -23.5 126t-86 89t-106.5 54t-147 49q-8 3 -12 4q-95 29 -164 54.5t-140.5 59.5t-120 70.5t-93 86t-70.5 107.5t-41 133t-15 166q0 155 38.5 269.5t116 190t185.5 118t256 58.5v313h316v-304
q275 -11 543 -69l-41 -352q-313 49 -498 49q-49 0 -83.5 -1t-86.5 -6t-88 -13.5t-77 -26t-66 -41.5t-41.5 -61t-16.5 -84q0 -64 20.5 -111.5t42 -75.5t86 -56.5t99 -39t135.5 -37.5q21 -6 32 -9q168 -46 280.5 -101t190.5 -136.5t113 -192.5t35 -264q0 -305 -150 -464
t-446 -199v-317h-316v303q-290 7 -580 69z" />
    <glyph glyph-name="cent.tnum" 
d="M1584 635l37 -326q-189 -47 -386 -60v-306h-295v307q-99 12 -179.5 45.5t-137 81.5t-99 115t-68 138.5t-41 161t-21 172.5t-5.5 182q0 130 9.5 231t33 195t64.5 163.5t101 125t146 91t197 51.5v314h295v-301q196 -7 383 -65l-34 -316q-215 41 -312 41q-69 0 -122.5 -5
t-97.5 -14.5t-76.5 -27.5t-57.5 -39t-41.5 -55t-27 -69t-16.5 -88t-8 -105.5t-2 -126.5q0 -97 2.5 -153.5t11.5 -124t27.5 -104t50.5 -75t80.5 -56t117.5 -29t162 -11.5q107 0 309 42z" />
    <glyph glyph-name="Euro.tnum" 
d="M201 1220l54 248h173q19 217 69 366.5t144.5 252.5t239 150t351.5 47q290 0 519 -74l-35 -354q-223 44 -406 44q-91 0 -160.5 -20.5t-115.5 -56t-77 -91t-47.5 -118.5t-24.5 -146h698l-54 -248h-655v-162h619l-53 -247h-557q7 -87 22.5 -152.5t46.5 -124t77 -95.5
t116.5 -58t164.5 -21q185 0 405 44l36 -356q-228 -72 -519 -72q-210 0 -355.5 48t-239.5 153.5t-143 258t-67 375.5h-247l53 247h183v72q0 60 1 90h-216z" />
    <glyph glyph-name="sterling.tnum" 
d="M446 975h-322v336h275q-20 160 -20 329q0 150 43 264t115.5 185.5t179.5 116t223 61.5t258 17q81 0 148.5 -8.5t125.5 -29t102 -41.5t94 -59t84 -68t88 -82l-231 -274q-104 92 -192.5 136t-206.5 44q-109 0 -181 -19.5t-114 -63t-59 -104t-17 -150.5q0 -103 17 -254h491
v-336h-457q5 -87 5 -161q0 -87 -27.5 -208t-65.5 -220h396q301 0 568 42l39 -358q-121 -31 -334 -50.5t-442 -19.5h-522q-115 0 -171.5 50t-56.5 129q0 37 18.5 84.5t45 99t53 111.5t45 142.5t18.5 171.5q0 86 -13 187z" />
    <glyph glyph-name="yen.tnum" 
d="M589 2260l398 -922l413 922h447l-467 -1019h243v-275h-369l-43 -94v-121h412v-271h-412v-480h-455v480h-408v271h408v122l-43 93h-365v275h240l-464 1019h465z" />
    <glyph glyph-name="period.tnum" horiz-adv-x="985" 
d="M492 -24q-151 0 -206.5 55t-55.5 201t56 201t206 55t206.5 -55t56.5 -201t-55.5 -201t-207.5 -55z" />
    <glyph glyph-name="comma.tnum" horiz-adv-x="985" 
d="M119 -433l209 888h492l-339 -888h-362z" />
    <glyph glyph-name="colon.tnum" horiz-adv-x="985" 
d="M492 -24q-152 0 -207 55t-55 201t56 201t206 55t206.5 -55t56.5 -201t-55.5 -201t-207.5 -55zM492 1143q-152 0 -207 54.5t-55 201.5q0 146 56 201t206 55t206.5 -55t56.5 -201t-55.5 -201t-207.5 -55z" />
    <glyph glyph-name="semicolon.tnum" horiz-adv-x="985" 
d="M578 1143q-152 0 -207 54.5t-55 201.5q0 146 56 201t206 55t206.5 -55t56.5 -201t-55.5 -201t-207.5 -55zM114 -433l209 888h493l-339 -888h-363z" />
    <glyph glyph-name="zero.onum_tnum" horiz-adv-x="1810" 
d="M905 -24q-138 0 -246 20t-189.5 58t-140.5 100t-98 137.5t-61.5 179.5t-32 217.5t-9.5 259.5q0 147 9 260.5t32 218t61.5 179.5t97.5 137.5t140.5 100t190 58t246.5 20.5q107 0 196.5 -12t161.5 -35t129.5 -60.5t101.5 -83.5t76 -108.5t53.5 -131.5t34 -157t18 -180.5
t5.5 -205.5q0 -146 -9 -259t-32 -217.5t-61.5 -180t-97.5 -137.5t-140.5 -99.5t-189.5 -58t-246 -20.5zM905 331q69 0 122 16t88.5 39.5t60 71.5t37.5 89.5t19.5 117t8 131t1.5 152.5q0 85 -1 135t-5.5 118.5t-13.5 108t-25 87.5t-41 74t-59.5 51t-82.5 35t-109 10t-109 -10
t-82.5 -35t-59.5 -51t-41 -74t-25 -87.5t-13.5 -108t-5.5 -118.5t-1 -135q0 -97 1.5 -153t8 -131t19.5 -116.5t37.5 -89t60 -71.5t88.5 -40t122 -16z" />
    <glyph glyph-name="one.onum_tnum" horiz-adv-x="1810" 
d="M830 0v1461q-205 -49 -451 -76l-19 352q315 46 565 163h340v-1900h-435z" />
    <glyph glyph-name="two.onum_tnum" horiz-adv-x="1810" 
d="M246 1521l-45 337q367 64 676 64q130 0 234.5 -13.5t199 -48t157.5 -89.5t100 -142.5t37 -203.5q0 -263 -147.5 -435.5t-448.5 -282.5q-132 -48 -205.5 -96.5t-105.5 -102t-47 -138.5h953v-370h-1438q27 141 43 217t42 178.5t48.5 156.5t58 125t75 111.5t96 88.5
t125.5 83t158 70q201 78 286 148.5t85 180.5q0 63 -22.5 101.5t-81.5 61.5t-146 31t-232 8q-185 0 -455 -40z" />
    <glyph glyph-name="three.onum_tnum" horiz-adv-x="1810" 
d="M825 1922q92 0 169 -6t157 -22t143 -41.5t119.5 -67.5t94 -97.5t59.5 -133.5t22 -174q0 -316 -270 -460q153 -64 227.5 -171t74.5 -278q0 -151 -36.5 -265t-102.5 -189.5t-167.5 -122.5t-223 -67t-276.5 -20q-273 0 -650 71l49 344q360 -46 524 -46q94 0 158 6.5t119 24
t86.5 49t48.5 81t17 119.5q0 229 -211 256q-170 22 -430 22h-43v326q226 4 473 40q99 15 144 74t45 163q0 50 -11.5 87t-35.5 61t-52.5 39.5t-72.5 23t-84.5 10t-97.5 2.5q-203 0 -560 -47l-45 339q362 70 639 70z" />
    <glyph glyph-name="four.onum_tnum" horiz-adv-x="1810" 
d="M1033 -171v462h-679q-156 0 -219.5 58.5t-63.5 167.5q0 134 149 326l687 884q88 113 161.5 154t169.5 41q98 0 160 -65.5t62 -188.5v-1034h252v-343h-252v-462h-427zM1035 1331l-521 -697h521v697z" />
    <glyph glyph-name="five.onum_tnum" horiz-adv-x="1810" 
d="M672 1523l-26 -382q14 0 39.5 1t45 1.5t33.5 0.5q115 0 205 -6.5t183 -24t161.5 -48t130 -80t100 -117.5t61 -163.5t22.5 -215.5q0 -359 -197.5 -521t-589.5 -162q-330 0 -671 73l47 344q318 -48 528 -48q85 0 142 4.5t108.5 18.5t82 38t53.5 63t32 94t9 131
q0 71 -29 122t-73.5 79.5t-115 45t-136 21.5t-154.5 5q-244 0 -445 -12l77 1115h1283v-377h-906z" />
    <glyph glyph-name="six.onum_tnum" horiz-adv-x="1810" 
d="M943 1332q149 0 261 -17.5t209.5 -62.5t159.5 -119t97 -190t35 -274q0 -164 -38 -285.5t-105 -199t-170 -124.5t-220.5 -65.5t-269.5 -18.5q-131 0 -237 20.5t-184.5 58t-137.5 96t-97 128t-61.5 161t-33 188.5t-9.5 216q0 184 10.5 326.5t36.5 268.5t67.5 217.5t106 167
t148.5 124t199.5 82.5t255 48t317.5 14q83 0 261 -5l36 -343q-48 -2 -122 -4t-129.5 -3t-128.5 -5.5t-128 -11t-118.5 -21.5t-110 -35.5t-92 -53t-75 -74.5t-49 -99.5t-23.5 -128.5q192 24 339 24zM891 996q-141 0 -310 -25q-6 -66 -6 -173q0 -80 6 -140.5t25.5 -125
t53 -106t93 -68t141.5 -26.5q146 0 227 33.5t115 106t34 203.5q0 96 -25 160t-76.5 99t-117 48.5t-160.5 13.5z" />
    <glyph glyph-name="seven.onum_tnum" horiz-adv-x="1810" 
d="M1626 1563l-782 -1735h-493l830 1694h-991v378h1215q121 0 187.5 -54t66.5 -147q0 -61 -33 -136z" />
    <glyph glyph-name="eight.onum_tnum" horiz-adv-x="1810" 
d="M907 2092q79 0 150 -6t148.5 -21.5t142 -40.5t123.5 -66.5t99.5 -95t64.5 -130t24 -168.5q0 -90 -12 -154.5t-43 -125t-86.5 -110t-142.5 -98.5q105 -60 169.5 -122t103 -155.5t38.5 -217.5q0 -105 -21 -190.5t-58 -147.5t-93 -109t-120 -77t-145.5 -48.5t-163 -25.5
t-178.5 -7q-143 0 -258.5 18t-215 61t-166 111.5t-104.5 173t-38 241.5q0 92 20 164t62.5 130t96.5 103t135 93q-148 81 -216 193t-68 300q0 92 23.5 168t64 130t99 95t122.5 66.5t141.5 41t149.5 21.5t152 6zM907 324q79 0 138 11.5t109.5 39.5t77 81.5t26.5 132.5
q0 64 -10.5 107t-37 79t-77 59.5t-125.5 40t-187 28.5q-127 -29 -197.5 -106.5t-70.5 -207.5q0 -79 26 -133t76 -82t110 -39t142 -11zM995 1241q130 36 192.5 96.5t62.5 176.5q0 74 -25 122.5t-74.5 73.5t-106 34t-137.5 9q-62 0 -108 -5t-91.5 -20t-74 -41t-46 -69.5
t-17.5 -103.5q0 -49 9 -85t35.5 -70.5t72.5 -57t123 -38.5t185 -22z" />
    <glyph glyph-name="nine.onum_tnum" horiz-adv-x="1810" 
d="M864 566q-149 0 -261 17.5t-209.5 62.5t-159 119t-96.5 190t-35 274q0 118 19.5 213.5t55 167t90 125.5t119.5 89.5t148.5 57.5t173 31t196.5 9q131 0 237 -20.5t184.5 -58t137.5 -96t97 -128t61.5 -161t33 -188.5t9.5 -216q0 -184 -10.5 -326.5t-36.5 -268.5
t-67.5 -217.5t-106 -167t-148.5 -124t-199.5 -82.5t-255 -48t-317.5 -14q-83 0 -261 5l-36 343q48 2 122 4t129.5 3t128.5 5.5t128 11t118.5 21.5t110 35.5t92.5 53t75.5 74.5t49 99.5t23.5 128.5q-194 -24 -340 -24zM917 902q140 0 309 25q6 66 6 173q0 80 -6 140.5
t-25.5 125t-53 106t-93 68t-140.5 26.5q-147 0 -228 -33.5t-115 -106t-34 -203.5q0 -96 25 -160t77 -99t117.5 -48.5t160.5 -13.5z" />
    <glyph glyph-name="dollar.onum_tnum" horiz-adv-x="1810" 
d="M260 389q315 -47 547 -47q170 0 254 52.5t84 192.5q0 43 -10 77.5t-34 61.5t-48.5 46t-69 37.5t-78.5 30.5t-94 30q-102 31 -174 58.5t-144.5 66t-119 83t-84 104.5t-54.5 137.5t-17 174.5q0 280 135 417.5t407 169.5v285h307v-277q253 -11 495 -64l-40 -339
q-300 46 -461 46q-44 0 -74 -1t-76 -5t-78 -11.5t-68.5 -22.5t-58.5 -36t-37 -53t-15 -73q0 -40 9.5 -73t23 -56.5t41 -44.5t49 -33.5t62.5 -27t66 -21.5t74 -20l45 -12q152 -42 255 -93t175.5 -126.5t105.5 -178t33 -242.5q0 -280 -136 -426.5t-405 -184.5v-289h-307v275
q-272 8 -528 65z" />
    <glyph glyph-name="cent.onum_tnum" horiz-adv-x="1810" 
d="M1458 597l36 -316q-171 -44 -352 -56v-278h-288v279q-90 12 -163 43.5t-124.5 75.5t-90 105.5t-61.5 127t-37 147.5t-19 157.5t-5 166.5q0 143 12.5 250t46 202.5t89.5 160.5t143.5 109.5t208.5 63.5v286h288v-273q176 -9 349 -61l-33 -306q-208 38 -292 38
q-91 0 -154 -8.5t-108.5 -33t-71 -56t-40 -90t-19 -120.5t-4.5 -162q0 -102 3 -158t15 -121.5t37.5 -98t69.5 -63t111.5 -41.5t163.5 -11t289 41z" />
    <glyph glyph-name="Euro.onum_tnum" horiz-adv-x="1810" 
d="M182 1105l54 246h156q18 197 64 333t132.5 229t219.5 136t323 43q269 0 482 -70l-34 -341q-220 42 -377 42q-98 0 -167.5 -25.5t-112 -76.5t-64.5 -115.5t-32 -154.5h637l-54 -246h-593v-126h565l-54 -244h-502q9 -95 30 -162t62.5 -121t112.5 -80.5t172 -26.5
q159 0 377 42l34 -343q-218 -68 -482 -68q-193 0 -326.5 43.5t-220.5 139.5t-132 234.5t-62 341.5h-228l54 244h164v126h-198z" />
    <glyph glyph-name="sterling.onum_tnum" horiz-adv-x="1810" 
d="M405 885h-293v325h247q-16 151 -16 288q0 139 39.5 244.5t106 171.5t165 107t205 56.5t237.5 15.5q89 0 164 -14t128 -33.5t111 -59t96 -72t99 -91.5l-223 -264q-96 85 -177 126t-187 41q-185 0 -255 -68.5t-70 -226.5q0 -88 14 -221h446v-325h-414q4 -88 4 -136
q0 -75 -23.5 -180.5t-57.5 -197.5h345q283 0 526 40l37 -345q-115 -29 -311.5 -47.5t-404.5 -18.5h-474q-109 0 -163 48t-54 124q0 35 17 79t41 91t48 101t41 128.5t17 154.5q0 76 -11 159z" />
    <glyph glyph-name="yen.onum_tnum" horiz-adv-x="1810" 
d="M551 2072l356 -822l368 822h428l-424 -925h215v-270h-339l-35 -77v-98h374v-266h-374v-436h-433v436h-371v266h371v98l-35 77h-336v270h213l-421 925h443z" />
    <glyph glyph-name="parenleft.case" horiz-adv-x="1080" 
d="M724 2663l253 -209q-91 -89 -160 -215t-108.5 -255.5t-64 -282t-32.5 -278.5t-8 -262q0 -938 372 -1293l-252 -210q-132 109 -232.5 246.5t-163.5 281.5t-103 311.5t-55.5 326.5t-15.5 337t15.5 337t55.5 326.5t103 311t163.5 281t232.5 246.5z" />
    <glyph glyph-name="parenright.case" horiz-adv-x="1080" 
d="M356 -342l-253 210q373 356 373 1293q0 136 -8 262t-32.5 278.5t-64 282t-108.5 255.5t-160 215l253 209q132 -109 232.5 -246.5t163.5 -281t103 -311t55.5 -326.5t15.5 -337t-15.5 -337t-55.5 -326.5t-103 -311.5t-163.5 -281.5t-232.5 -246.5z" />
    <glyph glyph-name="bracketleft.case" horiz-adv-x="1091" 
d="M665 2301v-2268h324v-344h-738v2952h740v-340h-326z" />
    <glyph glyph-name="bracketright.case" horiz-adv-x="1091" 
d="M100 2301v340h740v-2952h-738v344h324v2268h-326z" />
    <glyph glyph-name="braceleft.case" horiz-adv-x="1100" 
d="M748 585v-167q0 -52 1.5 -86t7 -77.5t16.5 -72t31 -59.5t48.5 -50.5t70.5 -34.5t97 -22l-37 -307q-113 9 -196 25.5t-158.5 47.5t-125.5 79t-87 118.5t-54 167.5t-17 224q0 121 -4 206t-14 159t-27 121t-44 82.5t-64 52.5t-88 22v305q51 5 88 22t64 52t44 82.5t27 121.5
t14 159.5t4 205.5q0 127 17 223.5t54 167t87 118.5t125.5 79t158.5 47.5t196 25.5l37 -306q-55 -7 -97 -22.5t-70.5 -34.5t-48.5 -50t-31 -59.5t-16.5 -72t-7 -77.5t-1.5 -87v-167q0 -209 -18 -305q-40 -214 -192 -277q57 -28 97.5 -79t62 -106t33.5 -131t14.5 -132
t2.5 -132z" />
    <glyph glyph-name="braceright.case" horiz-adv-x="1101" 
d="M997 1319v-305q-51 -5 -88 -22t-64 -52.5t-44 -82.5t-27 -121t-14 -159t-4 -206q0 -127 -17 -224t-54.5 -167.5t-87.5 -118.5t-125 -79t-158 -47.5t-196 -25.5l-38 307q48 6 86.5 17.5t66 30t48 38.5t33.5 50t21 56t12 65t5 69.5t1 75.5v167q0 76 2.5 132t14.5 132
t33.5 131t62 106t97.5 79q-34 14 -62.5 36.5t-49 46t-36.5 58t-26 63t-17.5 72t-11 72t-5.5 76.5t-2 73.5v72.5v12v167q0 46 -1 76.5t-5 69.5t-12 65t-21 56t-33.5 50t-48 38.5t-66 30t-86.5 17.5l38 306q96 -8 170 -21t142.5 -36t118 -57t90.5 -83.5t65.5 -115.5t38 -152.5
t13.5 -195.5q0 -120 4 -205.5t14 -159.5t27 -121.5t44 -82.5t64 -52t88 -22z" />
    <glyph glyph-name="questiondown.case" horiz-adv-x="1769" 
d="M843 1636h389l8 -219q3 -57 3 -81q0 -93 -22 -158t-59 -99.5t-85.5 -55t-102 -30t-106.5 -18.5t-101.5 -27t-85.5 -48.5t-59 -89.5t-22 -144q0 -121 39 -185.5t132 -93t268 -28.5q298 0 557 51l79 -367q-331 -79 -690 -79q-93 0 -167.5 4t-152 14t-138 27.5t-119.5 45.5
t-102.5 66t-81 91t-61 119t-36.5 151t-13 186q0 128 24.5 227.5t65.5 160.5t94.5 105t113 67t119 39.5t113.5 29.5t96.5 30t68 48t27.5 77zM775 2091q0 140 56.5 195.5t205.5 55.5t205.5 -55.5t56.5 -195.5t-57 -195.5t-205 -55.5t-205 55.5t-57 195.5z" />
    <glyph glyph-name="exclamdown.case" horiz-adv-x="956" 
d="M478 1840q-148 0 -205 55.5t-57 195.5t56.5 195.5t205.5 55.5t205.5 -55.5t56.5 -195.5t-57 -195.5t-205 -55.5zM217 -12l70 1648h383l70 -1648h-523z" />
    <glyph glyph-name="at.case" horiz-adv-x="2970" 
d="M2764 1627q61 -203 61 -462q0 -313 -87 -541t-259 -370.5t-416 -210t-571 -67.5q-329 0 -573.5 67.5t-416.5 210t-258.5 370t-86.5 541.5q0 258 59 456.5t170 336.5t280 227t380 129t479 40q112 0 206 -17t178.5 -58.5t143.5 -105t93.5 -162t34.5 -224.5v-693
q0 -172 -16 -331q-111 -72 -299.5 -115.5t-401.5 -43.5q-241 0 -392 64.5t-218 186.5t-67 310q0 242 114.5 379.5t371.5 184.5q139 26 513 46q0 147 -60 202t-218 55q-185 0 -327.5 -25.5t-261.5 -87t-196 -160t-119 -247.5t-42 -347q0 -195 41 -343t116.5 -247t191.5 -161
t257.5 -88.5t323.5 -26.5q183 0 324.5 26.5t258 88.5t192 161t116 246.5t40.5 343.5q0 197 -42 351zM1786 1195v314q-246 -7 -363 -41q-71 -20 -111.5 -39t-71.5 -52t-42.5 -81t-11.5 -122q0 -154 80 -210t257 -56q51 0 132 16.5t121 40.5q10 99 10 230z" />
    <glyph glyph-name="guilsinglleft.case" horiz-adv-x="1114" 
d="M544 1165l443 -690h-414l-488 690l488 690h414z" />
    <glyph glyph-name="guilsinglright.case" horiz-adv-x="1115" 
d="M1030 1165l-489 -690h-413l443 690l-443 690h413z" />
    <glyph glyph-name="guillemotleft.case" horiz-adv-x="1881" 
d="M544 1165l444 -690h-414l-489 690l489 690h414zM1311 1165l443 -690h-414l-489 690l489 690h414z" />
    <glyph glyph-name="guillemotright.case" horiz-adv-x="1881" 
d="M1030 1165l-488 -690h-414l443 690l-443 690h414zM1796 1165l-488 -690h-415l445 690l-445 690h415z" />
    <glyph glyph-name="hyphen.case" horiz-adv-x="1298" 
d="M209 987v356h880v-356h-880z" />
    <glyph glyph-name="endash.case" horiz-adv-x="2025" 
d="M209 996v337h1607v-337h-1607z" />
    <glyph glyph-name="emdash.case" horiz-adv-x="3578" 
d="M209 996v337h3160v-337h-3160z" />
    <glyph glyph-name="periodcentered.case" horiz-adv-x="929" 
d="M464 909q-152 0 -207 54.5t-55 201.5q0 146 56 201t206 55t206.5 -55t56.5 -201t-55.5 -201t-207.5 -55z" />
    </font>
</defs>
</svg>
